<svg width="32" height="32" viewBox="0 0 32 32" fill="none" xmlns="http://www.w3.org/2000/svg">
<path d="M29.6957 28.3913H28.3913L27.087 25.7826V12.7391H28.3913L29.6957 10.1304H27.7391L24.4783 3.6087L16 1L7.52174 3.6087L4.26087 10.1304H2.30435L3.6087 12.7391H4.91304V25.7826L3.6087 28.3913H2.30435L1 31H31L29.6957 28.3913Z" fill="white"/>
<path d="M11.4347 12.7392H7.52161V25.7826H11.4347V12.7392ZM17.9564 12.7392H14.0434V25.7826H17.9564V12.7392ZM24.4781 12.7392H20.5651V25.7826H24.4781V12.7392ZM4.26074 10.1305L7.52161 7.52178L15.9999 4.91309L24.4781 7.52178L27.739 10.1305H4.26074Z" fill="#BBD8FF"/>
<path d="M31 30.9999H1M27.087 12.739H4.91304V25.7825H27.087V12.739Z" stroke="#092F63" stroke-linecap="round" stroke-linejoin="round"/>
<path d="M7.52159 12.7391V25.7826M14.0433 12.7391V25.7826M11.4346 12.7391V25.7826M17.9564 12.7391V25.7826M20.5651 12.7391V25.7826M24.4781 12.7391V25.7826M2.3042 28.3913H29.6955M4.91289 23.1739H7.52159M11.4346 23.1739H14.0433M17.9564 23.1739H20.5651M24.4781 23.1739H27.0868M28.3912 28.3913H3.60855L4.91289 25.7826H27.0868L28.3912 28.3913ZM27.739 10.1304L24.4781 3.6087L15.9999 1L7.52159 3.6087L4.26072 10.1304H27.739ZM29.6955 10.1304H2.3042L3.60855 12.7391H28.3912L29.6955 10.1304Z" stroke="#092F63" stroke-linecap="round" stroke-linejoin="round"/>
</svg>
