<svg width="27" height="32" viewBox="0 0 27 32" fill="none" xmlns="http://www.w3.org/2000/svg">
<path d="M21.2171 17.9565H21.8693L23.1736 16L22.5214 14.0434L23.8258 12.0869L22.5214 10.1304L23.8258 8.17389L22.5214 6.21738H19.9128L22.5214 1H13.3911L14.565 3.34782L11.4346 4.91303L9.47814 8.82607L4.91299 10.1304V8.82607H1V17.9565H4.91299V16.6521L14.0433 17.9565L10.1303 21.8695V28.3912L17.9563 30.9999L25.7822 28.3912V21.8695L21.2171 17.9565Z" fill="white"/>
<path d="M10.1303 25.7811V28.3911L17.9563 30.9998L25.7822 28.3911V25.7811L17.9563 28.3898L10.1303 25.7811ZM4.91299 10.7825H1V17.9564H4.91299V10.7825ZM15.0215 4.26074L15.9998 6.21726H19.9128L20.891 4.26074H15.0215Z" fill="#BBD8FF"/>
<path d="M19.2607 21.8695H16.652L15.9999 23.1738L16.652 24.4782H19.2607L19.9129 25.7825L19.2607 27.0869H16.652M17.9564 21.8695V20.5651M17.9564 28.3912V27.0869M21.8694 17.9564H14.0434L4.91309 16.6521" stroke="#092F63" stroke-linecap="round" stroke-linejoin="round"/>
<path d="M15.9998 6.21746H22.5214L23.8258 8.17397L22.5214 10.1305L23.8258 12.087L22.5214 14.0435L23.1736 16L21.8693 17.9566M4.91299 10.1305L9.47814 8.82615L11.4346 4.91311L14.565 3.3479M4.91299 8.82615H1V17.9566H4.91299V8.82615Z" stroke="#092F63" stroke-linecap="round" stroke-linejoin="round"/>
<path d="M21.2177 17.9565L25.7828 21.8696V28.3913L17.9568 31L10.1309 28.3913V21.8696L14.0438 17.9565" stroke="#092F63" stroke-linejoin="round"/>
<path d="M13.3916 1L16.0003 6.21738H19.9132L22.5219 1H13.3916Z" stroke="#092F63" stroke-linecap="round" stroke-linejoin="round"/>
</svg>
