<svg width="15" height="19" viewBox="0 0 15 19" fill="none" xmlns="http://www.w3.org/2000/svg">
<path d="M6.923 16.125H8.423V15.125H9.673C9.88583 15.125 10.0641 15.0532 10.2078 14.9095C10.3512 14.766 10.423 14.5878 10.423 14.375V11.375C10.423 11.1622 10.3512 10.984 10.2078 10.8405C10.0641 10.6968 9.88583 10.625 9.673 10.625H6.423V9.125H10.423V7.625H8.423V6.625H6.923V7.625H5.673C5.46017 7.625 5.282 7.69683 5.1385 7.8405C4.99483 7.984 4.923 8.16217 4.923 8.375V11.375C4.923 11.5878 4.99483 11.766 5.1385 11.9095C5.282 12.0532 5.46017 12.125 5.673 12.125H8.923V13.625H4.923V15.125H6.923V16.125ZM1.80775 19C1.30258 19 0.875 18.825 0.525 18.475C0.175 18.125 0 17.6974 0 17.1923V1.80775C0 1.30258 0.175 0.875 0.525 0.525C0.875 0.175 1.30258 0 1.80775 0H9.75L15 5.25V17.1923C15 17.6974 14.825 18.125 14.475 18.475C14.125 18.825 13.6974 19 13.1923 19H1.80775ZM9 5.3845V1.5H1.80775C1.73075 1.5 1.66025 1.53208 1.59625 1.59625C1.53208 1.66025 1.5 1.73075 1.5 1.80775V17.1923C1.5 17.2693 1.53208 17.3398 1.59625 17.4038C1.66025 17.4679 1.73075 17.5 1.80775 17.5H13.1923C13.2692 17.5 13.3398 17.4679 13.4038 17.4038C13.4679 17.3398 13.5 17.2693 13.5 17.1923V5.3845H9Z" fill="black"/>
</svg>
