<svg width="17" height="17" viewBox="0 0 17 17" fill="none" xmlns="http://www.w3.org/2000/svg">
<path d="M5.17239 12.6673C4.13246 12.668 3.12981 12.28 2.36115 11.5796C1.5925 10.8791 1.11334 9.91675 1.01769 8.88123C0.922029 7.84571 1.21678 6.81182 1.84411 5.98242C2.47144 5.15302 3.38606 4.58798 4.40852 4.39816C4.58811 3.44221 5.09612 2.57908 5.84471 1.95803C6.5933 1.33699 7.53539 0.99707 8.50805 0.99707C9.48072 0.99707 10.4228 1.33699 11.1714 1.95803C11.92 2.57908 12.428 3.44221 12.6076 4.39816C13.6266 4.59184 14.5369 5.15825 15.1609 5.98687C15.7849 6.81549 16.0777 7.84686 15.9823 8.87974C15.8869 9.91262 15.4101 10.8729 14.6449 11.5732C13.8797 12.2735 12.881 12.6636 11.8437 12.6673M6.0063 8.49769L8.50805 5.99594M8.50805 5.99594L11.0098 8.49769M8.50805 5.99594V16.0029" stroke="black" stroke-linecap="round" stroke-linejoin="round"/>
</svg>
