<svg width="186" height="198" viewBox="0 0 186 198" fill="none" xmlns="http://www.w3.org/2000/svg">
<path d="M59.4729 24.3547C58.2793 22.939 59.5111 20.5349 61.32 20.1017C63.1288 19.6686 65.0042 20.6774 66.2838 22.0173C67.5634 23.3571 68.4406 25.0232 69.6245 26.447C72.2444 29.5978 76.1634 31.3513 79.9854 32.8714C85.2612 34.9698 90.6397 36.8309 95.7805 39.2363C113.737 47.6381 128.362 62.8246 136 81" stroke="#7B597C" stroke-width="2" stroke-linecap="round" stroke-linejoin="round"/>
<path d="M60.2897 23.2277C59.0641 21.0927 61.9765 18.506 64.3624 19.0815C66.7482 19.6571 68.2624 21.9613 69.425 24.1317C70.5877 26.302 71.8042 28.6886 74.0341 29.717C76.4644 30.8379 79.4512 30.0117 81.8793 31.1375C83.7687 32.0135 84.9598 33.8982 86.5408 35.2574C91.6042 39.6105 99.638 37.96 105.35 41.4098C107.366 42.6274 108.969 44.4132 110.54 46.1721L129.272 67.1457C130.845 68.9074 132.44 70.7016 133.451 72.8397C134.428 74.9078 134.814 77.2088 135.687 79.3234C136.893 82.2479 138.979 84.7044 141.034 87.1042C145.816 92.6867 150.649 98.2825 156.325 102.943C160.231 106.149 164.496 108.879 168.75 111.601L185 122" stroke="#7B597C" stroke-width="2" stroke-linecap="round" stroke-linejoin="round"/>
<path d="M10.658 35C7.76787 35.9834 5.91827 38.9899 6.00278 41.92C6.0873 44.8502 7.88731 47.5902 10.3676 49.3153C12.8479 51.0405 15.9371 51.8316 19 52" stroke="#7B597C" stroke-width="2" stroke-linecap="round" stroke-linejoin="round"/>
<path d="M28.5497 83C24.9202 80.5686 22.2676 76.6629 21.3101 72.3401C20.8928 70.4563 20.8048 68.4039 21.6302 66.666C22.4556 64.9281 24.3944 63.6428 26.235 64.0893C28.4293 64.6215 29.4857 67.1243 30.1307 69.3307C30.818 71.6817 31.4062 74.227 30.6358 76.5509" stroke="#7B597C" stroke-width="2" stroke-linecap="round" stroke-linejoin="round"/>
<path d="M34.8954 104L26.9185 98.4893C26.2892 98.0545 25.6331 97.5894 25.294 96.8942C24.959 96.2073 24.9851 95.4019 25.0188 94.6351L25.2843 88.5842C25.3141 87.9034 25.3466 87.2093 25.5827 86.572C26.0879 85.2082 27.4202 84.3613 28.7399 83.8098C31.537 82.6408 34.5997 82.3561 37.6101 82.0902C39.8142 81.8955 42.4045 81.8629 43.7854 83.6313C44.5725 84.6392 44.7463 85.9967 44.8658 87.281C45.1135 89.9423 45.1807 92.8767 43.5842 94.993C42.3267 96.6598 40.2447 97.4807 38.2012 97.73C36.9838 97.8785 35.4851 98.0283 35.0104 99.1849" stroke="#7B597C" stroke-width="2" stroke-linecap="round" stroke-linejoin="round"/>
<path d="M42.8124 116.248C48.5946 114.413 52.6403 108.018 51.9162 101.857C51.778 100.681 51.4727 99.4935 50.7864 98.5414C50.1 97.5893 48.9769 96.9095 47.8263 97.0098C47.1541 97.0684 46.5306 97.3782 45.9248 97.6828C43.1411 99.0825 40.3338 100.497 37.8996 102.466C37.065 103.141 36.2632 103.898 35.7549 104.856C34.951 106.369 34.9738 108.184 35.0171 109.907C35.0514 111.277 35.0858 112.648 35.179 114.016C35.3108 115.95 35.5849 117.948 36.6056 119.579C37.6263 121.211 39.5788 122.373 41.4096 121.889" stroke="#7B597C" stroke-width="2" stroke-linecap="round" stroke-linejoin="round"/>
<path d="M41 121C60.2062 125.349 79.179 130.749 97.8075 137.167C100.917 138.239 104.09 139.352 107.376 139.35C109.577 139.348 111.76 138.843 113.96 138.911C119.635 139.084 124.469 142.947 128.712 146.757C147.069 163.241 163.194 182.326 183 197" stroke="#7B597C" stroke-width="2" stroke-linecap="round" stroke-linejoin="round"/>
<path d="M73 48L78.6183 49.6135C79.3174 49.8142 80.0406 50.0278 80.5884 50.5005C81.0428 50.8928 81.3372 51.4306 81.7218 51.8898C82.5195 52.8423 83.6707 53.4216 84.7181 54.0996C88.7805 56.729 91.5355 61.2314 92 66" stroke="#7B597C" stroke-width="2" stroke-linecap="round" stroke-linejoin="round"/>
<path d="M84 53.9613C80.8874 54.1772 77.7131 53.4854 75 52" stroke="#7B597C" stroke-width="2" stroke-linecap="round" stroke-linejoin="round"/>
<path d="M82 51C82.2605 50.2632 82.9613 49.5624 84 49" stroke="#7B597C" stroke-width="2" stroke-linecap="round" stroke-linejoin="round"/>
<path d="M77 49C77 47.6242 77 46.2325 77 45" stroke="#7B597C" stroke-width="2" stroke-linecap="round" stroke-linejoin="round"/>
<path d="M74.4431 49C73.9637 45.9508 73.5583 42.4362 75 40" stroke="#7B597C" stroke-width="2" stroke-linecap="round" stroke-linejoin="round"/>
<path d="M39 84C37.8565 86.4145 37.682 89.4272 38.5368 92" stroke="#7B597C" stroke-width="2" stroke-linecap="round" stroke-linejoin="round"/>
<path d="M39 84C37.2544 84.0902 35.5532 84.8507 34.3344 86.0858C33.6604 86.7687 33.1195 87.6247 33.0152 88.5719C32.7809 90.6992 35.3065 92.6021 37.3275 91.8211" stroke="#7B597C" stroke-width="2" stroke-linecap="round" stroke-linejoin="round"/>
<path d="M48.0954 98.7202C48.3015 100.934 49.3517 103.065 51 104.614C50.1922 105.714 49.2439 106.759 48.0184 107.405C46.7929 108.05 45.245 108.24 44.0018 107.627C42.0577 106.669 41.5286 104.025 42.4191 102.099C43.3097 100.172 45.2363 98.8812 47.219 98" stroke="#7B597C" stroke-width="2" stroke-linecap="round" stroke-linejoin="round"/>
<path d="M132 74C133.787 78.9734 134.401 84.6045 133.743 90" stroke="#7B597C" stroke-width="2" stroke-linecap="round" stroke-linejoin="round"/>
<path d="M111 134C116.042 133.196 120.604 130.155 123 126" stroke="#7B597C" stroke-width="2" stroke-linecap="round" stroke-linejoin="round"/>
<path d="M14 25C27.5669 51.9439 42.2293 79.6955 57 106" stroke="#7B597C" stroke-width="2" stroke-linecap="round" stroke-linejoin="round"/>
<path d="M57 106C69.267 102.828 81.3063 98.8145 93 94" stroke="#7B597C" stroke-width="2" stroke-linecap="round" stroke-linejoin="round"/>
<path d="M51 15C65.4753 40.3421 80.263 67.2636 94 93" stroke="#7B597C" stroke-width="2" stroke-linecap="round" stroke-linejoin="round"/>
<path d="M15 25C26.6458 22.0519 39.3339 17.8548 51 15" stroke="#7B597C" stroke-width="2" stroke-linecap="round" stroke-linejoin="round"/>
<path d="M28.566 12.541C26.9857 12.7572 26.4764 15.1535 27.6201 16.2624C28.7639 17.3713 30.7635 17.1523 31.9786 16.1218C32.5546 15.6334 33.0165 14.9395 32.9996 14.1857C32.9749 13.0889 31.9225 12.2329 30.8378 12.0515C29.753 11.8701 28.6539 12.1998 27.6105 12.5467" stroke="#7B597C" stroke-width="2" stroke-linecap="round" stroke-linejoin="round"/>
<path d="M36.0581 12C35.3075 12.1462 34.825 12.771 35.0598 13.2929C35.2947 13.8147 36.2008 14.1311 36.9346 13.9474L37 12.322" stroke="#7B597C" stroke-width="2" stroke-linecap="round" stroke-linejoin="round"/>
<path d="M21.8806 16C21.4061 16.243 21.0585 16.7906 21 17.3875C21.3798 18.2552 22.6914 18.1846 23 17.2799C22.9029 16.8758 22.6022 16.5469 22.2483 16.4576" stroke="#7B597C" stroke-width="2" stroke-linecap="round" stroke-linejoin="round"/>
<path d="M77.9347 104C76.2809 104.235 74.9554 105.619 75.0011 107.063C75.0469 108.508 76.458 109.828 78.1242 109.984C79.7903 110.141 81.4982 109.114 81.9038 107.712C82.1621 106.82 81.8979 105.805 81.1388 105.158C80.3797 104.512 79.1259 104.306 78.1905 104.749" stroke="#7B597C" stroke-width="2" stroke-linecap="round" stroke-linejoin="round"/>
<path d="M69.1595 108C67.6527 108.888 66.2587 109.871 65 110.935C67.0038 111.08 69.0423 110.982 71 110.646L69.7401 108.512" stroke="#7B597C" stroke-width="2" stroke-linecap="round" stroke-linejoin="round"/>
<path d="M86 102L92 100" stroke="#7B597C" stroke-width="2" stroke-linecap="round" stroke-linejoin="round"/>
<path d="M88 104C89.413 103.798 90.7931 103.108 92 102" stroke="#7B597C" stroke-width="2" stroke-linecap="round" stroke-linejoin="round"/>
<path d="M88 106C89.3971 105.867 90.7617 105.526 92 105" stroke="#7B597C" stroke-width="2" stroke-linecap="round" stroke-linejoin="round"/>
<path d="M38.8424 80.7145L6.97351 21.0444C5.81861 18.882 5.03917 16.5512 5.00044 14.1014C4.95233 11.0579 8.8424 9.12298 13.3799 8.17562C21.7768 6.42244 31.0585 3.92754 39.4554 2.17436C40.2879 2.00056 45.74 -0.376635 48.294 2.17093C49.7387 3.61206 58.9467 21.2948 63.6515 31.9631C74.367 56.2602 90.6477 77.8212 101.114 102.226C101.897 104.053 102.577 106.375 101.243 107.851C100.695 108.458 99.9053 108.778 99.1425 109.075C89.3005 112.9 79.1845 116.024 68.8972 118.415C67.1794 118.814 65.4024 119.194 63.6653 118.889C60.6949 118.368 58.4219 115.949 56.8369 113.389C55.252 110.829 54.1039 107.98 52.1625 105.678" stroke="#7B597C" stroke-width="2" stroke-linecap="round" stroke-linejoin="round"/>
<path d="M45 92L48 96" stroke="#7B597C" stroke-width="2" stroke-linecap="round" stroke-linejoin="round"/>
<path d="M52 109.144C53.2161 111.971 54.6498 114.701 56.2838 117.303C57.531 119.289 58.991 121.283 61.1033 122.268C63.4817 123.376 66.2477 123.011 68.8299 122.571C77.4346 121.104 85.9426 119.057 94.2786 116.447C96.7084 115.687 99.2176 114.822 101.025 113.011C102.833 111.201 103.7 108.163 102.322 106" stroke="#7B597C" stroke-width="2" stroke-linecap="round" stroke-linejoin="round"/>
<path d="M10.6693 9C7.74193 10.457 1.40245 11.836 1.02841 15.0155C0.753131 17.3555 2.53949 20.4341 3.74763 22.4747C12.1525 36.6713 20.0659 49.0776 27 63" stroke="#7B597C" stroke-width="2" stroke-linecap="round" stroke-linejoin="round"/>
<path d="M33 74L37 81" stroke="#7B597C" stroke-width="2" stroke-linecap="round" stroke-linejoin="round"/>
<path d="M126 137C127.193 136.519 127.804 135.267 128.254 134.105C130.121 129.287 131.055 124.139 130.997 119" stroke="#7B597C" stroke-width="2" stroke-linecap="round" stroke-linejoin="round"/>
<path d="M114 100.949C116.422 101.201 118.903 100.51 121 99" stroke="#7B597C" stroke-width="2" stroke-linecap="round" stroke-linejoin="round"/>
<path d="M102.431 89.0044C102.101 88.9463 101.898 89.4759 102.053 89.808C102.208 90.1401 102.549 90.2946 102.863 90.4231C106.117 91.7571 109.397 93.0987 112.82 93.6932C116.243 94.2877 119.86 94.0921 123 92.4481" stroke="#7B597C" stroke-width="2" stroke-linecap="round" stroke-linejoin="round"/>
<path d="M101 47C101 49.3051 101 51.6848 101 54" stroke="#7B597C" stroke-width="2" stroke-linecap="round" stroke-linejoin="round"/>
<path d="M103.709 51C104.269 52.3279 104.014 53.7639 103 55" stroke="#7B597C" stroke-width="2" stroke-linecap="round" stroke-linejoin="round"/>
<path d="M89 66C88.15 66.9215 87.8278 67.9811 88.0876 69" stroke="#7B597C" stroke-width="2" stroke-linecap="round" stroke-linejoin="round"/>
<path d="M49.9069 112C50.177 114.72 49.8547 117.563 49 120" stroke="#7B597C" stroke-width="2" stroke-linecap="round" stroke-linejoin="round"/>
<path d="M51 116C51.8976 117.581 52.2001 119.319 51.8703 121" stroke="#7B597C" stroke-width="2" stroke-linecap="round" stroke-linejoin="round"/>
<path d="M105 116L107 120" stroke="#7B597C" stroke-width="2" stroke-linecap="round" stroke-linejoin="round"/>
<path d="M105 104C107.899 105.343 110.36 107.452 112 110" stroke="#7B597C" stroke-width="2" stroke-linecap="round" stroke-linejoin="round"/>
<path opacity="0.4" d="M110.511 99.1258C108.854 98.3508 107.287 97.4172 105.832 96.3056C105.798 96.2794 105.716 96.2152 105.69 96.1943C105.61 96.1312 105.531 96.0676 105.453 96.0035C105.262 95.8479 105.073 95.6896 104.886 95.5287C104.546 95.235 104.213 94.9324 103.888 94.6218C103.223 93.9875 102.589 93.3211 101.984 92.6295C101.684 92.2867 101.391 91.9378 101.105 91.5834C100.966 91.4112 100.829 91.2377 100.693 91.063C100.686 91.0531 100.652 91.0095 100.63 90.9815C100.609 90.9536 100.58 90.9161 100.574 90.9071C100.493 90.8008 100.413 90.6941 100.333 90.5869C99.814 89.8882 99.3197 89.171 98.8439 88.4418C97.8779 86.4674 96.757 84.5695 95.5795 82.7052C94.8425 81.2357 94.151 79.7431 93.4907 78.2374C93.2967 77.795 93.1052 77.3514 92.9158 76.907C92.8274 76.6996 92.7394 76.4919 92.6519 76.2842L92.6089 76.1819L92.5879 76.1319C92.536 76.0076 92.484 75.8834 92.4323 75.759C91.996 74.7109 91.562 73.6611 91.1741 72.5938C90.3845 70.4214 89.804 68.2389 89.9243 65.9468C89.9788 64.9099 90.1547 63.8624 90.2658 62.8165C90.555 63.5167 90.8274 64.2227 91.0901 64.9271C91.2146 65.2611 91.5032 65.4974 91.8742 65.4413C92.2033 65.3916 92.5192 65.0979 92.4939 64.7362C92.2675 61.4903 91.4448 58.3264 90.0963 55.3698C88.7684 52.4583 86.9127 49.7752 84.6519 47.5163C82.2938 45.1602 79.4685 43.4367 76.658 41.693C76.6236 41.5665 76.5901 41.4394 76.5617 41.3031C76.4473 40.7532 76.4307 39.9971 76.529 39.4492C76.6536 38.7558 75.9841 38.3981 75.511 38.644C75.2192 38.5104 74.8318 38.5794 74.6184 38.8995C74.5265 39.0373 74.4211 39.1558 74.2498 39.3097C74.2399 39.3187 74.211 39.3433 74.2036 39.3504C74.1708 39.3752 74.1368 39.3991 74.1028 39.4221C74.0129 39.4827 73.9195 39.538 73.8236 39.5885C73.752 39.6261 73.6713 39.6614 73.5856 39.6933C72.9847 39.2734 72.3926 38.8408 71.8197 38.3807C70.5391 37.3521 69.341 36.2211 68.2369 35.0035C67.728 34.4421 67.2419 33.8609 66.7758 33.2641C66.4982 32.6656 66.2234 32.0657 65.95 31.4661C65.8154 31.1708 65.527 31.0874 65.255 31.1414C64.8083 30.4578 64.3871 29.7573 63.9945 29.0409C63.9005 28.8696 63.8082 28.6975 63.7175 28.5245C63.6222 28.3425 63.5434 28.0928 63.3977 27.9465C63.4029 27.9517 63.3441 27.9022 63.3146 27.8801C63.2972 27.8572 63.2712 27.8251 63.2714 27.8255C63.2165 27.7448 63.1605 27.6649 63.1055 27.5842C62.9868 27.4098 62.8698 27.2342 62.7546 27.0574C62.534 26.719 62.3207 26.3761 62.113 26.0296C62.0768 25.9692 61.9865 26.0094 62.0017 26.0768C62.172 26.8317 62.3691 27.5797 62.5933 28.3202V28.3074C62.6283 28.6387 62.8281 28.937 62.983 29.2386C63.1617 29.5864 63.3468 29.9308 63.5383 30.2716C63.921 30.953 64.3289 31.6202 64.7607 32.2712C64.7765 32.2952 64.7936 32.3183 64.8096 32.3422C66.3264 36.3949 68.1723 40.3333 70.4298 44.0234C71.0232 45.1642 71.8047 46.2046 72.7581 47.0923C72.8705 47.2823 73.061 47.4277 73.294 47.489C73.7 47.596 74.0794 47.2595 74.1237 46.893C77.2942 49.6236 81.1362 51.5178 84.3189 54.2164C82.6821 53.8184 80.9574 53.79 79.2865 53.9738C78.8567 54.0211 78.4323 54.0956 78.008 54.1751C77.9905 54.1625 77.9724 54.1509 77.955 54.1382C77.6414 53.9092 77.1388 54.0182 76.8806 54.2775C76.5908 54.5687 76.5639 55.0009 76.742 55.3568C78.583 59.037 80.3491 62.7566 82.1694 66.4474C83.9983 70.1558 85.8289 73.8634 87.6561 77.5726C89.3184 80.9473 90.9488 84.3502 92.9203 87.5575C94.7933 90.6045 96.9912 93.4945 99.7049 95.8364C102.265 98.0463 105.234 99.849 108.521 100.708C108.922 100.813 109.327 100.901 109.734 100.977C110.233 101.07 110.718 100.88 110.923 100.391C111.103 99.9633 110.967 99.3391 110.511 99.1258ZM70.7598 39.0601C70.4515 38.702 70.0148 38.8148 69.7688 39.1037C69.3694 38.4266 68.9895 37.7384 68.6239 37.0424C69.5547 37.9839 70.543 38.8538 71.5761 39.6698C71.275 39.5377 71.001 39.3402 70.7598 39.0601ZM72.3092 41.2476C72.3455 41.2497 72.3815 41.2544 72.4179 41.2555C72.4613 41.3778 72.5012 41.501 72.5382 41.625C72.463 41.4986 72.3876 41.3722 72.3092 41.2476ZM74.7782 41.9563C74.877 42.0205 74.9741 42.0866 75.0735 42.1502C75.0244 42.2421 74.9997 42.3497 75.0106 42.4691C74.8784 42.3856 74.7469 42.3012 74.6139 42.2191C74.5963 42.192 74.5788 42.165 74.5612 42.1378C74.6357 42.0798 74.7067 42.0178 74.7782 41.9563ZM75.0248 45.6946C74.6762 45.3821 74.3403 45.0575 74.0123 44.7254C74.0499 44.422 74.0743 44.1181 74.0811 43.8143C74.5009 44.4723 74.9228 45.129 75.3482 45.7834C75.2421 45.7531 75.1341 45.7228 75.0248 45.6946ZM79.8717 45.3839C79.6788 45.2928 79.4896 45.1941 79.3062 45.084C79.248 44.9698 79.1898 44.8555 79.134 44.7403C79.3828 44.9065 79.6301 45.0747 79.8755 45.2455C79.8701 45.2814 79.868 45.3186 79.8703 45.3574C79.8709 45.3662 79.8712 45.3751 79.8717 45.3839ZM82.3339 50.9249C81.6129 50.4249 80.8798 49.9407 80.1471 49.4557C80.2862 49.4851 80.4248 49.5166 80.5646 49.5434C81.4804 50.127 82.3445 50.7842 83.1537 51.5057C82.8826 51.3095 82.6092 51.1158 82.3339 50.9249ZM83.3602 60.1429C83.253 59.8912 83.1457 59.6395 83.0387 59.3876L83.0371 59.3725C83.1714 59.5263 83.3018 59.6831 83.4299 59.8418C83.4072 59.9423 83.3838 60.0426 83.3602 60.1429ZM83.5665 65.0423C83.5903 64.9791 83.6118 64.9151 83.6352 64.8517C83.8242 65.3074 84.0142 65.7627 84.2043 66.2179C84.1814 66.2417 84.1614 66.2665 84.1425 66.2917C83.9443 65.8897 83.7439 65.4889 83.5456 65.087C83.5522 65.0716 83.5605 65.0584 83.5665 65.0423ZM88.494 55.1592C89.0353 56.2567 89.4929 57.3966 89.8721 58.5626C89.6078 57.9189 89.2392 57.3316 88.7918 56.81C88.8348 56.6586 88.8273 56.4882 88.7335 56.3115C88.4549 55.7861 88.1646 55.2759 87.856 54.779C87.8381 54.4177 87.7888 54.0076 87.6705 53.6311C87.9597 54.1321 88.2378 54.6397 88.494 55.1592ZM87.6008 58.1544L87.6118 58.168C87.6279 58.1898 87.6441 58.2116 87.6599 58.2336C87.7271 58.3274 87.7914 58.4231 87.8526 58.5209C87.9756 58.7173 88.0842 58.9214 88.1814 59.1319L88.19 59.1507C88.2073 59.1941 88.2244 59.2378 88.2404 59.2817C88.2899 59.4181 88.3339 59.5566 88.3725 59.6966C88.4059 59.8178 88.4348 59.9403 88.4601 60.0635C88.4745 60.1337 88.4876 60.204 88.4995 60.2746C88.5023 60.2911 88.5172 60.4019 88.5211 60.4269C88.5347 60.5454 88.5434 60.6644 88.5506 60.7834C88.4673 60.7309 88.3723 60.6934 88.2641 60.6805C88.1995 60.6728 88.1332 60.6766 88.0675 60.686C87.8686 60.5591 87.5926 60.5547 87.3676 60.6551C87.241 60.4365 87.0308 60.2843 86.7382 60.2843C86.6894 60.2843 86.6431 60.2902 86.5981 60.2985C86.5213 59.6911 86.4458 59.0835 86.3684 58.4761C86.5624 58.465 86.7562 58.4511 86.9495 58.4315C87.1886 58.4073 87.4242 58.3102 87.6008 58.1544ZM84.167 55.9645C84.1558 56.0174 84.1444 56.0702 84.1336 56.1231C83.7154 56.0177 83.3016 55.8962 82.8932 55.7571C82.7709 55.7154 82.6397 55.6753 82.507 55.6351C83.0668 55.7001 83.6202 55.8061 84.167 55.9645ZM89.7982 77.7701C89.6451 77.4597 89.4923 77.149 89.3393 76.8385C89.7081 77.3643 90.0827 77.8857 90.4474 78.4151C90.4879 78.4738 90.5366 78.5243 90.5885 78.57C91.8416 81.3747 93.1728 84.1542 94.6521 86.8458C92.8386 83.9318 91.3154 80.847 89.7982 77.7701ZM100.529 94.0845C100.556 94.0583 100.581 94.0296 100.605 94.0004C100.808 94.2355 101.013 94.4685 101.223 94.6979C100.987 94.4981 100.758 94.2915 100.529 94.0845Z" fill="#FFC4AF"/>
<path opacity="0.4" d="M101.436 47.4874C101.319 47.176 101.048 46.9554 100.699 47.0077C100.396 47.053 100.082 47.3294 100.116 47.6654C100.247 48.9924 100.444 50.3018 100.4 51.6405C100.38 52.2638 100.324 52.886 100.221 53.5013C100.105 54.1953 99.8514 54.9455 100.117 55.6167C100.223 55.8839 100.573 56.1342 100.861 55.9181C101.031 55.7911 101.184 55.7036 101.305 55.5213C101.411 55.3623 101.48 55.1796 101.539 54.9986C101.645 54.6714 101.717 54.3234 101.774 53.9843C101.897 53.2466 101.971 52.4977 101.992 51.7502C102.031 50.3319 101.941 48.8239 101.436 47.4874Z" fill="#FFC4AF"/>
<path opacity="0.4" d="M185.596 122.069C181.722 119.816 177.9 117.474 174.136 115.045C170.388 112.626 166.697 110.122 163.067 107.535C159.554 105.032 156.086 102.461 152.707 99.7844C149.576 97.3055 146.531 94.7107 143.734 91.8693C140.965 89.0569 138.469 86.0257 136.438 82.6552C136.187 82.2396 135.945 81.8194 135.709 81.3952C135.538 81.0852 135.129 80.9348 134.789 81.0267C134.418 81.1269 134.229 81.4449 134.19 81.7999C133.857 84.8687 133.966 87.9636 134.485 91.0067C134.558 91.4412 135.104 91.684 135.504 91.576L135.506 91.5753C135.812 91.9524 136.116 92.3307 136.442 92.6914C137.132 93.4544 137.843 94.1978 138.574 94.9227C140.009 96.347 141.518 97.6985 143.08 98.9881C146.284 101.634 149.701 104.022 153.191 106.288C154.936 107.421 156.677 108.56 158.447 109.655C160.222 110.754 162.005 111.842 163.781 112.939C167.327 115.129 170.856 117.354 174.259 119.755C175.969 120.962 177.534 122.197 179.187 123.457C180.14 124.184 181.173 124.833 182.396 124.975C183.385 125.09 184.418 124.8 185.175 124.163C185.552 123.845 185.808 123.422 185.966 122.964C186.081 122.633 185.89 122.24 185.596 122.069Z" fill="#FFC4AF"/>
<path opacity="0.4" d="M184.474 185.378C183.483 181.747 181.162 178.68 178.479 176.114C175.537 173.302 172.182 170.912 168.936 168.472C165.354 165.781 161.752 163.119 158.156 160.447C154.562 157.776 150.97 155.103 147.348 152.469C143.84 149.919 140.228 147.487 136.868 144.739C133.65 142.108 130.664 139.168 128.025 135.95C127.44 135.237 126.885 134.446 126.726 133.517C126.546 132.468 126.793 131.384 126.984 130.355C127.399 128.115 127.814 125.874 128.218 123.632C128.413 122.549 128.659 121.462 128.779 120.368C128.879 119.459 128.764 118.499 128.143 117.787C127.617 117.183 126.758 116.83 125.973 117.083C125.457 117.249 125.416 117.65 125.304 118.117C125.191 118.587 125.066 119.055 124.927 119.519C124.39 121.322 123.673 123.066 122.778 124.721C122.346 125.519 121.87 126.292 121.371 127.05C120.837 127.861 120.199 128.585 119.639 129.373C119.263 129.901 118.861 130.406 118.439 130.896C118.263 130.81 118.057 130.776 117.836 130.821C112.927 131.822 108.018 132.825 103.109 133.83C102.015 133.762 100.923 133.686 99.835 133.591C96.6392 133.313 93.4558 132.835 90.3673 131.949C87.4011 131.099 84.5598 129.878 81.6768 128.79C78.5061 127.594 75.2586 126.576 71.8538 126.386C70.7927 126.327 70.7286 127.809 71.6173 128.137C76.4293 129.913 81.2643 131.627 86.0895 133.366C90.8177 135.07 95.5267 136.847 100.283 138.472C102.568 139.252 104.887 139.781 107.314 139.703C109.595 139.63 111.847 139.19 114.127 139.11C116.311 139.033 118.382 139.393 120.214 140.642C121.893 141.786 123.209 143.399 124.582 144.876C130.283 151.014 137.629 155.174 144.34 160.059C147.711 162.514 150.921 165.202 153.645 168.377C156.606 171.829 159.11 175.665 162.483 178.751C165.327 181.353 168.541 183.5 171.669 185.737C174.73 187.926 177.908 190.27 180.201 193.3C180.752 194.028 181.244 194.806 181.695 195.6C182.023 196.178 182.773 196.088 183.12 195.6C185.203 192.67 185.395 188.758 184.474 185.378ZM113.727 133.483C112.876 133.781 112.008 133.944 111.125 134.017C111.992 133.839 112.859 133.661 113.727 133.483Z" fill="#FFC4AF"/>
<path opacity="0.4" d="M34.9106 81.1445C34.5878 80.5151 34.265 79.8858 33.9422 79.2565C33.599 78.3274 33.1494 77.4422 32.597 76.6342C32.3894 76.3305 32.0259 76.1821 31.6986 76.3848C31.5541 76.4743 31.4594 76.6129 31.413 76.7678C31.3619 76.6702 31.3124 76.5716 31.2596 76.475C30.8429 75.712 29.7769 76.3725 30.1282 77.1466C30.073 77.1474 30.0167 77.1532 29.9582 77.1702C29.8526 77.2009 29.7614 77.2604 29.685 77.3358C29.5674 77.3331 29.4503 77.3402 29.3345 77.3566C30.261 74.6074 30.2536 71.48 29.2518 68.7724C28.8619 67.7187 28.3551 66.8133 27.5308 66.0782C27.2909 65.8642 26.9966 66.1264 27.1138 66.4189C27.5563 67.5233 28.0537 68.6361 28.3683 69.7907C28.6764 70.9217 28.8255 72.0804 28.8023 73.2578C28.7788 74.4589 28.5738 75.6458 28.1914 76.7774C28.0102 77.3137 27.7831 77.8292 27.5175 78.3245C27.3818 78.5775 27.2133 78.8126 27.0803 79.0659C26.8713 79.4644 27.1157 79.9061 27.2967 80.2656C27.5398 80.7483 27.8511 81.1849 28.2136 81.5659C28.2691 81.981 28.643 82.3001 29.0152 82.2593C29.4476 82.5649 29.9219 82.8055 30.4218 82.9693C30.8633 83.1139 31.2671 82.7252 31.2862 82.2722C31.2948 82.069 31.2973 81.8657 31.2972 81.6624C31.3139 81.6612 31.3306 81.6593 31.3472 81.6586C31.4392 81.6544 31.5313 81.6538 31.6234 81.6535C31.7233 81.7677 31.8251 81.8802 31.9307 81.9896C32.2853 82.3574 32.7846 82.1915 32.9858 81.8159C33.0416 81.8247 33.0973 81.8338 33.153 81.8426C33.2536 81.9641 33.3537 82.086 33.4571 82.2051C33.6515 82.4291 34.0058 82.4629 34.2479 82.3131C34.3107 82.2741 34.3626 82.2266 34.4057 82.1733C34.8155 82.1112 35.1724 81.6548 34.9106 81.1445Z" fill="#FFC4AF"/>
<path opacity="0.4" d="M43.8649 91.5493C43.6711 90.8255 42.5354 90.8084 42.3506 91.5493C42.3164 91.6863 42.2763 91.8126 42.2291 91.9315C42.0156 92.2678 41.7802 92.5857 41.5261 92.8902C41.4972 92.9154 41.4688 92.9411 41.4393 92.9658L41.401 92.9964C41.4079 92.9905 41.3993 92.9961 41.3713 93.0162C41.2464 93.1005 41.1187 93.1794 40.9845 93.2487C40.9738 93.2542 40.8922 93.2934 40.8578 93.3107C40.8234 93.3235 40.7366 93.3579 40.7246 93.3619C40.5691 93.4149 40.4088 93.4583 40.2491 93.4974C39.8252 93.6013 39.5703 94.0664 39.6841 94.4719C39.701 94.5322 39.7245 94.5867 39.7521 94.6373C39.6557 94.7138 39.5877 94.7661 39.5045 94.8261C38.2936 95.6983 37.0717 96.2072 35.5866 96.437C35.195 96.4976 34.9537 96.9555 35.0075 97.3057C35.0678 97.6985 35.3904 97.9807 35.8016 97.9922C37.8301 98.049 40.0958 97.8154 41.7698 96.5843C43.3428 95.4274 44.3852 93.4934 43.8649 91.5493Z" fill="#FFC4AF"/>
<path opacity="0.4" d="M48.9871 107.133C48.6664 107.39 48.4248 107.748 48.1701 108.055C47.9264 108.349 47.6733 108.648 47.4404 108.894C46.8994 109.465 46.3183 110.004 45.6724 110.487C45.0532 110.951 44.4001 111.345 43.6392 111.714C42.8653 112.09 42.2365 112.315 41.4221 112.55C40.8406 112.717 40.2764 112.977 40.0701 113.513C39.8781 114.011 40.0815 114.667 40.6682 114.898C40.9374 115.004 41.2793 115.061 41.5437 114.898C42.1467 114.526 42.7622 114.169 43.3914 113.831C43.6894 113.671 43.9902 113.515 44.2938 113.363C44.6607 113.179 44.9902 112.98 45.3236 112.753C45.4631 112.658 45.5331 112.538 45.5537 112.412C46.7927 111.662 47.9023 110.75 48.7913 109.691C49.3243 109.056 49.9016 108.29 49.9969 107.494C50.053 107.026 49.3297 106.857 48.9871 107.133Z" fill="#FFC4AF"/>
<path opacity="0.4" d="M62.5274 123.892C62.5027 123.878 62.298 123.739 62.3054 123.752C62.2314 123.691 62.1614 123.623 62.0946 123.554C62.075 123.534 61.9552 123.391 61.9456 123.387C61.8828 123.297 61.8267 123.202 61.7738 123.105C61.5705 122.736 61.0733 122.514 60.6699 122.647C60.4547 122.718 60.2427 122.876 60.1042 123.078C60.0246 122.994 59.9473 122.908 59.8721 122.82C59.5113 122.397 58.8641 122.483 58.4916 122.82C58.4436 122.864 58.3956 122.907 58.3476 122.951C56.4236 120.142 54.6965 117.177 53.257 114.083C52.8112 113.124 52.3639 112.128 52.01 111.206C51.8342 110.748 51.3827 110.379 50.8732 110.547C50.3921 110.706 50.0959 111.196 50.2276 111.708C50.7328 113.668 51.2687 115.62 51.9636 117.521C52.6635 119.435 53.5003 121.338 54.6595 123.013C54.671 123.029 54.6836 123.045 54.6951 123.062C50.6827 121.887 46.7 120.593 42.7738 119.155C42.1443 118.924 41.5157 118.691 40.8891 118.453C40.3125 118.233 39.9736 118.114 39.4539 117.798C39.1124 117.59 38.9091 117.189 38.783 116.769C38.6054 116.176 38.5037 115.557 38.3826 114.951C38.1231 113.652 37.8888 112.366 37.7962 111.053C37.7481 110.372 37.7372 109.688 37.7749 109.006C37.8114 108.344 37.842 108.044 37.9742 107.423C38.0891 106.883 38.2798 106.248 38.4598 105.806C38.637 105.37 38.9477 104.785 39.2492 104.335C39.4131 104.09 39.5478 103.913 39.7025 103.711C39.8148 103.565 40.036 103.31 40.2064 103.134C40.5983 102.731 40.9863 102.368 41.47 102.082C42.0079 101.765 41.6527 100.813 41.0363 101.032C39.9782 101.409 38.9802 101.992 38.2522 102.879C37.5179 103.773 36.9827 104.816 36.6063 105.915C35.7099 108.531 35.9516 111.36 36.4105 114.039C36.5302 114.737 36.6673 115.432 36.8066 116.127C36.9365 116.776 37.0735 117.406 37.3499 118.009C37.9526 119.325 39.2845 119.782 40.5179 120.266C43.1247 121.287 45.7527 122.255 48.3971 123.171C51.3663 124.199 54.3731 125.114 57.3956 125.964C57.932 126.115 58.4162 125.769 58.5978 125.312C58.6921 125.267 58.7849 125.211 58.8727 125.132C58.9699 125.044 59.0672 124.956 59.1644 124.869C59.5125 125.121 59.9109 125.286 60.3518 125.247C60.5289 125.232 60.7071 125.187 60.8771 125.118C61.0813 125.304 61.3045 125.469 61.5449 125.608C61.9881 125.864 62.6288 125.73 62.8766 125.251C63.1229 124.776 62.9974 124.172 62.5274 123.892Z" fill="#FFC4AF"/>
<path opacity="0.4" d="M17.5713 48.8285C17.5307 48.5183 17.383 48.2294 17.2677 47.9453C17.0822 47.4883 16.8629 47.046 16.6584 46.5992C16.2408 45.6866 15.8072 44.7836 15.376 43.8789C14.5138 42.07 13.6516 40.2611 12.7894 38.4523C12.2991 37.4237 11.8099 36.3944 11.3227 35.3639C11.1689 35.0386 10.777 34.9163 10.4858 35.0587C10.1714 35.2125 10.0249 35.5661 10.0977 35.9387C10.1548 36.2307 10.217 36.5214 10.2825 36.811C10.0751 36.8803 9.91977 37.1374 10.0447 37.4345C10.2748 37.9815 10.4404 38.5577 10.69 39.0919C10.924 39.5931 11.1588 40.0934 11.3967 40.5921C11.8067 41.711 12.2823 42.7993 12.8154 43.8522C13.186 44.8098 13.5861 45.753 14.0155 46.6795C14.0509 47.5833 13.9672 48.4883 13.748 49.3541C13.5379 50.1839 14.6346 50.7258 15.0132 49.9477C15.0843 49.8015 15.1441 49.6525 15.1985 49.5024C15.46 50.0759 15.927 50.5367 16.4962 50.687C16.5135 50.6915 16.5325 50.6933 16.5508 50.6963C16.782 50.8641 17.049 50.9665 17.3439 50.9977C17.6842 51.0337 18.0169 50.6341 17.9993 50.2682C17.9732 49.724 17.8063 49.2575 17.5713 48.8285Z" fill="#FFC4AF"/>
<path opacity="0.4" d="M38.8697 81.4768C36.3887 76.8425 33.9088 72.2078 31.4163 67.5795C28.9349 62.972 26.4536 58.3643 23.9722 53.7568C21.48 49.129 18.9862 44.5021 16.4878 39.8776C14.0004 35.2736 11.5244 30.6633 9.02246 26.0671C7.87603 23.9611 6.73702 21.8516 5.55839 19.7633C5.42464 19.3325 5.29836 18.8993 5.17916 18.4641C4.75298 16.9081 4.40779 15.3069 4.21368 13.699C4.24222 13.5953 4.27268 13.4909 4.31129 13.3809C4.4142 13.0876 4.3056 12.8338 4.10964 12.6683C4.10729 12.638 4.10372 12.6077 4.10149 12.5774C4.04542 11.8161 2.916 11.799 2.8952 12.5774C2.89439 12.6078 2.89464 12.638 2.89391 12.6684C2.68622 12.8082 2.50711 12.9834 2.38524 13.2162C2.15818 13.6499 2.04798 14.1117 2.01142 14.5972C1.96202 15.2531 2.0777 15.9178 2.26559 16.5557C2.32918 17.1372 2.45334 17.7135 2.61295 18.2738C2.87517 19.1943 3.24951 20.0767 3.63641 20.9513C3.81972 21.3656 4.01431 21.7749 4.20324 22.1868C4.29379 22.3842 4.38337 22.582 4.47088 22.7807C4.4942 22.8336 4.54761 22.9565 4.56559 22.9981C4.57183 23.0134 4.60979 23.1045 4.60631 23.096C4.63365 23.1627 4.66101 23.2293 4.6878 23.2962C4.88107 23.7787 5.0763 24.2645 5.24456 24.7561C5.3256 24.9929 5.39952 25.2324 5.48359 25.4682C5.54801 25.6488 5.61788 25.8338 5.75477 25.9742C5.79707 26.0176 5.84602 26.0565 5.89499 26.0917C5.92511 26.1134 6.231 26.278 6.09658 26.2023C6.31189 26.3236 6.59944 26.2921 6.77527 26.1154C6.67374 26.1866 6.7076 26.1594 6.87683 26.0337C6.89094 26.0193 6.90215 26.0029 6.91507 25.9877C9.09864 30.1093 11.2919 34.2259 13.4848 38.3426C15.9997 43.0638 18.5162 47.7841 21.0374 52.502C23.5477 57.1993 26.058 61.8967 28.5682 66.5941C31.0893 71.3115 33.6181 76.0247 36.1509 80.736L37.1006 82.5027C37.3609 82.9867 38.038 83.1366 38.5022 82.8673C38.9966 82.5803 39.1301 81.9632 38.8697 81.4768Z" fill="#7B597C"/>
<path opacity="0.4" d="M99.7629 111.067C95.3794 112.517 90.9933 113.958 86.6082 115.403C84.4157 116.125 82.2232 116.848 80.0307 117.57C77.9037 118.271 75.7818 118.993 73.6346 119.629C73.1482 119.773 72.6598 119.91 72.1701 120.043C70.0606 120.413 67.9444 120.746 65.8213 121.035C64.3249 121.239 62.6911 121.571 61.2196 121.088C61.1388 121.061 61.0605 121.029 60.9835 120.995C61.3979 121.069 61.7533 121.073 62.1682 121.009C62.2275 120.999 62.2923 120.992 62.3509 120.976C62.3835 120.967 62.577 120.889 62.6344 120.866C62.8659 120.771 63.0668 120.673 63.2233 120.468C63.4109 120.222 63.523 119.967 63.4366 119.649C63.3623 119.376 63.1356 119.127 62.8573 119.062C62.8055 119.05 62.755 119.039 62.7026 119.03C62.5314 119.002 62.4207 119.024 62.2553 119.029C62.2796 119.025 62.0794 119.015 62.0426 119.016C61.9161 119.017 61.7936 119.012 61.6676 119.001C61.6205 118.997 61.5735 118.993 61.5264 118.989C61.5032 118.987 61.4862 118.986 61.4719 118.986C61.4587 118.982 61.443 118.978 61.4229 118.974C61.3138 118.949 61.2058 118.923 61.0986 118.89C61.0656 118.88 60.9221 118.827 60.8951 118.821C60.6602 118.715 60.4377 118.581 60.2285 118.431C60.2206 118.425 60.2177 118.423 60.2122 118.419C60.207 118.415 60.2045 118.412 60.197 118.406C60.1582 118.373 60.1194 118.341 60.0813 118.307C59.98 118.217 59.8823 118.123 59.7877 118.026C59.6069 117.84 59.4364 117.642 59.2781 117.436C59.2618 117.414 59.2358 117.378 59.23 117.37C59.1907 117.314 59.1501 117.259 59.1108 117.202C59.042 117.104 58.9748 117.004 58.9085 116.904C58.744 116.655 58.5851 116.402 58.426 116.149C57.1662 114.149 56.067 112.065 55.0213 109.943C54.4328 108.749 53.9175 107.508 53.2731 106.344C52.8797 105.634 51.8563 106.127 52.017 106.881C52.2792 108.112 52.756 109.304 53.2352 110.461C53.7376 111.675 54.2974 112.859 54.9015 114.024C55.4844 115.148 56.1044 116.252 56.7608 117.334C57.1594 117.991 57.589 118.632 58.0938 119.203C58.0989 120.244 58.6688 121.249 59.4809 121.896C60.7043 122.87 62.2902 123.06 63.8007 122.985C64.5785 122.947 65.3569 122.872 66.1341 122.783C66.268 122.901 66.441 122.98 66.6523 122.985C67.8043 123.013 68.9262 122.813 70.0524 122.579C71.1141 122.359 72.1663 122.093 73.2108 121.801C73.3155 121.783 73.4179 121.767 73.5233 121.75C76.7548 121.206 79.9694 120.558 83.1606 119.808C86.1651 119.102 89.1751 118.327 92.1048 117.344C95.2122 116.302 98.2239 114.915 100.71 112.716C101.441 112.07 100.667 110.768 99.7629 111.067Z" fill="#7B597C"/>
<path opacity="0.4" d="M91.8784 93.4878C88.6504 86.5604 85.4155 79.626 81.6647 72.9604C81.4242 72.533 81.1814 72.1068 80.9365 71.6818C79.8214 69.2273 78.6453 66.8034 77.2538 64.493C75.8414 62.1479 74.2018 59.9513 72.6901 57.671C72.0675 56.7318 71.4744 55.7744 70.9001 54.806C69.2567 50.955 67.4108 47.1934 65.3601 43.5263C64.4146 41.8357 63.4301 40.1678 62.4029 38.5253C62.2788 38.3269 62.0913 38.1834 61.8806 38.1139C61.4348 37.2743 60.9893 36.4346 60.5426 35.5955C57.8635 30.5631 55.1844 25.5309 52.5053 20.4985L51.4961 18.6029C51.4434 18.5039 51.3697 18.4227 51.2862 18.3539C50.9811 17.6783 50.665 16.9522 50.1014 16.4827C49.2131 15.7427 48.1817 16.0013 47.1706 16.2885C46.1819 16.5695 45.1933 16.8504 44.2047 17.1313C36.2952 19.3788 28.3867 21.629 20.4966 23.9428C19.5103 24.232 18.5309 24.5478 17.5488 24.851C16.5919 25.1464 16.9864 26.6035 17.9637 26.3523C25.8515 24.3249 33.6835 22.076 41.5231 19.8709C43.4771 19.3213 45.4311 18.7717 47.3851 18.2221C47.7823 18.1104 48.2265 17.9185 48.636 17.8938C48.8787 17.8792 48.9345 18.005 49.0712 18.2427C49.551 19.0768 49.9236 19.9877 50.3395 20.855C52.0862 24.4974 53.8329 28.1398 55.5795 31.7821C57.3159 35.403 59.0528 39.0234 60.8007 42.6387C62.193 45.5186 63.6033 48.393 65.1471 51.1956C66.027 53.0094 66.9068 54.8233 67.7867 56.6371C67.9584 56.991 68.3894 57.1515 68.7679 57.1008C69.5695 58.2824 70.3952 59.4477 71.2315 60.6083C71.5248 61.3863 71.8111 62.1668 72.0823 62.9512C72.2443 63.4199 72.7136 63.73 73.2147 63.5926C73.2588 63.5805 73.3007 63.5615 73.3424 63.5423C75.2331 66.2255 77.0031 68.9888 78.6627 71.8214C78.9159 72.2535 79.1607 72.6903 79.4092 73.1251C80.1626 74.7886 80.896 76.463 81.655 78.1259C83.9228 83.0946 86.4083 87.9713 89.1048 92.7223C89.4435 93.319 89.7871 93.9129 90.1329 94.5056C90.4074 94.9758 91.0453 95.1417 91.5158 94.8672C92.0235 94.5711 92.1094 93.9834 91.8784 93.4878Z" fill="#7B597C"/>
<path opacity="0.4" d="M31.8472 12.3133C31.7103 12.127 31.4893 11.9857 31.2557 12.0012C30.4006 12.0577 29.4142 12.253 28.8188 12.9667C28.5621 13.2744 28.387 13.6459 28.3499 14.0496C28.2456 14.2004 28.1528 14.3599 28.0763 14.5276C27.8962 14.9221 28.0396 15.3793 28.4575 15.5132C28.5921 15.5563 28.7279 15.5805 28.8638 15.5966C28.867 15.5999 28.8697 15.6036 28.8729 15.6068C29.1171 15.8551 29.4576 16.0411 29.8044 15.9921C30.0426 15.9585 30.2931 15.8162 30.4461 15.6174C30.5565 15.4738 30.618 15.3155 30.5917 15.1343C31.3063 14.6523 31.8521 13.8622 31.982 13.0039C32.0214 12.7441 32.0043 12.5271 31.8472 12.3133Z" fill="#7B597C"/>
<path opacity="0.4" d="M12.1421 10.283C11.6267 11.4609 11.2246 12.6757 10.8233 13.9202C10.4413 15.1051 9.98328 16.3749 10.0005 17.6674C10.0043 17.9552 10.2908 18.1133 10.4559 17.9045C10.8435 17.4145 11.0945 16.8813 11.3187 16.2494C11.5309 15.6515 11.7497 15.0569 11.9432 14.449C12.335 13.2184 12.7093 12.0103 12.9836 10.7289C13.1172 10.1047 12.3978 9.6985 12.1421 10.283Z" fill="#7B597C"/>
<path opacity="0.4" d="M16.8023 10.0611C16.6158 9.93737 16.3335 10.0058 16.2301 10.2275C15.2999 12.2214 14.4062 14.2184 13.6638 16.3084C13.3022 17.3265 12.96 18.3507 12.6454 19.3879C12.4829 19.9233 12.3308 20.4629 12.1985 21.0085C12.0637 21.5643 12.0282 22.1077 12.0005 22.6804C11.9841 23.019 12.4063 23.1114 12.5538 22.8465C12.8312 22.3484 13.0761 21.8829 13.2705 21.3362C13.4456 20.8439 13.6124 20.3478 13.7754 19.8504C14.1122 18.8225 14.4548 17.796 14.8084 16.775C15.5116 14.745 16.1839 12.6964 16.9523 10.6957C17.0414 10.4636 17.0133 10.2011 16.8023 10.0611Z" fill="#7B597C"/>
<path opacity="0.4" d="M45.5337 4.14429C44.9468 5.34906 44.3944 6.5887 43.9092 7.85131C43.6694 8.4754 43.4564 9.12008 43.2783 9.77042C43.1915 10.0872 43.0997 10.4033 43.0458 10.7298C42.9853 11.0958 43.0019 11.4355 43.0026 11.8041C43.0029 12.0012 43.2405 12.0757 43.3279 11.9046C43.4711 11.6242 43.6336 11.3728 43.7433 11.0706C43.8554 10.7619 43.9432 10.4467 44.037 10.1304C44.2287 9.48354 44.426 8.83879 44.6175 8.19187C44.999 6.90273 45.4434 5.65642 45.9709 4.43575C46.1136 4.10546 45.6935 3.81624 45.5337 4.14429Z" fill="#7B597C"/>
<path opacity="0.4" d="M48.0686 6.24954C47.6682 7.12279 47.2501 7.98982 46.8679 8.87186C46.6795 9.30662 46.4981 9.74563 46.3174 10.1839C46.2213 10.417 46.1359 10.6608 46.067 10.9044C45.9982 11.148 46.0038 11.4101 46 11.6626C45.9955 11.9675 46.3603 12.1069 46.5629 11.9057C46.9104 11.5606 47.1428 11.2064 47.3458 10.752C47.5493 10.2965 47.7398 9.83067 47.9261 9.36731C48.2883 8.46669 48.6218 7.55238 48.9687 6.64532C49.1742 6.1081 48.3087 5.72584 48.0686 6.24954Z" fill="#7B597C"/>
<path opacity="0.4" d="M39.9447 84.9131C40.1889 84.3424 39.5673 83.6606 39.1981 84.1916C38.436 85.2875 38.0815 86.6627 38.0111 88.1009C37.9771 88.7964 38.0193 89.5172 38.1642 90.1915C38.2351 90.5209 38.3375 90.8646 38.4612 91.1678C38.53 91.3366 38.6123 91.5208 38.7141 91.6614C38.8167 91.8031 38.9435 91.8538 39.0624 91.9452C39.2683 92.1035 39.5167 91.8961 39.5252 91.6125C39.5292 91.479 39.5629 91.3605 39.5563 91.2244C39.5475 91.0435 39.4965 90.8611 39.4618 90.6856C39.4034 90.3904 39.3443 90.0989 39.2978 89.8001C39.2162 89.2759 39.1693 88.7381 39.1854 88.1443C39.2151 87.046 39.5143 85.9189 39.9447 84.9131Z" fill="#FFC4AF"/>
<path opacity="0.4" d="M36.9487 90.6694C36.8307 90.3487 36.4954 90.1245 36.1898 90.2424C36.0938 90.2793 35.9819 90.2885 35.8886 90.3287C35.8309 90.3354 35.7732 90.3422 35.7159 90.3537C35.937 90.3205 35.7967 90.3414 35.7443 90.3459C35.637 90.3551 35.5282 90.3594 35.4207 90.3545C35.3939 90.3533 35.3666 90.3494 35.3393 90.3459C35.3304 90.3456 35.3209 90.3449 35.3114 90.3438C35.2938 90.342 35.276 90.3395 35.2587 90.3398C35.2705 90.3396 35.2778 90.3397 35.2876 90.3397C35.1822 90.3158 35.0783 90.2828 34.9773 90.2407L34.967 90.2365L34.9634 90.2341C34.9277 90.2122 34.891 90.1927 34.8557 90.1701C34.764 90.1113 34.6764 90.0451 34.5881 89.9802C34.5809 89.9731 34.5734 89.9663 34.5663 89.9591C34.5308 89.9231 34.4968 89.8856 34.464 89.8464C34.4306 89.8066 34.3977 89.7658 34.3661 89.724C34.3613 89.7177 34.3568 89.7111 34.3521 89.7047L34.3436 89.691C34.2896 89.5897 34.2308 89.4931 34.1831 89.3873C34.1781 89.3763 34.1682 89.3572 34.1581 89.3385C34.1365 89.2893 34.1226 89.229 34.1086 89.1785C34.0919 89.1184 34.0769 89.0574 34.0648 88.9958C34.0601 88.9739 34.0569 88.9517 34.0535 88.9295C34.0469 88.8145 34.0419 88.7021 34.0447 88.5865L34.045 88.5839C34.0493 88.5542 34.054 88.5245 34.0592 88.495C34.069 88.4404 34.0806 88.3862 34.0938 88.3325C34.1069 88.2789 34.1236 88.2271 34.1382 88.1741C34.1449 88.1544 34.1485 88.1437 34.1506 88.137C34.1586 88.117 34.1665 88.097 34.1751 88.0772C34.1997 88.0202 34.2265 87.9644 34.2556 87.9102C34.2633 87.8961 34.349 87.7538 34.3096 87.8121C34.4472 87.6087 34.4826 87.3356 34.3096 87.1373C34.1511 86.9556 33.8791 86.9529 33.7209 87.1373C33.0998 87.8609 32.8776 88.9999 33.0637 89.979C33.1611 90.4914 33.4285 90.9826 33.779 91.3183C34.1653 91.6881 34.6267 91.8961 35.1226 91.9725C35.676 92.0577 36.2155 91.9488 36.6855 91.5902C36.9541 91.3852 37.0775 91.0192 36.9487 90.6694Z" fill="#FFC4AF"/>
<path d="M135.97 81C135.958 81 135.947 80.993 135.942 80.9814C128.323 62.8549 113.68 47.653 95.7685 39.2741C92.1898 37.5999 88.4333 36.1659 84.8006 34.779C83.22 34.1756 81.5855 33.5515 79.9873 32.9161C76.192 31.4067 72.2656 29.6673 69.6222 26.489C69.1123 25.8759 68.6523 25.2077 68.2074 24.5616C67.6199 23.7084 67.0124 22.8262 66.2856 22.0652C64.7834 20.4929 62.94 19.7816 61.3546 20.1599C60.3999 20.3887 59.534 21.2165 59.2001 22.2201C58.9339 23.0198 59.0525 23.7997 59.5252 24.3604C59.536 24.3731 59.5343 24.3921 59.5214 24.4027C59.5084 24.413 59.4894 24.4114 59.4788 24.3989C58.9923 23.822 58.8697 23.021 59.1425 22.2014C59.4827 21.1788 60.366 20.335 61.3404 20.1017C62.9468 19.7175 64.8122 20.4357 66.3296 22.0239C67.0596 22.7881 67.6686 23.6725 68.2574 24.5278C68.7015 25.1727 69.1609 25.8398 69.669 26.4509C72.3033 29.6181 76.2218 31.3539 80.0098 32.8603C81.6076 33.4956 83.242 34.1195 84.8224 34.7229C88.4562 36.11 92.2137 37.5445 95.7943 39.2196C113.719 47.6049 128.373 62.8181 135.998 80.9584C136.004 80.9737 135.997 80.9913 135.981 80.9977C135.977 80.9993 135.974 81 135.97 81Z" fill="#7B597C"/>
<path d="M184.8 123C184.58 123 184.357 122.939 184.157 122.811L167.958 112.454C163.757 109.768 159.413 106.99 155.459 103.746C149.586 98.9286 144.528 93.0287 140.066 87.8232C138.081 85.5073 135.83 82.8822 134.536 79.7493C134.121 78.7426 133.813 77.709 133.516 76.7094C133.162 75.5188 132.828 74.3944 132.332 73.3462C131.392 71.3573 129.849 69.6315 128.357 67.9622L109.684 47.0715C108.197 45.4069 106.658 43.6857 104.785 42.5555C102.376 41.1012 99.4925 40.6273 96.4399 40.1254C92.7161 39.513 88.8656 38.88 85.8742 36.3105C85.2745 35.7952 84.7409 35.2259 84.225 34.6756C83.3475 33.7392 82.5188 32.855 81.5045 32.3848C80.501 31.92 79.2995 31.8542 78.0272 31.7844C76.5898 31.7057 75.1034 31.6242 73.6864 30.9712C71.174 29.8132 69.8358 27.3124 68.6551 25.106L68.5365 24.8846C67.5011 22.9531 66.1838 20.9163 64.2655 20.4539C63.3344 20.2295 62.2415 20.8162 61.7227 21.5129C61.3686 21.9888 61.3018 22.4261 61.5242 22.8131C61.8549 23.3888 61.658 24.1245 61.0845 24.4563C60.511 24.7885 59.778 24.5907 59.4473 24.0152C58.7436 22.7903 58.8763 21.3165 59.8022 20.0728C60.9799 18.4909 63.0454 17.6854 64.8254 18.1143C67.6629 18.7985 69.3609 21.3442 70.6477 23.7445L70.7672 23.9675C71.8184 25.9321 72.9055 27.9635 74.6868 28.7845C75.6894 29.2467 76.8885 29.3123 78.158 29.3818C79.5991 29.461 81.0894 29.5425 82.5094 30.2002C83.9462 30.8661 84.9757 31.9647 85.9714 33.027C86.4654 33.554 86.932 34.0519 87.4332 34.4824C89.9149 36.6143 93.2726 37.1663 96.8275 37.7509C99.9688 38.2674 103.217 38.8013 106.021 40.4933C108.202 41.8099 109.938 43.7517 111.469 45.4647L130.142 66.3554C131.748 68.1525 133.408 70.0105 134.498 72.3146C135.072 73.5294 135.449 74.7962 135.813 76.0211C136.106 77.0057 136.383 77.9357 136.751 78.8282C137.898 81.6051 139.924 83.9685 141.883 86.2541C146.281 91.3843 151.266 97.1992 156.976 101.883C160.821 105.037 165.104 107.776 169.246 110.424L185.445 120.782C186.004 121.139 186.168 121.883 185.812 122.443C185.584 122.803 185.196 123 184.8 123Z" fill="#7B597C"/>
<path d="M18.7845 53C18.761 53 18.7375 52.9993 18.7137 52.9982C15.203 52.8029 12.094 51.8165 9.72263 50.1458C6.8554 48.126 5.09111 45.0754 5.0032 41.9854C4.90365 38.4924 7.13601 35.1627 10.311 34.0684C10.9445 33.8506 11.6397 34.17 11.8652 34.7824C12.0907 35.3949 11.7603 36.0682 11.1274 36.2864C8.95245 37.0362 7.36517 39.4582 7.43527 41.9206C7.50156 44.2503 8.92667 46.6728 11.1545 48.2423C13.1476 49.6466 15.8098 50.478 18.8532 50.6473C19.5239 50.6847 20.0366 51.2412 19.998 51.8903C19.9608 52.5164 19.4245 53 18.7845 53Z" fill="#7B597C"/>
<path d="M28.8945 84C28.6468 84 28.3964 83.9353 28.1738 83.8003C23.7541 81.1173 20.5504 76.8428 19.3842 72.0722C18.7471 69.4661 18.903 67.2311 19.8475 65.4288C21.1295 62.9831 24.0191 61.5608 26.5692 62.1219C29.8235 62.8374 31.2008 66.0227 31.9536 68.3564C32.7586 70.8513 33.5319 73.7463 32.5132 76.5308C32.2801 77.168 31.5335 77.5092 30.8449 77.2938C30.1565 77.0782 29.7873 76.3872 30.0203 75.7505C30.7912 73.6431 30.1208 71.1882 29.4319 69.0526C28.532 66.2631 27.429 64.8134 25.9609 64.4906C24.4471 64.1589 22.8678 65.2464 22.2155 66.4911C21.5379 67.7839 21.449 69.481 21.9512 71.5353C22.9683 75.696 25.7626 79.4244 29.6177 81.7645C30.2252 82.1333 30.3946 82.8882 29.996 83.4503C29.7432 83.8065 29.323 84 28.8945 84Z" fill="#7B597C"/>
<path d="M34.3918 106C34.1595 106 33.9248 105.932 33.7178 105.789L25.5066 100.144C24.8413 99.6874 23.9301 99.061 23.43 98.0412C22.9365 97.0346 22.9852 95.9299 23.0208 95.1231L23.2941 88.9247C23.3272 88.1755 23.3646 87.3262 23.6785 86.4832C24.2337 84.9916 25.5531 83.8033 27.6002 82.952C30.6942 81.6651 34.0886 81.367 37.0836 81.1038C38.8459 80.9488 42.5148 80.6266 44.4867 83.1396C45.4924 84.4213 45.7152 86.0104 45.8572 87.5282C46.1469 90.6272 46.1579 93.8341 44.2919 96.2955C42.9451 98.0721 40.6888 99.2344 37.9388 99.5684L37.8316 99.5813C36.9853 99.6833 35.8263 99.8231 35.6234 100.315C35.3654 100.94 34.6585 101.235 34.0441 100.972C33.4298 100.709 33.141 99.9889 33.399 99.3635C34.1463 97.552 36.1933 97.3052 37.5478 97.1418L37.6531 97.1291C38.8702 96.9813 41.1032 96.4814 42.3821 94.7944C43.7364 93.0082 43.6983 90.3585 43.4554 87.7611C43.3434 86.5643 43.1939 85.4274 42.6018 84.673C41.5771 83.367 39.4442 83.3617 37.291 83.5512C34.3294 83.8115 31.267 84.0804 28.5125 85.2262C27.1103 85.8094 26.243 86.5252 25.9346 87.3538C25.7575 87.8293 25.7305 88.4422 25.7044 89.035L25.4311 95.2334C25.4047 95.8308 25.3749 96.5078 25.5887 96.9439C25.8055 97.3863 26.3639 97.7699 26.8564 98.1084L35.0678 103.754C35.62 104.133 35.7654 104.896 35.3926 105.459C35.1596 105.81 34.7791 106 34.3918 106Z" fill="#7B597C"/>
<path d="M39.961 123C38.0344 123 36.0531 121.901 34.8528 120.072C33.6346 118.216 33.3282 115.978 33.1892 114.033C33.091 112.66 33.0545 111.274 33.0194 109.934C32.9751 108.256 32.92 106.169 33.9292 104.358C34.5923 103.167 35.6301 102.28 36.4601 101.64C39.0888 99.6134 42.0798 98.1797 44.9722 96.7934C45.625 96.4804 46.4373 96.0911 47.3687 96.0133C48.8989 95.8886 50.4841 96.6471 51.5064 97.9991C52.2497 98.9817 52.7066 100.234 52.903 101.828C53.7264 108.506 49.2217 115.294 42.6475 117.282C42.0072 117.475 41.3285 117.125 41.1307 116.5C40.9327 115.875 41.2909 115.211 41.9306 115.018C47.3294 113.385 51.1714 107.595 50.4953 102.112C50.3504 100.936 50.0433 100.052 49.5562 99.4081C49.0385 98.7234 48.2603 98.3153 47.5744 98.3752C47.0967 98.4148 46.5596 98.6725 46.0402 98.9215C43.2615 100.253 40.3883 101.63 37.962 103.501C37.2736 104.032 36.509 104.684 36.0591 105.491C35.3612 106.744 35.405 108.406 35.4437 109.871C35.4783 111.187 35.514 112.547 35.6084 113.868C35.7319 115.596 35.9733 117.389 36.8941 118.792C37.6458 119.938 39.1387 120.912 40.5365 120.561C41.1854 120.398 41.8462 120.779 42.0133 121.412C42.1804 122.046 41.7902 122.692 41.1416 122.856C40.7554 122.953 40.3593 123 39.961 123Z" fill="#7B597C"/>
<path d="M182.799 198C182.553 198 182.304 197.924 182.091 197.766C169.655 188.577 158.511 177.504 147.733 166.796C141.321 160.425 134.69 153.836 127.868 147.727C123.912 144.184 119.245 140.39 113.918 140.228C112.833 140.195 111.745 140.313 110.592 140.437C109.554 140.549 108.481 140.665 107.39 140.665H107.379C103.962 140.665 100.736 139.557 97.6166 138.484L97.4602 138.43C78.9924 132.084 59.9753 126.686 40.9374 122.387C40.2909 122.241 39.8844 121.595 40.0293 120.944C40.1743 120.293 40.8165 119.884 41.4624 120.029C60.5845 124.348 79.6856 129.769 98.235 136.143L98.3915 136.197C101.326 137.206 104.361 138.249 107.38 138.249H107.388C108.352 138.248 109.316 138.145 110.336 138.035C111.519 137.907 112.742 137.775 113.991 137.813C120.121 138 125.191 142.096 129.463 145.921C136.331 152.072 142.984 158.683 149.418 165.076C160.135 175.723 171.216 186.734 183.51 195.818C184.044 196.213 184.159 196.969 183.767 197.507C183.532 197.829 183.168 198 182.799 198Z" fill="#7B597C"/>
<path d="M90.8138 67C90.2104 67 89.6946 66.5476 89.6359 65.9429C89.2175 61.6443 86.6843 57.5014 83.0249 55.1311C82.811 54.9926 82.5925 54.8583 82.3739 54.7241C81.4821 54.1763 80.5599 53.6097 79.8234 52.7296C79.6622 52.5372 79.5246 52.3468 79.3915 52.1626C79.2045 51.904 79.028 51.6595 78.8453 51.5018C78.4955 51.1998 77.9196 51.0343 77.3626 50.8743L71.8537 49.2911C71.2254 49.1105 70.8646 48.4618 71.0476 47.8421C71.2306 47.2223 71.8892 46.8667 72.5164 47.0468L78.0253 48.63C78.7545 48.8395 79.6619 49.1005 80.4061 49.7432C80.7968 50.0806 81.0751 50.4657 81.3208 50.8056C81.435 50.9635 81.5428 51.1128 81.6506 51.2415C82.141 51.8275 82.8626 52.2708 83.6265 52.7401C83.8613 52.8843 84.0958 53.0286 84.3254 53.1772C88.6348 55.9686 91.5018 60.6573 91.9945 65.7197C92.0571 66.362 91.5797 66.9329 90.9284 66.9947C90.8899 66.9984 90.8516 67 90.8138 67Z" fill="#7B597C"/>
<path d="M82.9358 55C80.37 55 77.786 54.3262 75.5599 53.0637C75.0286 52.7625 74.8428 52.0885 75.1447 51.5585C75.4469 51.0285 76.122 50.8433 76.6533 51.1443C78.8037 52.3638 81.3463 52.9395 83.8141 52.7606C84.424 52.7179 84.9532 53.1743 84.9971 53.7824C85.041 54.3907 84.5824 54.9191 83.9729 54.9629C83.6283 54.9877 83.2821 55 82.9358 55Z" fill="#7B597C"/>
<path d="M82.2722 52C82.2026 52 82.132 51.9949 82.0611 51.9843C81.369 51.8813 80.9019 51.299 81.0176 50.6836C81.2478 49.4605 81.8547 48.3204 82.7729 47.3864C83.2347 46.9164 84.0374 46.8685 84.5656 47.2792C85.0939 47.6898 85.1479 48.4034 84.6861 48.8732C84.0868 49.483 83.674 50.2584 83.5239 51.0565C83.4199 51.6088 82.8818 52 82.2722 52Z" fill="#7B597C"/>
<path d="M76.171 50C75.5539 50 75.0392 49.5584 75.0089 48.9907C74.9461 47.8166 75.2174 46.6398 75.7934 45.588C76.0803 45.0633 76.7795 44.8501 77.3551 45.112C77.9306 45.3737 78.1644 46.0107 77.8773 46.5349C77.4792 47.2623 77.2915 48.0758 77.335 48.8875C77.3662 49.4726 76.8709 49.9702 76.2285 49.9988C76.2093 49.9996 76.19 50 76.171 50Z" fill="#7B597C"/>
<path d="M74.9219 50C74.3198 50 73.7791 49.6115 73.6493 49.0448C72.9137 45.8352 72.3262 42.1825 74.6799 39.4535C75.1284 38.9334 75.948 38.8479 76.51 39.2633C77.0722 39.6785 77.1641 40.4367 76.7156 40.9568C75.0699 42.8647 75.5851 45.874 76.197 48.5449C76.3462 49.1958 75.8967 49.8355 75.1932 49.9736C75.1022 49.9915 75.0113 50 74.9219 50Z" fill="#7B597C"/>
<path d="M38.5461 94C38.1886 94 37.8512 93.7638 37.7138 93.3778C36.5788 90.1879 36.8078 86.4963 38.3261 83.5028C38.5651 83.0313 39.1085 82.8615 39.5397 83.1223C39.9711 83.3835 40.1269 83.9768 39.888 84.4481C38.6236 86.9408 38.433 90.015 39.378 92.6711C39.5567 93.1733 39.3289 93.7383 38.8694 93.9336C38.7631 93.9786 38.6537 94 38.5461 94Z" fill="#7B597C"/>
<path d="M36.3547 94C35.4513 94.0002 34.5274 93.6552 33.7232 92.9912C32.5095 91.9893 31.8731 90.5122 32.0211 89.0401C32.1392 87.8643 32.6967 86.6934 33.6332 85.6538C35.048 84.083 37.0218 83.1162 39.0483 83.0015C39.5466 82.9721 39.9725 83.3868 39.9987 83.9254C40.0249 84.464 39.6417 84.9237 39.143 84.9519C37.5663 85.0413 36.0305 85.7935 34.9296 87.0158C34.4747 87.5208 33.9128 88.3183 33.8191 89.2508C33.7412 90.026 34.1253 90.8646 34.8215 91.4394C35.5178 92.0141 36.3679 92.1943 37.0397 91.9099C37.5046 91.7127 38.0293 91.9604 38.2117 92.4626C38.3939 92.9647 38.1648 93.5315 37.6998 93.7282C37.2692 93.9106 36.8145 94 36.3547 94Z" fill="#7B597C"/>
<path d="M45.6883 109C44.9296 109 44.1961 108.839 43.542 108.515C41.0188 107.266 40.4494 103.982 41.5005 101.697C42.3623 99.8253 44.1468 98.2743 46.8047 97.0879C47.3012 96.8665 47.8894 97.0776 48.1177 97.5602C48.1438 97.6154 48.1641 97.6717 48.1787 97.7285C48.6499 97.7659 49.0391 98.1278 49.083 98.6009C49.2677 100.595 50.2216 102.539 51.6999 103.935C52.0501 104.265 52.0999 104.794 51.8171 105.181C51.1311 106.119 50.0401 107.461 48.493 108.279C47.5875 108.758 46.6191 109 45.6883 109ZM47.1424 99.0636C45.2067 100.008 43.9181 101.157 43.3081 102.482C42.6418 103.93 42.9432 106.06 44.4412 106.802C45.3026 107.229 46.4928 107.148 47.5463 106.59C48.2872 106.199 48.9885 105.589 49.7186 104.695C48.3157 103.125 47.3966 101.125 47.1424 99.0636Z" fill="#7B597C"/>
<path d="M133.854 91C133.81 91 133.767 90.9963 133.723 90.9889C133.255 90.9093 132.934 90.4258 133.006 89.9086C133.731 84.684 133.046 79.1542 131.076 74.3382C130.881 73.8616 131.073 73.3005 131.504 73.0847C131.935 72.8685 132.442 73.0806 132.637 73.5574C134.741 78.7037 135.474 84.613 134.699 90.1963C134.634 90.6647 134.269 91 133.854 91Z" fill="#7B597C"/>
<path d="M111.926 135C111.483 135 111.092 134.68 111.014 134.227C110.926 133.72 111.264 133.237 111.768 133.149C116.153 132.384 120.171 129.451 122.255 125.496C122.494 125.041 123.055 124.868 123.507 125.109C123.959 125.35 124.132 125.914 123.892 126.369C121.546 130.822 117.022 134.124 112.085 134.986C112.032 134.995 111.978 135 111.926 135Z" fill="#7B597C"/>
<path d="M56.0525 106C55.7207 106 55.3987 105.824 55.2247 105.511C41.2892 80.4512 27.1167 53.4934 13.1013 25.3867C12.866 24.9148 13.0545 24.3396 13.5223 24.1024C13.9898 23.8646 14.5599 24.0552 14.7953 24.5269C28.7981 52.6081 42.9569 79.5403 56.8786 104.575C57.1348 105.036 56.9723 105.619 56.5156 105.877C56.3688 105.961 56.2095 106 56.0525 106Z" fill="#7B597C"/>
<path d="M56.9655 107C56.5379 107 56.1469 106.699 56.0324 106.242C55.8959 105.699 56.2032 105.142 56.7189 104.998C68.928 101.593 81.02 97.247 92.6589 92.0798C93.1508 91.8622 93.7168 92.1047 93.924 92.6227C94.1311 93.1405 93.9005 93.7373 93.409 93.9557C81.6872 99.1594 69.5091 103.537 57.2132 106.966C57.1304 106.989 57.0472 107 56.9655 107Z" fill="#7B597C"/>
<path d="M93.0416 94C92.6965 94 92.3631 93.8121 92.1916 93.4836C78.0167 66.3226 63.4695 39.3345 50.123 15.4372C49.8637 14.9726 50.0278 14.3849 50.4895 14.124C50.9512 13.8627 51.5357 14.0279 51.7953 14.4925C65.1506 38.4056 79.7067 65.4102 93.89 92.587C94.1361 93.0589 93.9554 93.6419 93.4865 93.8893C93.3442 93.9644 93.1918 94 93.0416 94Z" fill="#7B597C"/>
<path d="M14.9527 26C14.5209 26 14.1297 25.686 14.0259 25.2199C13.9045 24.6754 14.2214 24.1293 14.7338 24.0002C20.2648 22.6075 26.1435 20.9019 31.8285 19.2524C38.1442 17.4199 44.6748 15.5252 50.8338 14.026C51.3465 13.9005 51.8581 14.2419 51.9757 14.7877C52.0933 15.3333 51.7725 15.8768 51.2592 16.0018C45.1387 17.4914 38.6275 19.3806 32.3306 21.2077C26.6302 22.8616 20.7358 24.572 15.1732 25.9725C15.0994 25.9911 15.0254 26 14.9527 26Z" fill="#7B597C"/>
<path d="M28.5462 18C27.5967 18 26.6543 17.6506 25.9193 16.8325C25.063 15.8792 24.7741 14.3416 25.1834 12.9149C25.2943 12.5285 25.4495 12.1804 25.6413 11.8793C25.5665 11.3723 25.8232 10.8644 26.2624 10.6967C27.4456 10.245 28.7096 9.82485 30.0129 10.0747C31.4326 10.3476 32.9618 11.6779 32.9993 13.6069C33.0209 14.7125 32.5211 15.8453 31.6279 16.7151C30.817 17.5045 29.6767 18 28.5462 18ZM28.3356 12.2297C28.1971 12.5028 27.9541 12.7026 27.6597 12.7488C27.2085 12.8195 27.0093 13.3521 26.9446 13.5776C26.7608 14.2182 26.8706 14.9307 27.2114 15.3101C28.0359 16.2276 29.5677 15.9347 30.4271 15.0973C30.8862 14.6505 31.1549 14.1109 31.146 13.6543C31.1314 12.9045 30.3873 12.2994 29.7063 12.1688C29.2687 12.0843 28.8096 12.1229 28.3356 12.2297Z" fill="#7B597C"/>
<path d="M36.8084 15C36.5311 15 36.2501 14.9078 35.9917 14.7258C35.5521 14.4164 35.2188 13.8761 35.0776 13.2435C34.9363 12.611 34.9896 11.8977 35.2238 11.2866C35.4579 10.6752 35.8512 10.2229 36.3026 10.0457C36.6323 9.91535 36.9707 10.0723 37.1858 10.4097C37.6514 10.4548 38.0129 11.0133 37.9996 11.68L37.9588 13.731C37.9485 14.2417 37.7178 14.6913 37.378 14.8627C37.196 14.9543 37.0031 15 36.8084 15Z" fill="#7B597C"/>
<path d="M21.4706 19C20.8652 19.0003 20.3389 18.5653 20.0836 17.8461C20.0152 17.6535 19.9879 17.4365 20.0049 17.222C20.0779 16.3037 20.5078 15.4688 21.1 15.0945C21.4613 14.8668 21.8794 15.0646 22.0774 15.5368C22.507 15.7826 22.8462 16.3105 22.9716 16.954C23.0168 17.1858 23.0078 17.4325 22.9459 17.6562C22.7288 18.4409 22.196 18.9547 21.5553 18.9973C21.5269 18.9992 21.4987 19 21.4706 19Z" fill="#7B597C"/>
<path d="M78.4589 111C78.3115 111 78.1639 110.992 78.0161 110.976C75.8617 110.74 74.0607 108.778 74.0015 106.601C73.9423 104.425 75.634 102.367 77.7725 102.013C78.2408 101.936 78.6845 102.204 78.8478 102.632C79.908 102.492 81.0452 102.85 81.8431 103.641C82.8219 104.613 83.2268 106.156 82.8748 107.573C82.3862 109.541 80.4615 111 78.4589 111ZM77.2888 104.255C76.4969 104.722 75.938 105.628 75.963 106.547C75.9958 107.755 77.0333 108.886 78.2287 109.016C79.4238 109.146 80.6798 108.268 80.9711 107.096C81.1556 106.353 80.952 105.528 80.4642 105.044C79.988 104.571 79.1962 104.432 78.6612 104.727C78.1865 104.989 77.5898 104.815 77.3292 104.337C77.3143 104.31 77.3009 104.282 77.2888 104.255Z" fill="#7B597C"/>
<path d="M67.5062 112C66.9661 112 66.4253 111.975 65.8848 111.925C65.5221 111.892 65.2096 111.679 65.0724 111.374C64.9352 111.068 64.9958 110.719 65.23 110.465C66.3209 109.287 67.5364 108.19 68.8427 107.206C69.2605 106.891 69.8813 106.943 70.2293 107.322C70.3215 107.422 70.3852 107.535 70.4213 107.653C70.6153 107.747 70.7761 107.899 70.8675 108.097L71.9238 110.385C72.035 110.626 72.0241 110.898 71.8938 111.131C71.7636 111.364 71.5272 111.534 71.2469 111.595C70.0167 111.865 68.764 112 67.5062 112ZM69.2604 109.239C68.8806 109.55 68.5104 109.872 68.1509 110.203C68.6503 110.182 69.148 110.137 69.6428 110.067L69.2604 109.239Z" fill="#7B597C"/>
<path d="M86.8889 103C86.5636 103 86.2503 102.77 86.0945 102.371C85.8745 101.808 86.0517 101.123 86.4901 100.841L90.7135 98.1214C91.1517 97.8387 91.6854 98.0666 91.9055 98.6291C92.1255 99.1921 91.9483 99.8769 91.5099 100.159L87.2865 102.879C87.1587 102.961 87.0228 103 86.8889 103Z" fill="#7B597C"/>
<path d="M87.1253 104C86.5518 104 86.0615 103.688 86.0053 103.271C85.9455 102.828 86.3992 102.434 87.0185 102.391C88.8752 102.263 90.6947 101.824 92.2801 101.121C92.809 100.887 93.5035 101.003 93.831 101.382C94.1587 101.76 93.9954 102.257 93.4664 102.492C91.5887 103.324 89.434 103.844 87.2349 103.996C87.1982 103.999 87.1615 104 87.1253 104Z" fill="#7B597C"/>
<path d="M88.9838 107C88.4925 107 88.0675 106.661 88.0072 106.2C87.942 105.701 88.3269 105.249 88.8669 105.189C90.143 105.046 91.4156 104.673 92.547 104.109C93.026 103.871 93.6232 104.035 93.8816 104.477C94.14 104.919 93.9614 105.471 93.4828 105.709C92.1171 106.39 90.6435 106.822 89.103 106.993C89.063 106.998 89.0231 107 88.9838 107Z" fill="#7B597C"/>
<path d="M65.0117 120C64.5125 120 64.0133 119.962 63.5086 119.873C60.716 119.383 58.127 117.327 56.0219 113.928C55.447 113 54.9266 112.031 54.4232 111.096C53.4955 109.37 52.6193 107.74 51.4261 106.326C51.0835 105.92 51.1359 105.313 51.5433 104.971C51.9505 104.63 52.5587 104.682 52.9014 105.088C54.2236 106.656 55.1888 108.451 56.1221 110.187C56.6119 111.098 57.1181 112.039 57.6621 112.918C58.9228 114.953 61.0184 117.484 63.8428 117.979C65.3441 118.243 66.9277 117.925 68.6931 117.515C78.9136 115.14 89.0534 112.01 98.8311 108.21C99.5805 107.919 100.184 107.662 100.568 107.238C101.332 106.392 101.234 104.885 100.267 102.632C94.9422 90.2161 87.9756 78.3172 81.2383 66.81C74.7542 55.735 68.0492 44.283 62.7797 32.3369C57.9136 21.3059 48.8148 4.02123 47.6106 2.82031C45.8499 1.06458 41.8837 2.36946 40.3905 2.86068C40.0466 2.9738 39.8194 3.04843 39.6441 3.08504C35.4565 3.95904 30.9664 5.03792 26.6244 6.08113C22.2683 7.12762 17.764 8.20979 13.5479 9.08965C8.7433 10.0927 5.89475 11.9517 5.92816 14.0628C5.96135 16.1607 6.57026 18.2903 7.78974 20.5729L39.6839 80.2773C39.9342 80.746 39.7562 81.328 39.2864 81.5778C38.8163 81.8275 38.2327 81.6498 37.9824 81.1814L6.08831 21.477C4.74069 18.9543 4.03823 16.47 4.00058 14.0933C3.9501 10.8956 7.20048 8.45036 13.153 7.20789C17.3406 6.33366 21.8307 5.25502 26.1728 4.21181C30.5288 3.16531 35.0332 2.08338 39.2492 1.20328C39.3218 1.18779 39.5686 1.10659 39.7864 1.03477C41.7571 0.386319 46.3729 -1.13285 48.9739 1.46098C50.6185 3.10101 59.9317 21.1059 64.5442 31.5629C69.7696 43.4085 76.4463 54.8122 82.903 65.8405C89.6701 77.3986 96.6675 89.3501 102.04 101.875C102.515 102.983 103.961 106.355 102 108.525C101.279 109.322 100.269 109.715 99.531 110.002C89.6682 113.834 79.4399 116.992 69.1305 119.387C67.6913 119.722 66.3521 120 65.0117 120Z" fill="#7B597C"/>
<path d="M47.083 97C46.7655 97 46.4569 96.823 46.287 96.5068L44.1228 92.4769C43.8697 92.0056 44.0205 91.4034 44.4596 91.1317C44.8989 90.8602 45.4599 91.022 45.7131 91.4933L47.8772 95.5228C48.1304 95.9941 47.9796 96.5965 47.5404 96.8682C47.396 96.9574 47.2385 97 47.083 97Z" fill="#7B597C"/>
<path d="M64.5246 124C63.1397 124 61.7762 123.799 60.4933 123.221C58.1943 122.184 56.6659 120.176 55.3567 118.159C53.7294 115.653 52.29 113.001 51.0785 110.278C50.8709 109.811 51.0892 109.268 51.5659 109.065C52.0427 108.863 52.5974 109.075 52.805 109.542C53.9776 112.178 55.3708 114.745 56.946 117.171C58.1007 118.949 59.425 120.71 61.2811 121.547C63.3468 122.478 65.7912 122.181 68.3238 121.763C76.7109 120.381 85.0837 118.432 93.2096 115.971C95.5915 115.25 97.8616 114.474 99.4554 112.931C100.888 111.543 101.708 109.102 100.6 107.42C100.319 106.993 100.445 106.423 100.882 106.147C101.319 105.872 101.901 105.994 102.183 106.422C103.87 108.983 102.719 112.362 100.78 114.24C98.8837 116.077 96.3803 116.94 93.7663 117.732C85.5607 120.217 77.1058 122.184 68.6365 123.58C67.2835 123.803 65.8937 124 64.5246 124Z" fill="#7B597C"/>
<path d="M26.0462 64C25.692 64 25.3517 63.8036 25.1869 63.4662C20.0937 53.0453 14.4382 43.4685 8.45064 33.3295C6.60594 30.2057 4.69833 26.9757 2.7785 23.6711C1.63668 21.7059 -0.274299 18.4165 0.0329965 15.755C0.368364 12.8505 4.22015 11.3615 7.31523 10.1649C8.27451 9.79427 9.18055 9.44393 9.85082 9.104C10.3201 8.86597 10.8949 9.05038 11.1349 9.5158C11.3748 9.98122 11.1889 10.5516 10.7196 10.7896C9.96346 11.173 9.01374 11.5402 8.00822 11.9289C5.52901 12.8874 2.13362 14.1998 1.92918 15.9704C1.69341 18.0121 3.47498 21.0785 4.43216 22.7259C6.34861 26.0245 8.25435 29.2517 10.0974 32.3726C16.1045 42.5448 21.7784 52.1526 26.9042 62.6403C27.1341 63.1108 26.9361 63.6769 26.4619 63.905C26.3277 63.9695 26.1859 64 26.0462 64Z" fill="#7B597C"/>
<path d="M36.007 83C35.6599 83 35.3229 82.7999 35.1403 82.4442L31.1283 74.6277C30.8587 74.1027 31.0278 73.4371 31.506 73.1411C31.9843 72.8445 32.5902 73.0308 32.8597 73.556L36.8717 81.3725C37.1413 81.8974 36.9722 82.563 36.4941 82.859C36.3398 82.9544 36.1722 83 36.007 83Z" fill="#7B597C"/>
<path d="M125.684 138C125.417 138 125.164 137.86 125.054 137.628C124.907 137.32 125.07 136.964 125.418 136.834C126.511 136.425 127.125 135.253 127.582 134.16C129.669 129.168 130.694 123.938 130.629 118.614C130.625 118.278 130.928 118.004 131.306 118C131.675 117.999 131.993 118.265 131.997 118.6C132.064 124.074 131.01 129.451 128.864 134.582C128.306 135.918 127.523 137.364 125.949 137.952C125.863 137.985 125.773 138 125.684 138Z" fill="#7B597C"/>
<path d="M114.72 102C114.343 102 113.966 101.985 113.59 101.954C113.236 101.925 112.972 101.621 113.002 101.276C113.032 100.93 113.346 100.673 113.699 100.703C116.233 100.911 118.836 100.337 121.029 99.0862C121.336 98.9109 121.731 99.0114 121.912 99.3105C122.091 99.6096 121.988 99.994 121.681 100.169C119.585 101.365 117.15 102 114.72 102Z" fill="#7B597C"/>
<path d="M116.026 94C114.955 94 113.848 93.9188 112.712 93.7554C109.413 93.2806 106.254 92.2082 103.199 91.1711C102.892 91.0667 102.377 90.8918 102.117 90.4315C101.933 90.1051 101.969 89.6772 102.207 89.3668C102.416 89.094 102.743 88.9608 103.083 89.0101C103.402 89.0565 103.62 89.3357 103.57 89.6333C103.542 89.8029 103.432 89.9419 103.284 90.0216C103.389 90.0744 103.526 90.1209 103.6 90.1462C106.602 91.1652 109.705 92.2189 112.891 92.6772C116.395 93.1811 119.603 92.8602 122.167 91.7479C122.46 91.6207 122.809 91.739 122.945 92.0124C123.082 92.2855 122.955 92.6099 122.662 92.7371C120.73 93.5747 118.476 93.9998 116.026 94Z" fill="#7B597C"/>
<path d="M100.883 54C100.843 54 100.802 53.9978 100.761 53.9929C100.345 53.9443 100.062 53.6607 100.129 53.3594C100.626 51.1304 100.587 48.8745 100.013 46.6544C99.9357 46.3544 100.209 46.0658 100.623 46.0097C101.037 45.9529 101.435 46.1513 101.513 46.4511C102.118 48.7968 102.16 51.1803 101.635 53.5355C101.575 53.8068 101.251 54 100.883 54Z" fill="#7B597C"/>
<path d="M103.648 56C103.555 56 103.461 55.9806 103.372 55.9398C103.048 55.792 102.909 55.4176 103.062 55.1036C103.715 53.7584 103.876 52.2216 103.516 50.7767C103.432 50.4391 103.646 50.0995 103.994 50.018C104.342 49.9355 104.692 50.144 104.776 50.4811C105.205 52.2037 105.013 54.0356 104.235 55.6388C104.124 55.8664 103.891 56 103.648 56Z" fill="#7B597C"/>
<path d="M88.3474 71C88.192 71 88.0566 70.7443 88.0349 70.3915C87.9309 68.6987 88.061 66.9231 88.4013 65.3919C88.4785 65.0433 88.6678 64.9006 88.8244 65.0735C88.9806 65.2462 89.0445 65.6682 88.9671 66.0166C88.6824 67.2981 88.5736 68.7839 88.6606 70.2007C88.6843 70.5857 88.5634 70.9406 88.3906 70.9934C88.3761 70.9978 88.3617 71 88.3474 71Z" fill="#7B597C"/>
<path d="M48.6927 121C48.5846 121 48.4748 120.975 48.3723 120.921C48.033 120.745 47.9017 120.328 48.0789 119.99C49.3913 117.492 49.8856 114.58 49.4709 111.791C49.4149 111.414 49.6764 111.064 50.0552 111.008C50.4341 110.951 50.7862 111.212 50.8424 111.589C51.2996 114.664 50.7545 117.874 49.3077 120.63C49.1839 120.865 48.9425 121 48.6927 121Z" fill="#7B597C"/>
<path d="M51.2773 122C51.2495 122 51.2214 121.998 51.193 121.994C50.8504 121.946 50.61 121.617 50.6561 121.259C50.8892 119.449 50.677 117.593 50.0428 115.891C49.9174 115.555 50.0768 115.176 50.399 115.044C50.7209 114.914 51.0841 115.08 51.2095 115.417C51.9205 117.324 52.1582 119.404 51.8969 121.433C51.8546 121.762 51.586 122 51.2773 122Z" fill="#7B597C"/>
<path d="M106.479 121C106.298 121 106.122 120.873 106.026 120.647L104.069 116.049C103.926 115.713 104.013 115.285 104.263 115.092C104.513 114.9 104.832 115.017 104.974 115.353L106.931 119.951C107.074 120.287 106.987 120.715 106.737 120.907C106.656 120.97 106.567 121 106.479 121Z" fill="#7B597C"/>
<path d="M112.352 111C112.129 111 111.912 110.895 111.792 110.705C110.291 108.348 108.005 106.365 105.353 105.123C105.035 104.974 104.908 104.616 105.071 104.324C105.234 104.032 105.625 103.916 105.943 104.065C108.813 105.41 111.288 107.555 112.912 110.107C113.092 110.39 112.987 110.754 112.678 110.919C112.576 110.974 112.463 111 112.352 111Z" fill="#7B597C"/>
</svg>
