<svg width="30" height="30" viewBox="0 0 30 30" fill="none" xmlns="http://www.w3.org/2000/svg">
<g clip-path="url(#clip0_3177_5783)">
<path d="M0.833984 15.8332C0.833984 17.6936 1.20042 19.5357 1.91236 21.2545C2.6243 22.9733 3.66781 24.535 4.9833 25.8505C6.2988 27.166 7.86052 28.2095 9.5793 28.9215C11.2981 29.6334 13.1403 29.9998 15.0007 29.9998C16.861 29.9998 18.7032 29.6334 20.422 28.9215C22.1408 28.2095 23.7025 27.166 25.018 25.8505C26.3335 24.535 27.377 22.9733 28.0889 21.2545C28.8009 19.5357 29.1673 17.6936 29.1673 15.8332C29.1673 13.9728 28.8009 12.1306 28.0889 10.4118C27.377 8.69304 26.3335 7.13132 25.018 5.81582C23.7025 4.50033 22.1408 3.45682 20.422 2.74488C18.7032 2.03294 16.861 1.6665 15.0007 1.6665C13.1403 1.6665 11.2981 2.03294 9.5793 2.74488C7.86052 3.45682 6.2988 4.50033 4.9833 5.81582C3.66781 7.13132 2.6243 8.69304 1.91236 10.4118C1.20042 12.1306 0.833984 13.9728 0.833984 15.8332Z" fill="#F4900C"/>
<path d="M0.833984 14.1667C0.833984 16.0271 1.20042 17.8692 1.91236 19.588C2.6243 21.3068 3.66781 22.8685 4.9833 24.184C6.2988 25.4995 7.86052 26.543 9.5793 27.255C11.2981 27.9669 13.1403 28.3333 15.0007 28.3333C16.861 28.3333 18.7032 27.9669 20.422 27.255C22.1408 26.543 23.7025 25.4995 25.018 24.184C26.3335 22.8685 27.377 21.3068 28.0889 19.588C28.8009 17.8692 29.1673 16.0271 29.1673 14.1667C29.1673 12.3063 28.8009 10.4641 28.0889 8.74532C27.377 7.02654 26.3335 5.46482 25.018 4.14932C23.7025 2.83382 22.1408 1.79032 20.422 1.07837C18.7032 0.366432 16.861 0 15.0007 0C13.1403 0 11.2981 0.366432 9.5793 1.07837C7.86052 1.79032 6.2988 2.83382 4.9833 4.14932C3.66781 5.46482 2.6243 7.02654 1.91236 8.74532C1.20042 10.4641 0.833984 12.3063 0.833984 14.1667Z" fill="#FFCC4D"/>
<path d="M3.33398 15.0002C3.33398 18.0944 4.56315 21.0618 6.75107 23.2497C8.939 25.4377 11.9065 26.6668 15.0007 26.6668C18.0948 26.6668 21.0623 25.4377 23.2502 23.2497C25.4382 21.0618 26.6673 18.0944 26.6673 15.0002C26.6673 13.4681 26.3656 11.951 25.7792 10.5355C25.1929 9.12006 24.3336 7.83393 23.2502 6.75058C22.1669 5.66723 20.8808 4.80787 19.4653 4.22157C18.0498 3.63526 16.5327 3.3335 15.0007 3.3335C13.4686 3.3335 11.9515 3.63526 10.536 4.22157C9.12055 4.80787 7.83442 5.66723 6.75107 6.75058C5.66772 7.83393 4.80836 9.12006 4.22206 10.5355C3.63575 11.951 3.33398 13.4681 3.33398 15.0002Z" fill="#FFE8B6"/>
<path d="M3.33398 14.1667C3.33398 17.2609 4.56315 20.2283 6.75107 22.4162C8.939 24.6042 11.9065 25.8333 15.0007 25.8333C18.0948 25.8333 21.0623 24.6042 23.2502 22.4162C25.4382 20.2283 26.6673 17.2609 26.6673 14.1667C26.6673 12.6346 26.3656 11.1175 25.7792 9.70203C25.1929 8.28656 24.3336 7.00044 23.2502 5.91709C22.1669 4.83374 20.8808 3.97438 19.4653 3.38807C18.0498 2.80177 16.5327 2.5 15.0007 2.5C13.4686 2.5 11.9515 2.80177 10.536 3.38807C9.12055 3.97438 7.83442 4.83374 6.75107 5.91709C5.66772 7.00044 4.80836 8.28656 4.22206 9.70203C3.63575 11.1175 3.33398 12.6346 3.33398 14.1667Z" fill="#FFAC33"/>
<path d="M7.95312 9.0468C7.95312 8.59264 8.39896 8.41097 8.39896 8.41097L14.964 5.32764L21.5915 8.41097C21.5915 8.41097 22.0481 8.51264 22.0481 9.05014V9.5843L7.95312 9.5843L7.95312 9.0468Z" fill="#FFE8B6"/>
<path d="M21.6081 10.6968C21.6081 10.2101 21.1873 9.81592 20.6689 9.81592L9.27477 9.81592C8.7556 9.81592 8.39393 10.2101 8.39393 10.6968C8.39393 11.0276 8.56393 11.3126 8.83477 11.4634V12.0184H10.5964V11.5776H12.3581V12.0184H14.1198V11.5776H15.8814V12.0184L17.6431 12.0184V11.5776H19.4048V12.0184H21.1673V11.4409C21.4314 11.2843 21.6081 11.0101 21.6081 10.6968ZM22.9289 20.0001C22.9289 20.3651 22.6331 20.6609 22.2681 20.6609H7.7331C7.3681 20.6609 7.07227 20.3651 7.07227 20.0001C7.07227 19.6351 7.3681 19.3393 7.7331 19.3393H22.2689C22.6331 19.3393 22.9289 19.6351 22.9289 20.0001Z" fill="#F4900C"/>
<path d="M22.047 10.1669C22.047 10.4102 21.8503 10.6077 21.6062 10.6077L8.392 10.6077C8.14867 10.6077 7.95117 10.4102 7.95117 10.1669C7.95117 9.92357 8.14867 9.72607 8.392 9.72607L21.6062 9.72857C21.8503 9.72941 22.047 9.92357 22.047 10.1669ZM10.1545 10.6786L19.8453 10.6786V11.6669L10.1545 11.6669V10.6786Z" fill="#F4900C"/>
<path d="M10.5945 17.3575C10.5945 17.8442 10.3312 18.2383 10.007 18.2383H9.41953C9.09536 18.2383 8.83203 17.8442 8.83203 17.3575V10.6792C8.83203 10.1925 9.09536 9.79834 9.41953 9.79834H10.007C10.3312 9.79834 10.5945 10.1925 10.5945 10.6792V17.3575ZM21.1662 17.3575C21.1662 17.8442 20.9037 18.2383 20.5787 18.2383H19.9912C19.667 18.2383 19.4037 17.8442 19.4037 17.3575V10.6792C19.4037 10.1925 19.6662 9.79834 19.9912 9.79834H20.5787C20.9029 9.79834 21.1662 10.1925 21.1662 10.6792V17.3575ZM14.1187 17.3575C14.1187 17.8442 13.8554 18.2383 13.5312 18.2383H12.9437C12.6195 18.2383 12.3562 17.8442 12.3562 17.3575V10.6792C12.3562 10.1925 12.6195 9.79834 12.9437 9.79834H13.5312C13.8554 9.79834 14.1187 10.1925 14.1187 10.6792V17.3575ZM17.642 17.3575C17.642 17.8442 17.3787 18.2383 17.0545 18.2383H16.4679C16.1437 18.2383 15.8804 17.8442 15.8804 17.3575V10.6792C15.8804 10.1925 16.1437 9.79834 16.4679 9.79834L17.0545 9.79834C17.3787 9.79834 17.642 10.1925 17.642 10.6792V17.3575Z" fill="#FFD983"/>
<path d="M21.6067 17.7973C21.6067 18.284 21.2126 18.6782 20.7259 18.6782H9.27341C8.78675 18.6782 8.39258 18.284 8.39258 17.7973C8.39258 17.3107 8.78675 16.9165 9.27341 16.9165H20.7259C21.2117 16.9165 21.6067 17.3107 21.6067 17.7973Z" fill="#FFCC4D"/>
<path d="M22.4884 18.6782C22.4884 19.1649 22.0942 19.559 21.6076 19.559H8.39255C7.90589 19.559 7.51172 19.1649 7.51172 18.6782C7.51172 18.1915 7.90589 17.7974 8.39255 17.7974H21.6067C22.0934 17.7974 22.4884 18.1915 22.4884 18.6782Z" fill="#FFD983"/>
<path d="M22.9289 19.3391C22.9289 19.7041 22.6331 19.9999 22.2681 19.9999H7.7331C7.3681 19.9999 7.07227 19.7041 7.07227 19.3391C7.07227 18.9741 7.3681 18.6782 7.7331 18.6782H22.2689C22.6331 18.6782 22.9289 18.9741 22.9289 19.3391Z" fill="#FFD983"/>
<path d="M21.6067 10.2383C21.6067 9.75159 21.1859 9.35742 20.6676 9.35742L9.27341 9.35742C8.75425 9.35742 8.39258 9.75159 8.39258 10.2383C8.39258 10.5691 8.56258 10.8541 8.83341 11.0049V11.5599H10.5951V11.1191H12.3567V11.5599H14.1184V11.1191H15.8801V11.5599H17.6417V11.1191H19.4034V11.5599H21.1659V10.9824C21.4301 10.8258 21.6067 10.5516 21.6067 10.2383Z" fill="#FFCC4D"/>
<path d="M7.95312 9.55266C7.95312 9.0985 8.39896 8.91683 8.39896 8.91683L14.964 5.8335L21.5915 8.91683C21.5915 8.91683 22.0481 9.0185 22.0481 9.556V9.7985L7.95312 9.7985V9.55266Z" fill="#FFD983"/>
<path d="M15.0005 6.95264C15.0005 6.95264 10.4546 9.09514 10.0013 9.28847C9.54715 9.48097 9.69881 9.79764 10.0021 9.79764L19.9771 9.79764C20.4455 9.79764 20.3346 9.44014 19.963 9.2468C19.5913 9.0543 15.0005 6.95264 15.0005 6.95264Z" fill="#FFAC33"/>
<path d="M22.047 9.79728C22.047 10.0406 21.8503 10.2381 21.6062 10.2381L8.392 10.2381C8.14867 10.2381 7.95117 10.0406 7.95117 9.79728C7.95117 9.55394 8.14867 9.35645 8.392 9.35645L21.6062 9.35895C21.8503 9.35978 22.047 9.55394 22.047 9.79728Z" fill="#FFD983"/>
</g>
<defs>
<clipPath id="clip0_3177_5783">
<rect width="30" height="30" fill="white"/>
</clipPath>
</defs>
</svg>
