<svg width="19" height="13" viewBox="0 0 19 13" fill="none" xmlns="http://www.w3.org/2000/svg">
<path d="M18.8677 3.15607L15.8517 0.132632C15.7669 0.0477035 15.6519 0 15.532 0C15.4121 0 15.2971 0.0477035 15.2123 0.132632L12.516 2.83559L9.8197 0.132632C9.73487 0.0477035 9.61989 0 9.5 0C9.38011 0 9.26513 0.0477035 9.1803 0.132632L6.484 2.83559L3.7877 0.132632C3.70287 0.0477035 3.58789 0 3.468 0C3.34811 0 3.23313 0.0477035 3.14831 0.132632L0.132306 3.15607C0.0475862 3.24111 0 3.35638 0 3.47656C0 3.59674 0.0475862 3.71201 0.132306 3.79704L3.14831 6.82049C3.23313 6.90541 3.34811 6.95312 3.468 6.95312C3.58789 6.95312 3.70287 6.90541 3.7877 6.82049L6.484 4.11753L8.86061 6.5L6.16431 9.20296C6.07959 9.28799 6.032 9.40326 6.032 9.52344C6.032 9.64362 6.07959 9.75889 6.16431 9.84393L9.1803 12.8674C9.26513 12.9523 9.38011 13 9.5 13C9.61989 13 9.73487 12.9523 9.8197 12.8674L12.8357 9.84393C12.9204 9.75889 12.968 9.64362 12.968 9.52344C12.968 9.40326 12.9204 9.28799 12.8357 9.20296L10.1394 6.5L12.516 4.11753L15.2123 6.82049C15.2971 6.90541 15.4121 6.95312 15.532 6.95312C15.6519 6.95312 15.7669 6.90541 15.8517 6.82049L18.8677 3.79704C18.9524 3.71201 19 3.59674 19 3.47656C19 3.35638 18.9524 3.24111 18.8677 3.15607ZM3.468 5.85827L1.09215 3.47656L3.468 1.09484L5.84385 3.47656L3.468 5.85827ZM9.5 11.9052L7.12415 9.52344L9.5 7.14173L11.8759 9.52344L9.5 11.9052ZM9.5 5.85827L7.12415 3.47656L9.5 1.09484L11.8759 3.47656L9.5 5.85827ZM15.532 5.85827L13.1561 3.47656L15.532 1.09484L17.9079 3.47656L15.532 5.85827Z" fill="black"/>
</svg>
