<svg width="17" height="15" viewBox="0 0 17 15" fill="none" xmlns="http://www.w3.org/2000/svg">
<path d="M14 14H2.625C2.19402 14 1.7807 13.8288 1.47595 13.524C1.1712 13.2193 1 12.806 1 12.375V2.625C1 2.19402 1.1712 1.7807 1.47595 1.47595C1.7807 1.1712 2.19402 1 2.625 1H10.75C11.181 1 11.5943 1.1712 11.899 1.47595C12.2038 1.7807 12.375 2.19402 12.375 2.625V3.4375M14 14C13.569 14 13.1557 13.8288 12.851 13.524C12.5462 13.2193 12.375 12.806 12.375 12.375V3.4375M14 14C14.431 14 14.8443 13.8288 15.149 13.524C15.4538 13.2193 15.625 12.806 15.625 12.375V5.0625C15.625 4.63152 15.4538 4.2182 15.149 3.91345C14.8443 3.6087 14.431 3.4375 14 3.4375H12.375M9.125 1H5.875M4.25 10.75H9.125M4.25 4.25H9.125V7.5H4.25V4.25Z" stroke="black" stroke-linecap="round" stroke-linejoin="round"/>
</svg>
