<svg width="19" height="38" viewBox="0 0 19 38" fill="none" xmlns="http://www.w3.org/2000/svg">
<path opacity="0.15" d="M1 36.8315C1 37.1414 1.90274 37.4386 3.50964 37.6577C5.11653 37.8768 7.29594 37.9999 9.56843 37.9999C11.8409 37.9999 14.0203 37.8768 15.6272 37.6577C17.2341 37.4386 18.1369 37.1414 18.1369 36.8315C18.1369 36.5216 17.2341 36.2244 15.6272 36.0053C14.0203 35.7862 11.8409 35.6631 9.56843 35.6631C7.29594 35.6631 5.11653 35.7862 3.50964 36.0053C1.90274 36.2244 1 36.5216 1 36.8315Z" fill="#45413C"/>
<path d="M9.56822 36.0527C8.49524 36.0527 7.43281 35.841 6.4418 35.4296C5.4508 35.0183 4.55069 34.4155 3.79307 33.6557C3.03545 32.8959 2.4352 31.9941 2.02672 31.0019C1.61824 30.0097 1.40956 28.9467 1.41263 27.8737V9.17896C1.40956 8.10599 1.61824 7.04295 2.02672 6.05077C2.4352 5.05859 3.03545 4.15677 3.79307 3.39697C4.55069 2.63718 5.4508 2.03435 6.4418 1.62304C7.43281 1.21172 8.49524 0.999996 9.56822 1C10.6412 0.999996 11.7036 1.21172 12.6946 1.62304C13.6856 2.03435 14.5857 2.63718 15.3434 3.39697C16.101 4.15677 16.7012 5.05859 17.1097 6.05077C17.5182 7.04295 17.7269 8.10599 17.7238 9.17896V27.8737C17.7269 28.9467 17.5182 30.0097 17.1097 31.0019C16.7012 31.9941 16.101 32.8959 15.3434 33.6557C14.5857 34.4155 13.6856 35.0183 12.6946 35.4296C11.7036 35.841 10.6412 36.0527 9.56822 36.0527Z" fill="#DAEDF7"/>
<path d="M9.56822 1C8.49524 0.999996 7.43281 1.21172 6.4418 1.62304C5.4508 2.03435 4.55069 2.63718 3.79307 3.39697C3.03545 4.15677 2.4352 5.05859 2.02672 6.05077C1.61824 7.04295 1.40956 8.10599 1.41263 9.17896V11.212C1.41263 9.04902 2.27188 6.97461 3.80135 5.44514C5.33082 3.91567 7.40522 3.05642 9.56822 3.05642C11.7312 3.05642 13.8056 3.91567 15.3351 5.44514C16.8646 6.97461 17.7238 9.04902 17.7238 11.212V9.17896C17.7269 8.10599 17.5182 7.04295 17.1097 6.05077C16.7012 5.05859 16.101 4.15677 15.3434 3.39697C14.5857 2.63718 13.6856 2.03435 12.6946 1.62304C11.7036 1.21172 10.6412 0.999996 9.56822 1Z" fill="white"/>
<path d="M9.56822 36.0527C8.49524 36.0527 7.43281 35.841 6.4418 35.4296C5.4508 35.0183 4.55069 34.4155 3.79307 33.6557C3.03545 32.8959 2.4352 31.9941 2.02672 31.0019C1.61824 30.0097 1.40956 28.9467 1.41263 27.8737V9.17896C1.40956 8.10599 1.61824 7.04295 2.02672 6.05077C2.4352 5.05859 3.03545 4.15677 3.79307 3.39697C4.55069 2.63718 5.4508 2.03435 6.4418 1.62304C7.43281 1.21172 8.49524 0.999996 9.56822 1C10.6412 0.999996 11.7036 1.21172 12.6946 1.62304C13.6856 2.03435 14.5857 2.63718 15.3434 3.39697C16.101 4.15677 16.7012 5.05859 17.1097 6.05077C17.5182 7.04295 17.7269 8.10599 17.7238 9.17896V27.8737C17.7269 28.9467 17.5182 30.0097 17.1097 31.0019C16.7012 31.9941 16.101 32.8959 15.3434 33.6557C14.5857 34.4155 13.6856 35.0183 12.6946 35.4296C11.7036 35.841 10.6412 36.0527 9.56822 36.0527Z" stroke="#45413C" stroke-linecap="round" stroke-linejoin="round"/>
<path d="M9.5684 34.0115C8.76343 34.0115 7.96638 33.8526 7.22298 33.5438C6.47958 33.2351 5.80446 32.7826 5.23634 32.2123C4.66823 31.642 4.21831 30.9652 3.91239 30.2206C3.60647 29.476 3.45058 28.6784 3.45366 27.8734V9.17864C3.45058 8.37368 3.60647 7.57603 3.91239 6.83145C4.21831 6.08688 4.66823 5.41003 5.23634 4.83975C5.80446 4.26946 6.47958 3.81697 7.22298 3.50821C7.96638 3.19946 8.76343 3.04052 9.5684 3.04053C10.3734 3.04052 11.1704 3.19946 11.9138 3.50821C12.6572 3.81697 13.3324 4.26946 13.9005 4.83975C14.4686 5.41003 14.9185 6.08688 15.2244 6.83145C15.5303 7.57603 15.6862 8.37368 15.6831 9.17864V27.8734C15.6862 28.6784 15.5303 29.476 15.2244 30.2206C14.9185 30.9652 14.4686 31.642 13.9005 32.2123C13.3324 32.7826 12.6572 33.2351 11.9138 33.5438C11.1704 33.8526 10.3734 34.0115 9.5684 34.0115Z" fill="#87898C"/>
<path d="M9.5684 3.04053C8.76343 3.04052 7.96638 3.19946 7.22298 3.50821C6.47958 3.81697 5.80446 4.26946 5.23634 4.83975C4.66823 5.41003 4.21831 6.08688 3.91239 6.83145C3.60647 7.57603 3.45058 8.37368 3.45366 9.17864V11.3207C3.45366 9.69902 4.09789 8.14371 5.24463 6.99697C6.39136 5.85023 7.94667 5.206 9.5684 5.206C11.1901 5.206 12.7454 5.85023 13.8922 6.99697C15.0389 8.14371 15.6831 9.69902 15.6831 11.3207V9.17864C15.6862 8.37368 15.5303 7.57603 15.2244 6.83145C14.9185 6.08688 14.4686 5.41003 13.9005 4.83975C13.3324 4.26946 12.6572 3.81697 11.9138 3.50821C11.1704 3.19946 10.3734 3.04052 9.5684 3.04053Z" fill="#656769"/>
<path d="M9.5684 34.0115C8.76343 34.0115 7.96638 33.8526 7.22298 33.5438C6.47958 33.2351 5.80446 32.7826 5.23634 32.2123C4.66823 31.642 4.21831 30.9652 3.91239 30.2206C3.60647 29.476 3.45058 28.6784 3.45366 27.8734V9.17864C3.45058 8.37368 3.60647 7.57603 3.91239 6.83145C4.21831 6.08688 4.66823 5.41003 5.23634 4.83975C5.80446 4.26946 6.47958 3.81697 7.22298 3.50821C7.96638 3.19946 8.76343 3.04052 9.5684 3.04053C10.3734 3.04052 11.1704 3.19946 11.9138 3.50821C12.6572 3.81697 13.3324 4.26946 13.9005 4.83975C14.4686 5.41003 14.9185 6.08688 15.2244 6.83145C15.5303 7.57603 15.6862 8.37368 15.6831 9.17864V27.8734C15.6862 28.6784 15.5303 29.476 15.2244 30.2206C14.9185 30.9652 14.4686 31.642 13.9005 32.2123C13.3324 32.7826 12.6572 33.2351 11.9138 33.5438C11.1704 33.8526 10.3734 34.0115 9.5684 34.0115Z" stroke="#45413C" stroke-linecap="round" stroke-linejoin="round"/>
<path d="M6.06299 18.9159C6.06299 19.8456 6.43229 20.7371 7.08966 21.3945C7.74702 22.0519 8.6386 22.4212 9.56826 22.4212C10.4979 22.4212 11.3895 22.0519 12.0469 21.3945C12.7042 20.7371 13.0735 19.8456 13.0735 18.9159C13.0735 17.9863 12.7042 17.0947 12.0469 16.4373C11.3895 15.7799 10.4979 15.4106 9.56826 15.4106C8.6386 15.4106 7.74702 15.7799 7.08966 16.4373C6.43229 17.0947 6.06299 17.9863 6.06299 18.9159Z" fill="#FFE500"/>
<path d="M9.56845 15.4107C8.77067 15.4064 7.99541 15.675 7.37128 16.1719C6.74714 16.6689 6.31165 17.3642 6.13704 18.1427C5.96244 18.9211 6.05922 19.7359 6.41132 20.4517C6.76343 21.1676 7.3497 21.7416 8.07287 22.0785L11.9676 16.3844C11.3219 15.7648 10.4633 15.4164 9.56845 15.4107Z" fill="#FFF48C"/>
<path d="M6.06299 9.9579C6.06299 10.8876 6.43229 11.7791 7.08966 12.4365C7.74702 13.0939 8.6386 13.4632 9.56826 13.4632C10.4979 13.4632 11.3895 13.0939 12.0469 12.4365C12.7042 11.7791 13.0735 10.8876 13.0735 9.9579C13.0735 9.02825 12.7042 8.13667 12.0469 7.47931C11.3895 6.82194 10.4979 6.45264 9.56826 6.45264C8.6386 6.45264 7.74702 6.82194 7.08966 7.47931C6.43229 8.13667 6.06299 9.02825 6.06299 9.9579Z" fill="#6DD627"/>
<path d="M9.56845 6.45269C8.77067 6.44842 7.99541 6.71702 7.37128 7.21393C6.74714 7.71085 6.31165 8.40621 6.13704 9.18465C5.96244 9.9631 6.05922 10.7778 6.41132 11.4937C6.76343 12.2096 7.3497 12.7836 8.07287 13.1205L11.9676 7.42637C11.3219 6.80684 10.4633 6.45838 9.56845 6.45269Z" fill="#9CEB60"/>
<path d="M6.06299 27.8739C6.06299 28.8036 6.43229 29.6952 7.08966 30.3525C7.74702 31.0099 8.6386 31.3792 9.56826 31.3792C10.4979 31.3792 11.3895 31.0099 12.0469 30.3525C12.7042 29.6952 13.0735 28.8036 13.0735 27.8739C13.0735 26.9443 12.7042 26.0527 12.0469 25.3953C11.3895 24.738 10.4979 24.3687 9.56826 24.3687C8.6386 24.3687 7.74702 24.738 7.08966 25.3953C6.43229 26.0527 6.06299 26.9443 6.06299 27.8739Z" fill="#FF6242"/>
<path d="M9.56845 24.3682C8.77067 24.3639 7.99541 24.6325 7.37128 25.1295C6.74714 25.6264 6.31165 26.3217 6.13704 27.1002C5.96244 27.8786 6.05922 28.6934 6.41132 29.4093C6.76343 30.1251 7.3497 30.6991 8.07287 31.036L11.9676 25.3419C11.3219 24.7224 10.4633 24.3739 9.56845 24.3682Z" fill="#FF866E"/>
<path d="M6.06299 18.9159C6.06299 19.8456 6.43229 20.7371 7.08966 21.3945C7.74702 22.0519 8.6386 22.4212 9.56826 22.4212C10.4979 22.4212 11.3895 22.0519 12.0469 21.3945C12.7042 20.7371 13.0735 19.8456 13.0735 18.9159C13.0735 17.9863 12.7042 17.0947 12.0469 16.4373C11.3895 15.7799 10.4979 15.4106 9.56826 15.4106C8.6386 15.4106 7.74702 15.7799 7.08966 16.4373C6.43229 17.0947 6.06299 17.9863 6.06299 18.9159Z" stroke="#45413C" stroke-linecap="round" stroke-linejoin="round"/>
<path d="M6.06299 9.9579C6.06299 10.8876 6.43229 11.7791 7.08966 12.4365C7.74702 13.0939 8.6386 13.4632 9.56826 13.4632C10.4979 13.4632 11.3895 13.0939 12.0469 12.4365C12.7042 11.7791 13.0735 10.8876 13.0735 9.9579C13.0735 9.02825 12.7042 8.13667 12.0469 7.47931C11.3895 6.82194 10.4979 6.45264 9.56826 6.45264C8.6386 6.45264 7.74702 6.82194 7.08966 7.47931C6.43229 8.13667 6.06299 9.02825 6.06299 9.9579Z" stroke="#45413C" stroke-linecap="round" stroke-linejoin="round"/>
<path d="M6.06299 27.8739C6.06299 28.8036 6.43229 29.6952 7.08966 30.3525C7.74702 31.0099 8.6386 31.3792 9.56826 31.3792C10.4979 31.3792 11.3895 31.0099 12.0469 30.3525C12.7042 29.6952 13.0735 28.8036 13.0735 27.8739C13.0735 26.9443 12.7042 26.0527 12.0469 25.3953C11.3895 24.738 10.4979 24.3687 9.56826 24.3687C8.6386 24.3687 7.74702 24.738 7.08966 25.3953C6.43229 26.0527 6.06299 26.9443 6.06299 27.8739Z" stroke="#45413C" stroke-linecap="round" stroke-linejoin="round"/>
<path d="M13.4633 27.6399C13.4633 29.7898 12.8324 25.6925 9.56857 25.6925C6.30478 25.6925 5.67383 29.7898 5.67383 27.6399C5.67383 26.6069 6.08417 25.6163 6.81457 24.8859C7.54498 24.1555 8.53562 23.7451 9.56857 23.7451C10.6015 23.7451 11.5922 24.1555 12.3226 24.8859C13.053 25.6163 13.4633 26.6069 13.4633 27.6399Z" fill="#BDBEC0" stroke="#45413C" stroke-linecap="round" stroke-linejoin="round"/>
<path d="M13.4633 18.6819C13.4633 20.8317 12.8324 16.7345 9.56857 16.7345C6.30478 16.7345 5.67383 20.8629 5.67383 18.6819C5.67383 17.6489 6.08417 16.6583 6.81457 15.9279C7.54498 15.1974 8.53562 14.7871 9.56857 14.7871C10.6015 14.7871 11.5922 15.1974 12.3226 15.9279C13.053 16.6583 13.4633 17.6489 13.4633 18.6819Z" fill="#BDBEC0" stroke="#45413C" stroke-linecap="round" stroke-linejoin="round"/>
<path d="M13.4633 9.72433C13.4633 11.8742 12.8324 7.77696 9.56857 7.77696C6.30478 7.77696 5.67383 11.8742 5.67383 9.72433C5.67383 8.69138 6.08417 7.70074 6.81457 6.97033C7.54498 6.23993 8.53562 5.82959 9.56857 5.82959C10.6015 5.82959 11.5922 6.23993 12.3226 6.97033C13.053 7.70074 13.4633 8.69138 13.4633 9.72433Z" fill="#BDBEC0" stroke="#45413C" stroke-linecap="round" stroke-linejoin="round"/>
</svg>
