<svg width="37" height="32" viewBox="0 0 37 32" fill="none" xmlns="http://www.w3.org/2000/svg">
<path d="M31.7968 17.4016L36.1327 21.6797L16.8812 30.8719C16.8812 30.8719 14.3375 32.0282 13.1234 30.1782C8.3828 22.7782 31.7968 17.4016 31.7968 17.4016Z" fill="#962C2C"/>
<path d="M16.4181 25.4952C16.4181 25.4952 12.7181 26.7671 13.4118 29.253C14.1056 31.7968 17.054 30.2358 17.054 30.2358L35.3227 21.7374C35.3227 21.7374 34.2821 19.0202 36.1321 17.228L16.4181 25.4952Z" fill="#D9E3E8"/>
<path d="M19.4828 0L36.9999 17.0547L16.3032 25.1484L3.00635 4.45156L19.4828 0Z" fill="#FFCE31"/>
<path d="M20.0029 3.87354L23.356 7.45791L10.8107 11.9673L7.8623 7.40009L20.0029 3.87354Z" fill="white"/>
<path d="M35.2656 19.0782L23.0673 24.05L35.0922 18.5579L35.2656 19.0782ZM35.0922 20.5813L22.0845 25.9579L34.861 20.0032L35.0922 20.5813ZM35.2078 21.3907L18.6157 28.6172L34.9766 20.8704L35.2078 21.3907Z" fill="#94989B"/>
<path d="M13.1234 30.178C11.0999 25.9577 16.3031 25.2062 16.3031 25.2062L3.00624 4.45149C3.00624 4.45149 0 4.39368 0 7.51555C0 8.78742 0.578122 9.77023 0.578122 9.77023L13.1234 30.178Z" fill="#FF8736"/>
</svg>
