<svg width="38" height="37" viewBox="0 0 38 37" fill="none" xmlns="http://www.w3.org/2000/svg">
<path d="M20.4727 0.0163574L0.5 9.80797V27.336L17.1346 36.9673L37.1073 25.8339V8.30585L20.4727 0.0163574Z" fill="url(#paint0_linear_1092_9972)"/>
<path d="M10.4456 19.2755L7.17303 17.5771C6.53488 17.2465 5.91636 17.5018 5.81163 18.1825C5.684 18.8861 6.13562 19.6944 6.80978 20.0708L10.2918 21.8936C10.4849 21.9852 10.6845 22.0311 10.8645 22.0278C11.29 22.0082 11.578 21.7005 11.5976 21.1998C11.6401 20.4897 11.1362 19.6584 10.4456 19.2755Z" fill="#593E37"/>
<path d="M10.6187 18.1074L7.23486 16.2911V13.2051L10.5566 14.8577L10.6187 18.1074Z" fill="#A17F69"/>
<path d="M10.3962 33.0336L7.23486 31.2009V27.4963L10.3962 29.3814V33.0336Z" fill="#A17F69"/>
<path d="M0.5 9.80797L17.1641 18.0844L37.1073 8.15204L20.4727 0.0163574L0.5 9.80797Z" fill="#FFE082"/>
<path d="M30.307 4.83366L27.0508 3.21045L7.26465 13.205L10.5569 14.8576L30.307 4.83366Z" fill="#C99470"/>
<path d="M17.1641 18.0844V37.0001L37.1073 25.8339V8.30591L17.1641 18.0844Z" fill="url(#paint1_linear_1092_9972)"/>
<path opacity="0.2" d="M20.4759 1.09305L36.1288 8.75093V25.2448L17.187 35.848L1.48178 26.7535V10.4036L20.4759 1.09305ZM20.4727 0L0.5 9.79162V27.3197L17.1346 36.9509L17.1641 36.9345V36.9836L37.1073 25.8175V8.28949L36.9535 8.21422L37.1073 8.13895L20.4727 0Z" fill="#444444"/>
<defs>
<linearGradient id="paint0_linear_1092_9972" x1="18.8036" y1="-0.530167" x2="18.8036" y2="36.64" gradientUnits="userSpaceOnUse">
<stop offset="0.0059391" stop-color="#FFE2B8"/>
<stop offset="0.9219" stop-color="#FFA726"/>
</linearGradient>
<linearGradient id="paint1_linear_1092_9972" x1="27.1353" y1="16.0783" x2="27.1353" y2="34.5914" gradientUnits="userSpaceOnUse">
<stop offset="0.011" stop-color="#FFAF39"/>
<stop offset="0.927" stop-color="#DE8400"/>
</linearGradient>
</defs>
</svg>
