<svg width="32" height="37" viewBox="0 0 32 37" fill="none" xmlns="http://www.w3.org/2000/svg">
<path d="M26.5721 23.3667C26.186 22.6655 26.6771 21.952 27.5173 21.0687C28.8485 19.6664 30.2971 16.414 28.9504 13.1122C28.9597 13.0937 28.6848 12.5377 28.694 12.5192L28.1412 12.4914C27.9651 12.4667 21.8835 12.4543 15.7957 12.4543C9.70793 12.4543 3.62941 12.4667 3.45027 12.4914C3.45027 12.4914 2.63177 13.0937 2.63794 13.1122C1.29437 16.414 2.73987 19.6664 4.07109 21.0687C4.90812 21.952 5.39922 22.6655 5.01623 23.3667C4.6425 24.0493 3.53057 24.1481 3.53057 24.1481C3.53057 24.1481 3.78693 24.8461 4.40467 25.223C4.97607 25.572 5.68029 25.6523 6.16522 25.6646C6.16522 25.6646 8.06475 28.2931 13.0314 28.2931H15.7957H18.5601C23.5267 28.2931 25.4262 25.6646 25.4262 25.6646C25.9111 25.6523 26.6154 25.572 27.1868 25.223C27.8045 24.8461 28.0609 24.1481 28.0609 24.1481C28.0609 24.1481 26.9459 24.0493 26.5721 23.3667Z" fill="#FFE13B"/>
<path d="M15.7896 28.29V25.3743L24.6139 24.6763L25.417 25.6646C25.417 25.6646 23.5174 28.2931 18.5508 28.2931L15.7896 28.29Z" fill="url(#paint0_radial_1092_9904)"/>
<path d="M25.3982 24.3891C24.0762 22.3814 27.0074 21.6309 27.0074 21.6309L27.0104 21.6339C26.5008 22.2671 26.2692 22.82 26.5688 23.3667C26.9425 24.0493 28.0544 24.1481 28.0544 24.1481C28.0544 24.1481 26.5379 25.4948 25.3982 24.3891Z" fill="url(#paint1_radial_1092_9904)"/>
<path d="M28.9566 13.1122C30.2693 16.309 28.8887 19.6015 27.5945 20.9914C27.4154 21.1829 26.6648 21.9211 26.4918 22.5111C26.4918 22.5111 23.5452 18.4 22.665 15.9847C22.4858 15.4967 22.3252 14.9963 22.3036 14.4774C22.2881 14.0882 22.3468 13.6249 22.5723 13.2975C22.8472 12.8929 28.7991 12.7725 28.7991 12.7725L28.9566 13.1122Z" fill="url(#paint2_radial_1092_9904)"/>
<path d="M2.63447 13.1121C1.32487 16.3089 2.70551 19.6014 3.99658 20.9883C4.17572 21.1798 4.92627 21.918 5.09924 22.5079C5.09924 22.5079 8.04584 18.3969 8.92611 15.9815C9.10526 15.4935 9.26587 14.9931 9.28749 14.4742C9.30293 14.0851 9.24425 13.6218 9.01877 13.2944C8.74388 12.8897 8.42266 12.9978 7.95627 12.9978C7.06673 12.9978 3.1719 12.7693 2.86921 12.7693C2.8723 12.7724 2.63447 13.1121 2.63447 13.1121Z" fill="url(#paint3_radial_1092_9904)"/>
<path d="M15.8017 28.29V25.3743L6.97737 24.6763L6.17432 25.6646C6.17432 25.6646 8.07385 28.2931 13.0405 28.2931L15.8017 28.29Z" fill="url(#paint4_radial_1092_9904)"/>
<path d="M6.19582 24.3891C7.51777 22.3814 4.58661 21.6309 4.58661 21.6309L4.58352 21.6339C5.09316 22.2671 5.32481 22.82 5.02521 23.3667C4.65148 24.0493 3.53955 24.1481 3.53955 24.1481C3.53955 24.1481 5.053 25.4948 6.19582 24.3891Z" fill="url(#paint5_radial_1092_9904)"/>
<path d="M15.8326 27.947C15.8202 27.947 15.8048 27.947 15.7924 27.947C7.91938 27.9563 0 30.2635 0 35.7552V36.9999H0.463302H0.926604H30.6613H31.1246H31.5879V35.7552C31.5848 30.5786 23.7396 27.947 15.8326 27.947Z" fill="url(#paint6_linear_1092_9904)"/>
<path d="M15.7923 26.5264H12.9878V29.6089C12.9878 31.0019 14.1306 32.1323 15.539 32.1323H16.0487C17.4571 32.1323 18.5999 31.0019 18.5999 29.6089V26.5264H15.7923Z" fill="#E59600"/>
<path d="M24.2337 14.2795H21.9573H9.6273H7.35094C5.53171 14.2795 4.04297 15.8671 4.04297 17.8037C4.04297 19.7403 5.53171 21.3279 7.35094 21.3279H9.6273H21.9542H24.2306C26.0498 21.3279 27.5386 19.7403 27.5386 17.8037C27.5386 15.8671 26.0529 14.2795 24.2337 14.2795Z" fill="#E59600"/>
<path d="M15.7922 2.12256C10.4179 2.12256 5.43896 7.87059 5.43896 16.1421C5.43896 24.3703 10.5693 28.4381 15.7922 28.4381C21.0152 28.4381 26.1455 24.3703 26.1455 16.1421C26.1455 7.87059 21.1665 2.12256 15.7922 2.12256Z" fill="#FFCA28"/>
<path d="M12.9511 14.0913C12.6638 13.7114 12.0028 13.1616 10.7179 13.1616C9.43304 13.1616 8.76898 13.7145 8.48482 14.0913C8.35818 14.2581 8.38907 14.4527 8.47864 14.5701C8.55895 14.6782 8.79987 14.7801 9.06549 14.6905C9.33112 14.6009 9.85002 14.3322 10.7179 14.3261C11.5859 14.3322 12.1048 14.6009 12.3704 14.6905C12.636 14.7801 12.8769 14.6813 12.9572 14.5701C13.0437 14.4527 13.0777 14.2581 12.9511 14.0913Z" fill="#F09300"/>
<path d="M23.1034 14.0913C22.8161 13.7114 22.1552 13.1616 20.8703 13.1616C19.5854 13.1616 18.9213 13.7145 18.6372 14.0913C18.5105 14.2581 18.5414 14.4527 18.631 14.5701C18.7113 14.6782 18.9522 14.7801 19.2178 14.6905C19.4835 14.6009 20.0024 14.3322 20.8703 14.3261C21.7382 14.3322 22.2571 14.6009 22.5227 14.6905C22.7883 14.7801 23.0293 14.6813 23.1096 14.5701C23.1961 14.4527 23.23 14.2581 23.1034 14.0913Z" fill="#F09300"/>
<path d="M20.8704 18.4432C21.7114 18.4432 22.3931 17.7379 22.3931 16.868C22.3931 15.998 21.7114 15.2927 20.8704 15.2927C20.0294 15.2927 19.3477 15.998 19.3477 16.868C19.3477 17.7379 20.0294 18.4432 20.8704 18.4432Z" fill="#404040"/>
<path d="M10.7146 18.4432C11.5556 18.4432 12.2373 17.7379 12.2373 16.868C12.2373 15.998 11.5556 15.2927 10.7146 15.2927C9.87364 15.2927 9.19189 15.998 9.19189 16.868C9.19189 17.7379 9.87364 18.4432 10.7146 18.4432Z" fill="#404040"/>
<path d="M16.985 19.7249C16.951 19.7125 16.9202 19.7033 16.8862 19.7002H14.7025C14.6685 19.7033 14.6345 19.7125 14.6036 19.7249C14.406 19.8052 14.2979 20.0091 14.3905 20.2284C14.4832 20.4477 14.9187 21.0592 15.7959 21.0592C16.6731 21.0592 17.1086 20.4446 17.2012 20.2284C17.2908 20.0091 17.1827 19.8052 16.985 19.7249Z" fill="#E59600"/>
<path d="M18.3931 22.2206C17.4078 22.8043 14.1832 22.8043 13.201 22.2206C12.6358 21.8839 12.0582 22.3997 12.2929 22.9124C12.5246 23.4159 14.2851 24.5865 15.8048 24.5865C17.3244 24.5865 19.0633 23.4159 19.295 22.9124C19.5266 22.3997 18.9583 21.8839 18.3931 22.2206Z" fill="#795548"/>
<path d="M28.1691 6.45913C27.4154 5.31632 25.7259 3.79051 24.2094 3.68858C23.9654 2.23073 22.4056 0.995255 20.8952 0.51651C16.8089 -0.777647 14.1495 0.674032 12.7226 1.45547C12.4261 1.61917 10.508 2.68167 9.1675 1.91877C8.32738 1.44002 8.34283 0.145868 8.34283 0.145868C8.34283 0.145868 5.70818 1.14969 6.61008 3.94186C5.7051 3.97892 4.51904 4.36192 3.89204 5.63136C3.14458 7.14482 3.41021 8.40809 3.62641 9.01347C2.84807 9.67445 1.86895 11.0798 2.5392 12.9052C3.04574 14.2797 5.06265 14.9128 5.06265 14.9128C4.92057 17.3869 5.38078 18.9096 5.62479 19.5273C5.66803 19.6354 5.81938 19.6262 5.84717 19.515C6.15295 18.2919 7.19693 14.0171 7.09191 13.2728C7.09191 13.2728 10.5976 12.5778 13.9395 10.1161C14.619 9.61576 15.3572 9.18952 16.1417 8.87448C20.3393 7.2035 21.2195 10.0544 21.2195 10.0544C21.2195 10.0544 24.1291 9.4953 25.0063 13.5353C25.3367 15.0487 25.5622 17.4734 25.7475 19.1691C25.7599 19.2895 25.9236 19.3142 25.973 19.203C26.2664 18.5297 26.8533 17.1954 26.9923 15.8333C27.0417 15.3545 28.3328 14.7213 28.8887 12.6643C29.6269 9.92154 28.7158 7.28381 28.1691 6.45913Z" fill="#FFE13B"/>
<path d="M26.9795 15.8456C27.0289 15.3669 28.32 14.7337 28.8759 12.6766C28.9346 12.4573 28.984 12.235 29.0304 12.0126C29.4813 9.51382 28.6721 7.21893 28.1686 6.45912C27.4706 5.40279 25.9757 4.02215 24.5549 3.73799C24.4313 3.72255 24.3109 3.70711 24.1966 3.70093C24.1966 3.70093 24.2985 4.36499 24.0298 4.89316C23.6839 5.57885 22.9766 5.74255 22.9766 5.74255C26.6768 9.44278 26.4112 12.5376 26.9795 15.8456Z" fill="url(#paint7_radial_1092_9904)"/>
<path d="M13.6147 0.985958C13.2781 1.14966 12.9785 1.31336 12.7221 1.45235C12.4256 1.61605 10.5075 2.67855 9.16703 1.91565C8.34235 1.44617 8.34235 0.192167 8.34235 0.148926C7.96244 0.633849 6.81345 4.09626 10.1739 4.32791C11.6225 4.42675 12.5152 3.16348 13.0464 2.09479C13.2348 1.70253 13.5344 1.1373 13.6147 0.985958Z" fill="url(#paint8_radial_1092_9904)"/>
<path d="M20.4751 0.392861C22.736 1.00442 23.8386 2.1565 24.2062 3.69157C24.3143 4.14252 24.444 8.3493 16.4134 3.56802C13.4267 1.78894 14.2421 0.67702 14.5911 0.550384C15.9563 0.0561948 17.9423 -0.292826 20.4751 0.392861Z" fill="url(#paint9_radial_1092_9904)"/>
<path d="M8.32991 0.149C8.32682 0.152088 8.32064 0.152088 8.31137 0.155177C8.31137 0.155177 8.31137 0.155177 8.30828 0.155177C8.02104 0.275635 5.76321 1.3227 6.60642 3.9419L9.00941 4.32798C6.88131 2.17208 8.33917 0.142822 8.33917 0.142822C8.33917 0.142822 8.33299 0.145911 8.32991 0.149Z" fill="url(#paint10_radial_1092_9904)"/>
<path d="M8.09246 4.17972L6.6068 3.94189C6.54812 3.94189 6.35044 3.96043 6.24234 3.97587C5.4053 4.09324 4.42002 4.52566 3.88567 5.6314C3.31118 6.82363 3.32662 7.84599 3.48415 8.52858C3.53048 8.75715 3.62314 9.0166 3.62314 9.0166C3.62314 9.0166 4.35824 8.31855 6.10952 8.27222L8.09246 4.17972Z" fill="url(#paint11_radial_1092_9904)"/>
<path d="M3.55189 9.07519C2.81987 9.72381 1.83458 11.1724 2.56042 12.97C3.1102 14.3259 5.05916 14.9128 5.05916 14.9128C5.05916 14.919 5.44833 15.0333 5.6491 15.0333L6.10622 8.26904C5.17035 8.26904 4.27155 8.55011 3.69088 8.95473C3.70014 8.96708 3.5488 9.06592 3.55189 9.07519Z" fill="url(#paint12_radial_1092_9904)"/>
<defs>
<radialGradient id="paint0_radial_1092_9904" cx="0" cy="0" r="1" gradientUnits="userSpaceOnUse" gradientTransform="translate(20.2968 24.077) scale(7.23338 3.55304)">
<stop offset="0.6985" stop-color="#FFEE58" stop-opacity="0"/>
<stop offset="1" stop-color="#FFEE58"/>
</radialGradient>
<radialGradient id="paint1_radial_1092_9904" cx="0" cy="0" r="1" gradientUnits="userSpaceOnUse" gradientTransform="translate(27.4216 23.0008) rotate(154.924) scale(2.13754 1.58575)">
<stop offset="0.4179" stop-color="#FFEE58"/>
<stop offset="1" stop-color="#FFEE58" stop-opacity="0"/>
</radialGradient>
<radialGradient id="paint2_radial_1092_9904" cx="0" cy="0" r="1" gradientUnits="userSpaceOnUse" gradientTransform="translate(22.544 18.5335) rotate(-94.2783) scale(9.38921 7.8253)">
<stop offset="0.6985" stop-color="#FFEE58" stop-opacity="0"/>
<stop offset="1" stop-color="#FFEE58"/>
</radialGradient>
<radialGradient id="paint3_radial_1092_9904" cx="0" cy="0" r="1" gradientUnits="userSpaceOnUse" gradientTransform="translate(9.11536 17.9397) rotate(-85.7217) scale(9.38921 7.8253)">
<stop offset="0.6985" stop-color="#FFEE58" stop-opacity="0"/>
<stop offset="1" stop-color="#FFEE58"/>
</radialGradient>
<radialGradient id="paint4_radial_1092_9904" cx="0" cy="0" r="1" gradientUnits="userSpaceOnUse" gradientTransform="translate(11.2951 24.077) rotate(180) scale(7.23338 3.55304)">
<stop offset="0.6985" stop-color="#FFEE58" stop-opacity="0"/>
<stop offset="1" stop-color="#FFEE58"/>
</radialGradient>
<radialGradient id="paint5_radial_1092_9904" cx="0" cy="0" r="1" gradientUnits="userSpaceOnUse" gradientTransform="translate(4.34736 23.1019) rotate(25.0761) scale(2.13754 1.58575)">
<stop offset="0.4179" stop-color="#FFEE58"/>
<stop offset="1" stop-color="#FFEE58" stop-opacity="0"/>
</radialGradient>
<linearGradient id="paint6_linear_1092_9904" x1="15.7924" y1="27.8971" x2="15.7924" y2="36.6033" gradientUnits="userSpaceOnUse">
<stop stop-color="#F78C1F"/>
<stop offset="0.4936" stop-color="#F37F20"/>
<stop offset="1" stop-color="#ED6D23"/>
</linearGradient>
<radialGradient id="paint7_radial_1092_9904" cx="0" cy="0" r="1" gradientUnits="userSpaceOnUse" gradientTransform="translate(21.3573 12.0007) rotate(72.0851) scale(11.0057 8.16593)">
<stop offset="0.6985" stop-color="#FFEE58" stop-opacity="0"/>
<stop offset="1" stop-color="#FFEE58"/>
</radialGradient>
<radialGradient id="paint8_radial_1092_9904" cx="0" cy="0" r="1" gradientUnits="userSpaceOnUse" gradientTransform="translate(10.6282 0.00117734) rotate(28.2026) scale(2.88569 3.42158)">
<stop offset="0.58" stop-color="#FFEE58"/>
<stop offset="1" stop-color="#FFEE58" stop-opacity="0"/>
</radialGradient>
<radialGradient id="paint9_radial_1092_9904" cx="0" cy="0" r="1" gradientUnits="userSpaceOnUse" gradientTransform="translate(17.0778 5.24178) rotate(-157.19) scale(9.02502 5.0721)">
<stop offset="0.6985" stop-color="#FFEE58" stop-opacity="0"/>
<stop offset="1" stop-color="#FFEE58"/>
</radialGradient>
<radialGradient id="paint10_radial_1092_9904" cx="0" cy="0" r="1" gradientUnits="userSpaceOnUse" gradientTransform="translate(9.46926 2.63372) scale(2.6487 3.24015)">
<stop offset="0.7016" stop-color="#FFEE58" stop-opacity="0"/>
<stop offset="1" stop-color="#FFEE58"/>
</radialGradient>
<radialGradient id="paint11_radial_1092_9904" cx="0" cy="0" r="1" gradientUnits="userSpaceOnUse" gradientTransform="translate(9.10498 7.30913) rotate(-164.942) scale(4.96783 4.64899)">
<stop offset="0.6985" stop-color="#FFEE58" stop-opacity="0"/>
<stop offset="1" stop-color="#FFEE58"/>
</radialGradient>
<radialGradient id="paint12_radial_1092_9904" cx="0" cy="0" r="1" gradientUnits="userSpaceOnUse" gradientTransform="translate(7.92737 12.1053) rotate(7.83355) scale(5.21559 7.32876)">
<stop offset="0.6985" stop-color="#FFEE58" stop-opacity="0"/>
<stop offset="1" stop-color="#FFEE58"/>
</radialGradient>
</defs>
</svg>
