<svg width="38" height="37" viewBox="0 0 38 37" fill="none" xmlns="http://www.w3.org/2000/svg">
<path d="M2.16441 23.741C2.26654 23.741 2.34933 23.3547 2.34933 22.8781C2.34933 22.4015 2.26654 22.0151 2.16441 22.0151C2.06228 22.0151 1.97949 22.4015 1.97949 22.8781C1.97949 23.3547 2.06228 23.741 2.16441 23.741Z" fill="#B2C1C0"/>
<path d="M6.72553 26.1467L0.5 20.6584V14.4301L6.72553 9.00342V26.1467Z" fill="#B2C1C0"/>
<path d="M17.5738 35.8901C17.5738 36.5067 17.0807 37.0001 16.5259 37.0001H14.4302C13.8754 37.0001 13.3823 36.5067 13.3823 35.8901V26.5167C13.3823 25.9001 13.8754 25.4067 14.4302 25.4067H16.5259C17.0807 25.4067 17.5738 25.9001 17.5738 26.5167V35.8901Z" fill="#3E4347"/>
<path d="M33.7852 35.2115C34.9426 35.2115 35.8809 32.8924 35.8809 30.0316C35.8809 27.1707 34.9426 24.8516 33.7852 24.8516C32.6277 24.8516 31.6895 27.1707 31.6895 30.0316C31.6895 32.8924 32.6277 35.2115 33.7852 35.2115Z" fill="#3E4347"/>
<path d="M31.6895 35.2115C32.8469 35.2115 33.7852 32.8924 33.7852 30.0316C33.7852 27.1707 32.8469 24.8516 31.6895 24.8516C30.532 24.8516 29.5938 27.1707 29.5938 30.0316C29.5938 32.8924 30.532 35.2115 31.6895 35.2115Z" fill="#3E4347"/>
<path d="M31.4426 30.0315H34.0314V35.2115H31.4426V30.0315ZM6.04736 22.5698H7.58834V28.3665H6.04736V22.5698Z" fill="#3E4347"/>
<path d="M7.65034 28.305C7.92268 28.305 8.14345 27.0073 8.14345 25.4066C8.14345 23.8059 7.92268 22.5083 7.65034 22.5083C7.378 22.5083 7.15723 23.8059 7.15723 25.4066C7.15723 27.0073 7.378 28.305 7.65034 28.305Z" fill="#3E4347"/>
<path d="M6.04743 28.305C6.35381 28.305 6.60218 27.0073 6.60218 25.4066C6.60218 23.8059 6.35381 22.5083 6.04743 22.5083C5.74105 22.5083 5.49268 23.8059 5.49268 25.4066C5.49268 27.0073 5.74105 28.305 6.04743 28.305Z" fill="#3E4347"/>
<path d="M6.04734 27.1335C6.18351 27.1335 6.29389 26.3605 6.29389 25.4068C6.29389 24.4532 6.18351 23.6802 6.04734 23.6802C5.91117 23.6802 5.80078 24.4532 5.80078 25.4068C5.80078 26.3605 5.91117 27.1335 6.04734 27.1335Z" fill="#B2C1C0"/>
<path d="M23.8609 0C23.7376 0 23.6143 -5.97287e-08 23.4911 0.0616665C23.3678 0.308333 23.3062 0.554999 23.3062 0.863332C23.3062 1.04833 23.3678 1.295 23.4294 1.48C23.676 1.48 23.8609 1.54166 23.8609 1.78833V8.13999H24.9088V1.17167C24.9088 0.493333 24.4157 0 23.8609 0Z" fill="#B2C1C0"/>
<path d="M35.7577 22.3849C35.4495 22.0765 34.34 21.5215 34.34 21.5215C34.34 21.5215 34.0318 18.4382 33.477 17.7599C32.9223 17.0815 29.039 16.3415 28.2377 14.4299C27.4364 12.5182 27.1282 11.0999 27.1282 11.0999C27.1282 11.0999 28.0528 11.0999 27.7446 10.3599C27.4364 9.61988 26.0187 8.26322 24.4161 7.89322C24.4161 7.89322 23.6148 6.65989 22.382 6.28989C21.0876 5.91989 10.3624 4.25489 9.8077 5.85822C8.6982 9.18822 8.63656 12.3949 8.14345 21.8915C8.14345 21.8915 7.15723 22.1999 7.15723 23.0015V26.6399L12.4582 29.4765C12.6431 26.4549 13.2595 24.2349 13.9991 24.2349C14.8621 24.2349 15.5401 27.3182 15.5401 31.1415C16.3414 31.4499 17.944 31.8815 20.7178 31.7582C25.1558 31.5115 37.4836 29.9082 37.4836 29.9082C37.4836 29.9082 37.7918 24.6049 35.7577 22.3849Z" fill="#F15744"/>
<path d="M11.04 16.1566C11.04 16.4649 11.2866 16.7733 11.5948 16.7733H13.1358C13.444 16.7733 13.6905 16.5266 13.6905 16.1566V11.3466C13.6905 11.0383 13.444 10.8533 13.1974 10.9766L11.5331 11.7783C11.2866 11.9016 11.04 12.2716 11.04 12.6416V16.1566Z" fill="#3E4347"/>
<path d="M31.2577 17.7599C31.8125 17.7599 31.8125 17.6982 31.2577 17.6366L22.8132 16.8966C22.2584 16.8349 21.2722 16.6499 20.7175 16.5266L17.4506 15.6632C16.8959 15.5399 16.8342 15.6016 17.389 15.8482L20.2244 17.2666C20.7791 17.5132 21.2722 18.2532 21.4571 18.8082L23.1214 25.5299C23.2447 26.1466 23.3063 26.1466 23.2447 25.5299L22.3817 18.8699C22.3201 18.2532 22.6899 17.7599 23.3063 17.7599H31.2577Z" fill="#FED0AC"/>
<path d="M9.74562 19.7948C9.12924 20.3498 8.26629 20.3498 7.6499 19.7948V7.95482C8.26629 7.39982 9.12924 7.39982 9.74562 7.95482V19.7948Z" fill="#B2C1C0"/>
<path d="M8.14313 0C8.01985 0 7.89657 -5.97287e-08 7.7733 0.0616665C7.65002 0.308333 7.58838 0.554999 7.58838 0.863332C7.58838 1.04833 7.65002 1.295 7.71166 1.48C7.95821 1.48 8.14313 1.54166 8.14313 1.78833V8.13999H9.19099V1.17167C9.19099 0.493333 8.69788 0 8.14313 0Z" fill="#B2C1C0"/>
<path d="M24.5394 20.1649C24.601 20.4732 24.8476 20.7199 25.1558 20.7199L27.3748 20.6582C27.683 20.6582 27.9295 20.4115 27.8679 20.1032C27.8062 19.7949 27.5597 19.5482 27.2515 19.5482L25.0325 19.6099C24.7243 19.6099 24.4777 19.8565 24.5394 20.1649ZM24.8476 22.4465C24.9092 22.7549 25.1558 23.0015 25.464 23.0015L27.683 22.9398C27.9912 22.9398 28.2377 22.6932 28.1761 22.3848C28.1144 22.0765 27.8679 21.8299 27.5597 21.8299L25.3407 21.8915C24.9708 21.8915 24.7859 22.1382 24.8476 22.4465ZM25.0941 24.7282C25.1558 25.0365 25.4023 25.2832 25.7105 25.2832L27.9295 25.2215C28.2377 25.2215 28.4843 24.9748 28.4226 24.6665C28.361 24.3582 28.1144 24.1115 27.8062 24.1115L25.5872 24.1732C25.279 24.1115 25.0325 24.4198 25.0941 24.7282ZM29.4705 19.5482C29.1623 19.5482 28.9157 19.7949 28.9774 20.1032C29.039 20.4115 29.2856 20.6582 29.5938 20.6582L31.8128 20.5965C32.121 20.5965 32.3675 20.3499 32.3059 20.0415C32.2442 19.7332 31.9977 19.4865 31.6895 19.4865L29.4705 19.5482ZM29.2856 22.3848C29.3472 22.6932 29.5938 22.9398 29.902 22.9398L32.121 22.8782C32.4292 22.8782 32.6757 22.6315 32.6141 22.3232C32.5524 22.0149 32.3059 21.7682 31.9977 21.7682L29.7787 21.8299C29.4705 21.7682 29.2239 22.0765 29.2856 22.3848ZM29.5321 24.6048C29.5938 24.9132 29.8403 25.1598 30.1485 25.1598L32.3675 25.0982C32.6757 25.0982 32.9223 24.8515 32.8606 24.5432C32.799 24.2348 32.5524 23.9882 32.2442 23.9882L30.0252 24.0498C29.717 24.0498 29.5321 24.2965 29.5321 24.6048ZM20.7794 10.7299L15.4785 10.3599C15.2319 10.3599 14.9854 10.6065 14.9854 10.9149V13.8749C14.9854 14.1832 15.2319 14.4915 15.4785 14.4915L21.026 14.7382L20.7794 10.7299ZM27.498 14.4915L26.4502 11.6549C26.3885 11.3465 26.0803 11.0999 25.7722 11.0999L21.4574 10.7915L21.704 14.7999L27.1898 15.0465C27.4364 15.0465 27.6213 14.7999 27.498 14.4915Z" fill="#3E4347"/>
<path d="M23.8613 29.785C23.8613 30.0933 23.6147 30.4017 23.3681 30.4017L20.2246 30.5867C19.9164 30.5867 19.7314 30.34 19.7314 30.0317V29.1067C19.7314 28.7983 19.978 28.49 20.2246 28.49L23.3681 28.305C23.6763 28.305 23.8613 28.5517 23.8613 28.86V29.785ZM36.4356 28.5517C36.4356 28.86 36.189 29.1683 35.9425 29.23L33.7851 29.4767C33.4769 29.5383 33.292 29.2917 33.292 28.9217V28.12C33.292 27.8117 33.5386 27.5033 33.7851 27.4417L35.8808 27.195C36.189 27.1333 36.3739 27.38 36.3739 27.75V28.5517H36.4356Z" fill="white"/>
<path d="M12.8896 21.2136C12.8896 21.2136 17.5125 18.5002 19.485 24.2352C21.3341 29.9085 16.8961 21.0902 12.8896 21.2136ZM12.3965 6.96858C12.3965 6.96858 14.5538 5.73524 15.4168 8.38691C16.3414 10.9769 14.2457 6.90691 12.3965 6.96858Z" fill="#FED0AC"/>
</svg>
