<svg width="16" height="16" viewBox="0 0 16 16" fill="none" xmlns="http://www.w3.org/2000/svg">
<path d="M1 2.75C1 2.28587 1.18437 1.84075 1.51256 1.51256C1.84075 1.18437 2.28587 1 2.75 1H4.5C4.96413 1 5.40925 1.18437 5.73744 1.51256C6.06563 1.84075 6.25 2.28587 6.25 2.75V4.5C6.25 4.96413 6.06563 5.40925 5.73744 5.73744C5.40925 6.06563 4.96413 6.25 4.5 6.25H2.75C2.28587 6.25 1.84075 6.06563 1.51256 5.73744C1.18437 5.40925 1 4.96413 1 4.5V2.75ZM9.75 2.75C9.75 2.28587 9.93437 1.84075 10.2626 1.51256C10.5908 1.18437 11.0359 1 11.5 1H13.25C13.7141 1 14.1592 1.18437 14.4874 1.51256C14.8156 1.84075 15 2.28587 15 2.75V4.5C15 4.96413 14.8156 5.40925 14.4874 5.73744C14.1592 6.06563 13.7141 6.25 13.25 6.25H11.5C11.0359 6.25 10.5908 6.06563 10.2626 5.73744C9.93437 5.40925 9.75 4.96413 9.75 4.5V2.75ZM1 11.5C1 11.0359 1.18437 10.5908 1.51256 10.2626C1.84075 9.93437 2.28587 9.75 2.75 9.75H4.5C4.96413 9.75 5.40925 9.93437 5.73744 10.2626C6.06563 10.5908 6.25 11.0359 6.25 11.5V13.25C6.25 13.7141 6.06563 14.1592 5.73744 14.4874C5.40925 14.8156 4.96413 15 4.5 15H2.75C2.28587 15 1.84075 14.8156 1.51256 14.4874C1.18437 14.1592 1 13.7141 1 13.25V11.5ZM9.75 11.5C9.75 11.0359 9.93437 10.5908 10.2626 10.2626C10.5908 9.93437 11.0359 9.75 11.5 9.75H13.25C13.7141 9.75 14.1592 9.93437 14.4874 10.2626C14.8156 10.5908 15 11.0359 15 11.5V13.25C15 13.7141 14.8156 14.1592 14.4874 14.4874C14.1592 14.8156 13.7141 15 13.25 15H11.5C11.0359 15 10.5908 14.8156 10.2626 14.4874C9.93437 14.1592 9.75 13.7141 9.75 13.25V11.5Z" stroke="black" stroke-linecap="round" stroke-linejoin="round"/>
</svg>
