<svg width="16" height="16" viewBox="0 0 16 16" fill="none" xmlns="http://www.w3.org/2000/svg">
<path d="M4.88889 4.11111V1M11.1111 4.11111V1M4.11111 7.22222H11.8889M2.55556 15H13.4444C13.857 15 14.2527 14.8361 14.5444 14.5444C14.8361 14.2527 15 13.857 15 13.4444V4.11111C15 3.69855 14.8361 3.30289 14.5444 3.01117C14.2527 2.71944 13.857 2.55556 13.4444 2.55556H2.55556C2.143 2.55556 1.74733 2.71944 1.45561 3.01117C1.16389 3.30289 1 3.69855 1 4.11111V13.4444C1 13.857 1.16389 14.2527 1.45561 14.5444C1.74733 14.8361 2.143 15 2.55556 15Z" stroke="black" stroke-linecap="round" stroke-linejoin="round"/>
</svg>
