<svg width="16" height="18" viewBox="0 0 16 18" fill="none" xmlns="http://www.w3.org/2000/svg">
<path d="M14.3333 4.55556L13.5627 15.3484C13.5307 15.797 13.33 16.2167 13.001 16.5232C12.6719 16.8296 12.239 17 11.7893 17H4.43289C3.98324 17 3.55028 16.8296 3.22123 16.5232C2.89218 16.2167 2.69148 15.797 2.65956 15.3484L1.88889 4.55556M6.33333 8.11111V13.4444M9.88889 8.11111V13.4444M10.7778 4.55556V1.88889C10.7778 1.65314 10.6841 1.42705 10.5174 1.26035C10.3507 1.09365 10.1246 1 9.88889 1H6.33333C6.09759 1 5.87149 1.09365 5.70479 1.26035C5.53809 1.42705 5.44444 1.65314 5.44444 1.88889V4.55556M1 4.55556H15.2222" stroke="black" stroke-width="1.5" stroke-linecap="round" stroke-linejoin="round"/>
</svg>
