<svg width="17" height="17" viewBox="0 0 17 17" fill="none" xmlns="http://www.w3.org/2000/svg">
<path d="M8.5 5.16667C7.11917 5.16667 6 5.9125 6 6.83333C6 7.75417 7.11917 8.5 8.5 8.5C9.88083 8.5 11 9.24583 11 10.1667C11 11.0875 9.88083 11.8333 8.5 11.8333M8.5 5.16667C9.425 5.16667 10.2333 5.50167 10.6658 6M8.5 5.16667V4.33333M8.5 5.16667V11.8333M8.5 11.8333V12.6667M8.5 11.8333C7.575 11.8333 6.76667 11.4983 6.33417 11M16 8.5C16 9.48491 15.806 10.4602 15.4291 11.3701C15.0522 12.2801 14.4997 13.1069 13.8033 13.8033C13.1069 14.4997 12.2801 15.0522 11.3701 15.4291C10.4602 15.806 9.48491 16 8.5 16C7.51509 16 6.53982 15.806 5.62987 15.4291C4.71993 15.0522 3.89314 14.4997 3.1967 13.8033C2.50026 13.1069 1.94781 12.2801 1.5709 11.3701C1.19399 10.4602 1 9.48491 1 8.5C1 6.51088 1.79018 4.60322 3.1967 3.1967C4.60322 1.79018 6.51088 1 8.5 1C10.4891 1 12.3968 1.79018 13.8033 3.1967C15.2098 4.60322 16 6.51088 16 8.5Z" stroke="black" stroke-linecap="round" stroke-linejoin="round"/>
</svg>
