<svg width="18" height="24" viewBox="0 0 18 24" fill="none" xmlns="http://www.w3.org/2000/svg">
<path d="M9 9.71429V16.5714M9 16.5714L5.57143 13.1429M9 16.5714L12.4286 13.1429M14.7143 22.2857H3.28571C2.67951 22.2857 2.09812 22.0449 1.66947 21.6163C1.24082 21.1876 1 20.6062 1 20V4.00001C1 3.3938 1.24082 2.81242 1.66947 2.38376C2.09812 1.95511 2.67951 1.71429 3.28571 1.71429H9.66972C9.97279 1.71436 10.2634 1.83481 10.4777 2.04915L16.6651 8.23658C16.8795 8.45086 16.9999 8.7415 17 9.04458V20C17 20.6062 16.7592 21.1876 16.3305 21.6163C15.9019 22.0449 15.3205 22.2857 14.7143 22.2857Z" stroke="black" stroke-width="1.5" stroke-linecap="round" stroke-linejoin="round"/>
</svg>
