<svg width="16" height="17" viewBox="0 0 16 17" fill="none" xmlns="http://www.w3.org/2000/svg">
<path d="M1.61746 17C1.17129 17 0.790127 16.842 0.473987 16.526C0.157996 16.2099 0 15.8287 0 15.3825V3.40693C0 2.96076 0.157996 2.5796 0.473987 2.26346C0.790127 1.94747 1.17129 1.78947 1.61746 1.78947H5.59904C5.65526 1.29275 5.87208 0.870355 6.24951 0.522302C6.62679 0.1741 7.07871 0 7.60526 0C8.13748 0 8.59231 0.1741 8.96974 0.522302C9.34717 0.870355 9.56108 1.29275 9.61149 1.78947H13.5931C14.0392 1.78947 14.4204 1.94747 14.7365 2.26346C15.0525 2.5796 15.2105 2.96076 15.2105 3.40693V15.3825C15.2105 15.8287 15.0525 16.2099 14.7365 16.526C14.4204 16.842 14.0392 17 13.5931 17H1.61746ZM1.61746 15.6579H13.5931C13.662 15.6579 13.725 15.6292 13.7823 15.5718C13.8397 15.5145 13.8684 15.4514 13.8684 15.3825V3.40693C13.8684 3.33804 13.8397 3.27496 13.7823 3.2177C13.725 3.16028 13.662 3.13158 13.5931 3.13158H1.61746C1.54857 3.13158 1.48549 3.16028 1.42822 3.2177C1.37081 3.27496 1.34211 3.33804 1.34211 3.40693V15.3825C1.34211 15.4514 1.37081 15.5145 1.42822 15.5718C1.48549 15.6292 1.54857 15.6579 1.61746 15.6579ZM3.35526 13.5414H9.17105V12.1995H3.35526V13.5414ZM3.35526 10.0658H11.8553V8.72368H3.35526V10.0658ZM3.35526 6.58996H11.8553V5.24808H3.35526V6.58996ZM7.60526 2.54664C7.79912 2.54664 7.95943 2.48327 8.08618 2.35651C8.21294 2.22976 8.27632 2.06945 8.27632 1.87559C8.27632 1.68173 8.21294 1.52142 8.08618 1.39467C7.95943 1.26792 7.79912 1.20454 7.60526 1.20454C7.4114 1.20454 7.2511 1.26792 7.12434 1.39467C6.99759 1.52142 6.93421 1.68173 6.93421 1.87559C6.93421 2.06945 6.99759 2.22976 7.12434 2.35651C7.2511 2.48327 7.4114 2.54664 7.60526 2.54664Z" fill="black"/>
</svg>
