<svg width="30" height="30" viewBox="0 0 30 30" fill="none" xmlns="http://www.w3.org/2000/svg">
<path d="M21.9991 29.9981H1.99992C0.899962 29.9981 0 29.0982 0 27.9982V1.99987C0 0.899944 0.899962 0 1.99992 0H21.9991C23.099 0 23.999 0.899944 23.999 1.99987V27.9982C23.999 29.0982 23.099 29.9981 21.9991 29.9981Z" fill="url(#paint0_linear_3194_1781)"/>
<path d="M2 0.257812H21.999C22.9563 0.257812 23.7402 1.04272 23.7402 2V27.998C23.7402 28.9553 22.9563 29.7402 21.999 29.7402H2C1.04269 29.7402 0.257812 28.9553 0.257812 27.998V2C0.257812 1.04272 1.04269 0.257812 2 0.257812Z" stroke="#7C6262" stroke-opacity="0.01" stroke-width="0.516577"/>
<path d="M2 3H8.9997V3.99994H2V3Z" fill="#BDBDBD"/>
<path d="M8.74121 3.25781V3.74121H2.25781V3.25781H8.74121Z" stroke="#7C6262" stroke-opacity="0.01" stroke-width="0.516577"/>
<path d="M2 6H20.9992V6.99994H2V6Z" fill="#BDBDBD"/>
<path d="M20.7412 6.25781V6.74121H2.25781V6.25781H20.7412Z" stroke="#7C6262" stroke-opacity="0.01" stroke-width="0.516577"/>
<path d="M2 8.99854H20.9992V9.99847H2V8.99854Z" fill="#BDBDBD"/>
<path d="M20.7412 9.25635V9.73975H2.25781V9.25635H20.7412Z" stroke="#7C6262" stroke-opacity="0.01" stroke-width="0.516577"/>
<path d="M2 11.9985H20.9992V12.9985H2V11.9985Z" fill="#BDBDBD"/>
<path d="M20.7412 12.2563V12.7397H2.25781V12.2563H20.7412Z" stroke="#7C6262" stroke-opacity="0.01" stroke-width="0.516577"/>
<path d="M2 14.9985H20.9992V15.9985H2V14.9985Z" fill="#BDBDBD"/>
<path d="M20.7412 15.2563V15.7397H2.25781V15.2563H20.7412Z" stroke="#7C6262" stroke-opacity="0.01" stroke-width="0.516577"/>
<path d="M2 17.9985H15.9994V18.9985H2V17.9985Z" fill="#BDBDBD"/>
<path d="M15.7412 18.2563V18.7397H2.25781V18.2563H15.7412Z" stroke="#7C6262" stroke-opacity="0.01" stroke-width="0.516577"/>
<path d="M2 20.9985H13.9995V21.9985H2V20.9985Z" fill="#BDBDBD"/>
<path d="M13.7412 21.2563V21.7397H2.25781V21.2563H13.7412Z" stroke="#7C6262" stroke-opacity="0.01" stroke-width="0.516577"/>
<path d="M2 23.9985H6.99979V24.9985H2V23.9985Z" fill="#BDBDBD"/>
<path d="M6.74121 24.2563V24.7397H2.25781V24.2563H6.74121Z" stroke="#7C6262" stroke-opacity="0.01" stroke-width="0.516577"/>
<g opacity="0.2">
<path d="M21.9991 0.749953C22.689 0.749953 23.249 1.30992 23.249 1.99987V27.9982C23.249 28.6882 22.689 29.2482 21.9991 29.2482H1.99992C1.30994 29.2482 0.749968 28.6882 0.749968 27.9982V1.99987C0.749968 1.30992 1.30994 0.749953 1.99992 0.749953H21.9991ZM21.9991 0H1.99992C0.899962 0 0 0.899944 0 1.99987V27.9982C0 29.0982 0.899962 29.9981 1.99992 29.9981H21.9991C23.099 29.9981 23.999 29.0982 23.999 27.9982V1.99987C23.999 0.899944 23.099 0 21.9991 0Z" fill="#424242"/>
<path d="M2 0.257812H21.999C22.9563 0.257812 23.7402 1.04272 23.7402 2V27.998C23.7402 28.9553 22.9563 29.7402 21.999 29.7402H2C1.04269 29.7402 0.257812 28.9553 0.257812 27.998V2C0.257812 1.04272 1.04269 0.257812 2 0.257812ZM2 0.491211C1.16739 0.491211 0.491211 1.16739 0.491211 2V27.998C0.491211 28.8307 1.16739 29.5068 2 29.5068H21.999C22.8316 29.5068 23.5068 28.8307 23.5068 27.998V2C23.5068 1.16739 22.8316 0.491211 21.999 0.491211H2Z" stroke="#7C6262" stroke-opacity="0.01" stroke-width="0.516577"/>
</g>
<path d="M8.03776 24.036L9.17021 21.0137L9.95018 18.9338C10.1252 18.3963 10.4252 17.9088 10.8251 17.5089L12.6251 15.709L17.2924 20.3762L15.4924 22.1761C15.0925 22.5761 14.605 22.876 14.0675 23.051L11.9876 23.831L8.96522 24.9634C8.39274 25.1484 7.85027 24.6059 8.03776 24.036Z" fill="url(#paint1_linear_3194_1781)"/>
<path d="M16.9268 20.376L15.3096 21.9932C14.9382 22.3646 14.4858 22.6434 13.9873 22.8057L13.9766 22.8096L11.8965 23.5889L8.88574 24.7178C8.53587 24.8308 8.20614 24.5266 8.26562 24.1855L8.2832 24.1162L9.41211 21.1045L10.1924 19.0244L10.1953 19.0137C10.3576 18.5152 10.6364 18.0628 11.0078 17.6914L12.625 16.0742L16.9268 20.376Z" stroke="#7C6262" stroke-opacity="0.01" stroke-width="0.516577"/>
<mask id="path-23-inside-1_3194_1781" fill="white">
<path d="M15.043 21.8418L15.0503 21.8369C15.0478 21.8393 15.0454 21.8418 15.043 21.8418Z"/>
</mask>
<path d="M15.043 21.8418L14.7564 21.412L13.3372 22.3584H15.043V21.8418ZM15.0503 21.8369L15.4155 22.2022L14.7637 21.4071L15.0503 21.8369ZM15.043 21.8418L15.3296 22.2716L15.3369 22.2667L15.0503 21.8369L14.7637 21.4071L14.7564 21.412L15.043 21.8418ZM15.0503 21.8369L14.685 21.4716C14.677 21.4796 14.7027 21.4525 14.7366 21.427C14.765 21.4057 14.8756 21.3252 15.043 21.3252V21.8418V22.3584C15.2128 22.3584 15.3258 22.2766 15.3566 22.2535C15.3781 22.2374 15.3939 22.223 15.4018 22.2155C15.4061 22.2114 15.4096 22.208 15.4118 22.2059C15.4137 22.204 15.4155 22.2022 15.4155 22.2022L15.0503 21.8369Z" fill="#7C6262" fill-opacity="0.01" mask="url(#path-23-inside-1_3194_1781)"/>
<mask id="path-25-inside-2_3194_1781" fill="white">
<path d="M11.1645 17.9488L11.127 17.9888C11.1395 17.9763 11.1495 17.9613 11.162 17.9463L11.1645 17.9488Z"/>
</mask>
<path d="M11.1645 17.9488L11.5413 18.3021L11.8834 17.9373L11.5298 17.5836L11.1645 17.9488ZM11.127 17.9888L10.7501 17.6355L11.4922 18.3541L11.127 17.9888ZM11.162 17.9463L11.5273 17.5811L11.1273 17.181L10.7651 17.6156L11.162 17.9463ZM11.1645 17.9488L10.7876 17.5955L10.7501 17.6355L11.127 17.9888L11.5038 18.3421L11.5413 18.3021L11.1645 17.9488ZM11.127 17.9888L11.4922 18.3541C11.5214 18.3249 11.5426 18.2979 11.5512 18.2869C11.5537 18.2838 11.5559 18.2809 11.5573 18.2791C11.559 18.2769 11.5597 18.2759 11.5605 18.275C11.5619 18.2732 11.5609 18.2745 11.5588 18.277L11.162 17.9463L10.7651 17.6156C10.7568 17.6256 10.7498 17.6344 10.7454 17.64C10.7433 17.6428 10.7412 17.6455 10.7401 17.647C10.7386 17.6488 10.738 17.6496 10.7377 17.6501C10.7368 17.6512 10.7389 17.6485 10.7425 17.6443C10.7462 17.6399 10.7527 17.6324 10.7617 17.6235L11.127 17.9888ZM11.162 17.9463L10.7966 18.3115L10.7991 18.314L11.1645 17.9488L11.5298 17.5836L11.5273 17.5811L11.162 17.9463Z" fill="#7C6262" fill-opacity="0.01" mask="url(#path-25-inside-2_3194_1781)"/>
<g opacity="0.2">
<path d="M12.6206 16.7689L16.2254 20.3737L14.9555 21.6436C14.6405 21.9586 14.2505 22.1986 13.828 22.3361L13.798 22.3461L11.7181 23.126L8.76073 24.2335L9.86818 21.2761L10.6481 19.1963L10.6581 19.1663C10.7956 18.7438 11.0356 18.3538 11.3506 18.0388L12.6206 16.7689ZM12.6206 15.709L10.8206 17.5089C10.4207 17.9088 10.1207 18.3963 9.94568 18.9338L9.16571 21.0137L8.03326 24.036C7.87326 24.5284 8.25325 24.9984 8.72573 24.9984C8.80072 24.9984 8.87822 24.9859 8.95822 24.9609L11.9806 23.8285L14.0605 23.0485C14.598 22.8735 15.0855 22.5736 15.4854 22.1736L17.2854 20.3737L12.6206 15.709Z" fill="#424242"/>
<path d="M16.9199 20.374L15.3027 21.9912C14.9778 22.3161 14.5906 22.5693 14.165 22.7363L13.9805 22.8027L13.9697 22.8066L11.8896 23.5869L8.87109 24.7168C8.81716 24.7327 8.76895 24.7402 8.72559 24.7402C8.6147 24.7402 8.51274 24.6986 8.43164 24.6318L8.85156 24.4756L11.8086 23.3682L13.8887 22.5879L13.9072 22.5811L13.9082 22.582C14.3696 22.4318 14.7942 22.1696 15.1377 21.8262L16.4082 20.5566L16.5908 20.374L12.6201 16.4033L12.4375 16.5859L11.168 17.8564C10.8246 18.1999 10.5623 18.6246 10.4121 19.0859L10.4062 19.1055L9.62598 21.1855L8.51855 24.1426L8.36133 24.5605C8.28948 24.471 8.24754 24.3564 8.25586 24.2334L8.2793 24.1162L9.40723 21.1045L10.1875 19.0244L10.1914 19.0137C10.3537 18.5153 10.6316 18.0628 11.0029 17.6914L12.6201 16.0742L16.9199 20.374Z" stroke="#7C6262" stroke-opacity="0.01" stroke-width="0.516577"/>
</g>
<path d="M8.03776 24.0355L9.17022 21.0132C9.76019 21.3057 10.3177 21.6981 10.8076 22.1906C11.3001 22.6831 11.6901 23.238 11.9851 23.828L8.96272 24.9604C8.39275 25.1479 7.85027 24.6055 8.03776 24.0355Z" fill="url(#paint2_linear_3194_1781)"/>
<path d="M9.30859 21.3784C9.78032 21.6411 10.2264 21.972 10.625 22.3726V22.3735C11.0253 22.7739 11.3544 23.2178 11.6182 23.689L8.87598 24.7163C8.53247 24.8247 8.20606 24.525 8.26562 24.1851L8.2832 24.1157L9.30859 21.3784Z" stroke="#7C6262" stroke-opacity="0.01" stroke-width="0.516577"/>
<g opacity="0.2">
<path d="M9.5571 22.1131C9.81459 22.2931 10.0546 22.4956 10.2771 22.7181C10.4996 22.9406 10.702 23.1805 10.882 23.438L8.76213 24.233L9.5571 22.1131ZM9.16961 21.0132L8.03716 24.0355C7.87717 24.528 8.25715 24.9979 8.72963 24.9979C8.80463 24.9979 8.88213 24.9854 8.96212 24.9604L11.9845 23.828C11.692 23.238 11.2995 22.6806 10.807 22.1906C10.3171 21.6981 9.75959 21.3057 9.16961 21.0132Z" fill="#424242"/>
<path d="M9.30762 21.3784C9.77942 21.6411 10.2254 21.9719 10.624 22.3726L10.625 22.3735C11.0253 22.7718 11.3556 23.2176 11.6182 23.689L8.875 24.7163C8.82106 24.7323 8.77286 24.7397 8.72949 24.7397C8.61812 24.7397 8.51583 24.6976 8.43457 24.6304L8.85254 24.4751L10.9727 23.6802L11.2842 23.563L11.0938 23.2905C10.9049 23.0203 10.6926 22.7684 10.46 22.5356C10.2272 22.3029 9.97532 22.0908 9.70508 21.9019L9.43262 21.7104L9.31543 22.022L8.52051 24.1421L8.36328 24.5581C8.29251 24.4688 8.2515 24.3549 8.25977 24.2329L8.2832 24.1157L9.30762 21.3784Z" stroke="#7C6262" stroke-opacity="0.01" stroke-width="0.516577"/>
</g>
<path d="M21.2715 7.05979L25.9388 11.727L27.4937 10.1696L22.8289 5.50488L21.2715 7.05979Z" fill="url(#paint3_linear_3194_1781)"/>
<path d="M27.1279 10.1689L25.9385 11.3613L21.6367 7.05957L22.8281 5.86914L27.1279 10.1689Z" stroke="#7C6262" stroke-opacity="0.01" stroke-width="0.516577"/>
<path d="M26.4551 11.209L21.7884 6.54242L22.3063 6.0245L26.973 10.6911L26.4551 11.209Z" fill="#9E9E9E"/>
<path d="M22.153 6.54245L22.3063 6.38915L26.6084 10.6911L26.4551 10.8444L22.153 6.54245Z" stroke="#7C6262" stroke-opacity="0.01" stroke-width="0.516577"/>
<path d="M22.8281 5.50422L27.4954 10.1714L29.5703 8.09656C30.1428 7.52409 30.1428 6.59415 29.5703 6.02169L26.9779 3.42935C26.4055 2.85688 25.4755 2.85688 24.903 3.42935L22.8281 5.50422Z" fill="url(#paint4_linear_3194_1781)"/>
<path d="M25.0859 3.6123C25.5575 3.14072 26.3233 3.14074 26.7949 3.6123L29.3877 6.2041C29.8593 6.6757 29.8593 7.44247 29.3877 7.91406L27.4951 9.80566L23.1934 5.50391L25.0859 3.6123Z" stroke="#7C6262" stroke-opacity="0.01" stroke-width="0.516577"/>
<path d="M24.5558 10.3428L22.6534 8.44043L13.0538 18.0398L13.0363 18.4148C13.0013 19.2223 13.7738 19.9947 14.5787 19.9572L14.9537 19.9397L24.5558 10.3428Z" fill="url(#paint5_linear_3194_1781)"/>
<path d="M24.1895 10.3418L14.8418 19.6855L14.5664 19.6992C14.2501 19.7138 13.9231 19.5686 13.6748 19.3203C13.4267 19.0722 13.2804 18.7446 13.2939 18.4268L13.3066 18.1514L22.6533 8.80566L24.1895 10.3418Z" stroke="#7C6262" stroke-opacity="0.01" stroke-width="0.516577"/>
<path d="M25.94 11.7271L15.9129 21.754C15.3505 21.519 14.9155 20.9291 14.9405 20.3191L14.958 19.9441L24.5576 10.3447L25.94 11.7271Z" fill="url(#paint6_linear_3194_1781)"/>
<path d="M25.5742 11.7266L15.8623 21.4385C15.4625 21.2056 15.1812 20.7635 15.1982 20.3311L15.2109 20.0557L24.5576 10.71L25.5742 11.7266Z" stroke="#7C6262" stroke-opacity="0.01" stroke-width="0.516577"/>
<path d="M22.6576 8.4415L13.058 18.0409L12.683 18.0584C12.073 18.0859 11.483 17.6484 11.248 17.086L21.2751 7.05908L22.6576 8.4415Z" fill="url(#paint7_linear_3194_1781)"/>
<path d="M22.292 8.44092L12.9453 17.7866L12.6709 17.8003C12.2392 17.8195 11.7957 17.5376 11.5625 17.1362L21.2744 7.42432L22.292 8.44092Z" stroke="#7C6262" stroke-opacity="0.01" stroke-width="0.516577"/>
<g opacity="0.2">
<path d="M25.9385 3.74995C26.131 3.74995 26.311 3.82495 26.446 3.95994L29.0384 6.55228C29.1734 6.68727 29.2484 6.86726 29.2484 7.05975C29.2484 7.25223 29.1734 7.43222 29.0384 7.56721L15.8364 20.7689C15.7414 20.6389 15.684 20.4889 15.689 20.3514L15.7065 19.9764L15.7415 19.159L14.924 19.194L14.549 19.2115H14.529C14.3565 19.2115 14.1615 19.1165 14.0115 18.959C13.864 18.8065 13.7815 18.614 13.789 18.449L13.8065 18.0741L13.8415 17.2566L13.0241 17.2916L12.6491 17.3091H12.6291C12.4966 17.3091 12.3541 17.2541 12.2316 17.1616L25.4335 3.95994C25.5685 3.82495 25.7485 3.74995 25.9385 3.74995ZM25.9385 3C25.5635 3 25.1886 3.14249 24.9011 3.42997L11.2441 17.0866C11.4741 17.6341 12.0366 18.0591 12.6266 18.0591H12.6791L13.0541 18.0416L13.0391 18.4165C13.0041 19.2065 13.7415 19.9614 14.529 19.9614H14.5815L14.9565 19.9439L14.939 20.3189C14.9115 20.9289 15.349 21.5188 15.9114 21.7538L29.5684 8.09718C30.1408 7.52472 30.1408 6.59477 29.5684 6.02231L26.976 3.42997C26.691 3.14249 26.3135 3 25.9385 3Z" fill="#424242"/>
<path d="M25.9385 3.25781C26.2485 3.25781 26.5592 3.37552 26.793 3.61133V3.6123L29.3857 6.20508C29.8572 6.6766 29.8571 7.44247 29.3857 7.91406L15.8604 21.4385C15.4595 21.2052 15.178 20.7624 15.1973 20.3311L15.2148 19.9561L15.2275 19.6729L14.9443 19.6855L14.5693 19.7031H14.5293C14.2175 19.7031 13.8999 19.5522 13.6611 19.3057C13.4224 19.0592 13.2831 18.7389 13.2969 18.4277V18.4268L13.3125 18.0518L13.3232 17.7705L13.042 17.7832L12.667 17.8008H12.627C12.208 17.8008 11.785 17.525 11.5586 17.1367L25.084 3.6123C25.321 3.37546 25.6293 3.25782 25.9385 3.25781ZM25.9385 3.49121C25.6794 3.49122 25.434 3.59435 25.251 3.77734L12.0488 16.9785L11.8389 17.1885L12.0762 17.3682C12.2326 17.4862 12.4283 17.5673 12.6289 17.5674H12.6611L13.0352 17.5488L13.5703 17.5264L13.5488 18.0625L13.5312 18.4365V18.4375C13.5199 18.6894 13.6418 18.9461 13.8242 19.1357V19.1367C14.0096 19.3314 14.2689 19.4697 14.5293 19.4697H14.5615L14.9355 19.4521L14.9346 19.4512L15.4707 19.4287L15.4482 19.9648L15.4307 20.3398V20.3418C15.423 20.5538 15.5101 20.7596 15.6279 20.9209L15.8057 21.165L29.2207 7.75C29.4041 7.56665 29.5068 7.32067 29.5068 7.05957C29.5068 6.79858 29.404 6.55342 29.2207 6.37012L26.6289 3.77734C26.4455 3.59399 26.1996 3.49121 25.9385 3.49121Z" stroke="#7C6262" stroke-opacity="0.01" stroke-width="0.516577"/>
</g>
<defs>
<linearGradient id="paint0_linear_3194_1781" x1="11.9995" y1="-0.916618" x2="11.9995" y2="29.6481" gradientUnits="userSpaceOnUse">
<stop stop-color="#F5F5F5"/>
<stop offset="1" stop-color="#E0E0E0"/>
</linearGradient>
<linearGradient id="paint1_linear_3194_1781" x1="12.6453" y1="6.26657" x2="12.6453" y2="24.4284" gradientUnits="userSpaceOnUse">
<stop offset="0.006854" stop-color="#FFECB3"/>
<stop offset="1" stop-color="#FFE082"/>
</linearGradient>
<linearGradient id="paint2_linear_3194_1781" x1="9.99293" y1="16.9624" x2="9.99293" y2="24.7529" gradientUnits="userSpaceOnUse">
<stop stop-color="#757575"/>
<stop offset="1" stop-color="#424242"/>
</linearGradient>
<linearGradient id="paint3_linear_3194_1781" x1="24.3839" y1="4.51245" x2="24.3839" y2="12.3977" gradientUnits="userSpaceOnUse">
<stop stop-color="#E0E0E0"/>
<stop offset="1" stop-color="#9E9E9E"/>
</linearGradient>
<linearGradient id="paint4_linear_3194_1781" x1="26.4127" y1="1.92994" x2="26.4127" y2="9.50147" gradientUnits="userSpaceOnUse">
<stop stop-color="#E57373"/>
<stop offset="1" stop-color="#F44336"/>
</linearGradient>
<linearGradient id="paint5_linear_3194_1781" x1="18.7966" y1="5.23113" x2="18.7966" y2="18.9488" gradientUnits="userSpaceOnUse">
<stop stop-color="#FFC107"/>
<stop offset="1" stop-color="#FFA000"/>
</linearGradient>
<linearGradient id="paint6_linear_3194_1781" x1="26.6098" y1="9.67499" x2="17.3414" y2="18.9436" gradientUnits="userSpaceOnUse">
<stop stop-color="#FFCA28"/>
<stop offset="1" stop-color="#FFB300"/>
</linearGradient>
<linearGradient id="paint7_linear_3194_1781" x1="23.3257" y1="6.39022" x2="14.0573" y2="15.6589" gradientUnits="userSpaceOnUse">
<stop stop-color="#FFCA28"/>
<stop offset="1" stop-color="#FFB300"/>
</linearGradient>
</defs>
</svg>
