<svg width="18" height="19" viewBox="0 0 18 19" fill="none" xmlns="http://www.w3.org/2000/svg">
<path d="M2.64648 9.5L0.646484 9.5M2.64648 9.5C2.64648 10.0304 2.8572 10.5391 3.23227 10.9142C3.60734 11.2893 4.11605 11.5 4.64648 11.5C5.17692 11.5 5.68562 11.2893 6.0607 10.9142C6.43577 10.5391 6.64648 10.0304 6.64648 9.5M2.64648 9.5C2.64648 8.96957 2.8572 8.46086 3.23227 8.08579C3.60734 7.71071 4.11605 7.5 4.64648 7.5C5.17692 7.5 5.68562 7.71071 6.0607 8.08579C6.43577 8.46086 6.64648 8.96957 6.64648 9.5M6.64648 9.5L16.6465 9.5M14.6465 15.5C14.6465 14.9696 14.4358 14.4609 14.0607 14.0858C13.6856 13.7107 13.1769 13.5 12.6465 13.5C12.1161 13.5 11.6073 13.7107 11.2323 14.0858C10.8572 14.4609 10.6465 14.9696 10.6465 15.5M14.6465 15.5C14.6465 16.0304 14.4358 16.5391 14.0607 16.9142C13.6856 17.2893 13.1769 17.5 12.6465 17.5C12.1161 17.5 11.6073 17.2893 11.2323 16.9142C10.8572 16.5391 10.6465 16.0304 10.6465 15.5M14.6465 15.5L16.6465 15.5M10.6465 15.5L0.646484 15.5M14.6465 3.5C14.6465 2.96957 14.4358 2.46086 14.0607 2.08579C13.6856 1.71071 13.1769 1.5 12.6465 1.5C12.1161 1.5 11.6073 1.71071 11.2323 2.08579C10.8572 2.46086 10.6465 2.96957 10.6465 3.5M14.6465 3.5C14.6465 4.03043 14.4358 4.53914 14.0607 4.91421C13.6856 5.28929 13.1769 5.5 12.6465 5.5C12.1161 5.5 11.6073 5.28929 11.2323 4.91421C10.8572 4.53914 10.6465 4.03043 10.6465 3.5M14.6465 3.5L16.6465 3.5M10.6465 3.5L0.646485 3.5" stroke="black" stroke-width="1.2" stroke-linecap="round" stroke-linejoin="round"/>
</svg>
