<svg width="32" height="33" viewBox="0 0 32 33" fill="none" xmlns="http://www.w3.org/2000/svg">
<path d="M16.0237 0.000116206C15.5772 0.0536048 1.66195 9.38392 1.58176 9.66729C1.50154 9.95336 1.46947 12.9262 1.46947 12.9262L3.26335 13.4957L3.27135 15.859L4.23112 17.824V26.1304L3.51465 27.6943L1.54967 28.2745V29.6807L0.00976562 30.1486C0.00976562 30.1486 0.031161 31.3543 0.031161 31.5548C0.031161 31.7553 0.0979894 32.1804 0.902701 32.1804C1.70741 32.1804 31.0778 32.044 31.3745 32.044C31.6712 32.044 31.9787 31.9852 31.9947 31.4532C32.0108 30.9212 31.9787 30.17 31.9787 30.17L30.4869 29.4321L30.4816 28.2531L28.0541 27.5045L27.4686 25.847L27.4766 18.0379L28.407 16.0756L28.6877 15.5436V13.4315L30.2516 12.8407C30.2516 12.8407 30.2811 9.78494 30.2356 9.69672C30.1955 9.61116 16.3926 -0.0426747 16.0237 0.000116206Z" fill="#CDDFEE"/>
<path d="M2.84099 10.2873C2.75812 10.4931 2.73673 12.0117 2.81159 12.0865C2.88644 12.1614 28.7279 12.1213 28.8161 12.0491C28.9043 11.9769 28.9177 10.3274 28.8749 10.2258C28.8321 10.1242 21.547 5.14893 21.547 5.14893L10.2838 5.20506C10.2812 5.20506 2.88911 10.1643 2.84099 10.2873Z" fill="#94ADBC"/>
<path d="M0.0106948 30.1544C-0.0133685 30.0956 0.0106948 29.8175 0.0106948 29.7053C0.0106948 29.593 0.117646 29.4646 0.358254 29.4646C0.598862 29.4646 31.1402 29.4219 31.2899 29.4272C31.6668 29.4406 31.9208 29.5208 31.9582 29.7614C31.9957 30.002 31.9823 30.1758 31.9823 30.1758L0.0106948 30.1544Z" fill="#94ADBC"/>
<path d="M30.4847 28.2559L1.55273 28.2773C1.55273 28.2773 1.56343 27.9805 1.56343 27.8789C1.56343 27.7774 1.61689 27.6116 1.96179 27.6116C2.30668 27.6116 29.7441 27.5073 29.9794 27.5073C30.2146 27.5073 30.4713 27.6169 30.5034 27.78C30.5354 27.9431 30.4847 28.2559 30.4847 28.2559Z" fill="#94ADBC"/>
<path d="M27.6859 26.4644L27.472 25.8388L4.22651 25.8335L4.05273 26.5313L27.6859 26.4644Z" fill="#94ADBC"/>
<path d="M3.95898 17.2549L27.822 17.3377L27.4799 18.0382L4.23433 18.1264L3.95898 17.2549Z" fill="#94ADBC"/>
<path d="M3.4373 16.2711C3.4373 16.2711 3.2261 16.1187 3.19133 15.9182C3.15657 15.7177 3.25016 15.6001 3.25016 15.6001L28.6906 15.5439C28.6906 15.5439 28.7868 15.7418 28.7039 15.8808C28.621 16.0225 28.3858 16.1508 28.3858 16.1508L3.4373 16.2711Z" fill="#94ADBC"/>
<path d="M1.4707 12.9264L30.2556 12.8408C30.2556 12.8408 30.2743 13.1162 30.2556 13.2311C30.2395 13.3461 30.0898 13.4477 29.7075 13.4477H29.3252C29.3252 13.4477 2.37967 13.5813 2.08024 13.5813C1.78081 13.5813 1.56693 13.4156 1.51614 13.2819C1.48674 13.1937 1.4707 12.9264 1.4707 12.9264Z" fill="#94ADBC"/>
<path d="M3.55859 11.012L9.61392 6.92432L10.0203 11.0922L3.55859 11.012Z" fill="#657582"/>
<path d="M22.1494 6.78809L28.2128 11.0656H21.9863L22.1494 6.78809Z" fill="#657582"/>
<path d="M7.67496 16.2522L8.67216 16.2495L9.4528 18.1236L9.38061 25.8392L8.73095 27.5876L7.57071 27.5903L6.93174 25.8499L6.90234 18.1076L7.67496 16.2522Z" fill="#54636E"/>
<path d="M12.986 16.2252L11.9941 18.0806L12.069 25.8389L12.6572 27.574L19.1349 27.5472L19.7177 25.8389L19.7337 18.0645L18.9772 16.1958L12.986 16.2252Z" fill="#54636E"/>
<path d="M23.1704 16.1772L24.05 16.1719L24.828 18.046L24.8253 25.8417L24.3735 27.5313L22.9058 27.534L22.4566 25.8417L22.4219 18.054L23.1704 16.1772Z" fill="#54636E"/>
<path d="M13.3457 27.5714V21.623L18.5642 21.6738L18.5749 27.5554L13.3457 27.5714Z" fill="#6BA4AE"/>
<path d="M15.655 21.353L15.6523 27.5635L16.1924 27.5608V21.4439L15.655 21.353Z" fill="#A5D0D7"/>
<path d="M13.3457 21.9063V20.4146H18.5642V21.9063C18.5642 21.9063 13.3911 21.8609 13.3457 21.9063Z" fill="#95ACBC"/>
<path d="M13.3461 20.4146H18.5646C18.5646 20.4146 18.586 19.9494 18.1021 19.9039C17.6182 19.8585 14.0626 19.8959 13.7632 19.9039C13.3167 19.9173 13.3461 20.4146 13.3461 20.4146Z" fill="#CCDEED"/>
<path d="M15.9578 1.94352C12.084 1.96758 9.01759 5.03136 9.14858 8.90517C9.27957 12.779 12.8326 15.5032 15.9578 15.4792C19.2381 15.4551 22.6922 13.1078 22.8473 8.88377C23.005 4.66241 19.4493 1.91945 15.9578 1.94352Z" fill="#CDDFEE"/>
<path d="M15.9825 2.87169C12.7396 2.89306 10.1437 5.55316 10.2533 8.92704C10.3603 12.3009 13.2155 14.4397 15.8328 14.4637C18.8511 14.4905 21.6288 12.5175 21.7571 8.84149C21.8854 5.1655 18.9046 2.85297 15.9825 2.87169Z" fill="#94ADBC"/>
<path d="M15.046 4.75577C15.046 4.75577 14.9872 3.72381 15.0593 3.63559C15.1315 3.54736 15.4256 3.54736 15.995 3.54736C16.5672 3.54736 16.7998 3.54736 16.888 3.61955C16.9762 3.69174 16.9307 4.81993 16.9307 4.81993C16.9307 4.81993 17.7061 5.11133 18.1899 5.48563C18.7032 5.88129 19.0695 6.40797 19.0401 6.49619C19.0107 6.58441 17.9868 7.47733 17.8397 7.44793C17.6927 7.41853 16.8586 6.4427 15.8641 6.37854C14.2841 6.27695 14.2974 7.50675 15.2786 7.84359C16.2597 8.18045 19.3529 8.44779 19.2326 10.91C19.131 12.982 17.0377 13.129 17.0377 13.129C17.0377 13.129 17.0965 13.9043 17.0377 13.9497C16.9789 13.9952 15.1342 14.0219 15.0754 13.9364C15.0166 13.8508 15.062 13.0568 15.062 13.0568C15.062 13.0568 14.2413 12.8964 13.5676 12.4419C12.8939 11.9874 12.41 11.3886 12.3966 11.3137C12.3832 11.2415 13.5836 10.231 13.6692 10.2016C13.7547 10.1722 14.9765 11.3752 16.1287 11.4741C17.2997 11.5757 17.7969 10.4208 16.1715 9.92354C14.5461 9.42626 12.6292 9.0012 12.7174 6.96671C12.8056 4.90013 15.046 4.75577 15.046 4.75577Z" fill="#024FAC"/>
</svg>
