<svg width="30" height="27" viewBox="0 0 30 27" fill="none" xmlns="http://www.w3.org/2000/svg">
<path d="M16.6846 0.0630288L15.6245 0.336407L2.56387 3.7045L1.50377 3.97787C0.989207 4.11119 0.548539 4.44317 0.278441 4.90098C0.00834321 5.35879 -0.0691257 5.90505 0.0630299 6.41991L4.65987 24.2454C4.79318 24.76 5.12516 25.2006 5.58297 25.4707C6.04078 25.7408 6.58704 25.8183 7.1019 25.6862L7.10464 25.6854L22.28 21.772L22.2828 21.7713C22.7973 21.638 23.238 21.306 23.5081 20.8482C23.7782 20.3904 23.8557 19.8441 23.7235 19.3293L19.1267 1.50378C18.9934 0.989214 18.6614 0.548544 18.2036 0.278444C17.7458 0.00834475 17.1995 -0.0691259 16.6846 0.0630288Z" fill="#CDCACA"/>
<path d="M16.8289 0.622029L15.5733 0.945828L2.90362 4.21309L1.64802 4.53688C1.28159 4.63181 0.967779 4.86822 0.775434 5.19424C0.58309 5.52026 0.527922 5.90926 0.622033 6.27591L5.21887 24.1014C5.31381 24.4678 5.55022 24.7816 5.87624 24.974C6.20226 25.1663 6.59126 25.2215 6.9579 25.1274L6.96064 25.1267L22.136 21.2133L22.1388 21.2125C22.5052 21.1176 22.819 20.8812 23.0114 20.5552C23.2037 20.2292 23.2589 19.8402 23.1648 19.4735L18.5679 1.64802C18.473 1.28159 18.2366 0.967782 17.9106 0.775438C17.5846 0.583094 17.1956 0.527923 16.8289 0.622029Z" fill="white"/>
<path d="M6.89297 10.4043L4.1762 11.1049C4.13509 11.1154 4.09147 11.1092 4.05491 11.0877C4.01836 11.0661 3.99185 11.0309 3.9812 10.9898L3.35757 8.57153C3.34702 8.53042 3.3532 8.4868 3.37477 8.45024C3.39634 8.41369 3.43153 8.38718 3.47262 8.37653L6.18939 7.67593C6.2305 7.66538 6.27412 7.67156 6.31067 7.69313C6.34723 7.7147 6.37374 7.74989 6.38438 7.79097L7.00801 10.2093C7.01857 10.2504 7.01238 10.294 6.99081 10.3306C6.96925 10.3671 6.93406 10.3936 6.89297 10.4043Z" fill="#88ACE0"/>
<path d="M8.15469 15.2939L5.43792 15.9945C5.39681 16.0051 5.35319 15.9989 5.31663 15.9773C5.28008 15.9558 5.25357 15.9206 5.24292 15.8795L4.61929 13.4612C4.60874 13.4201 4.61492 13.3764 4.63649 13.3399C4.65806 13.3033 4.69325 13.2768 4.73433 13.2662L7.4511 12.5656C7.49222 12.555 7.53583 12.5612 7.57239 12.5828C7.60895 12.6043 7.63545 12.6395 7.6461 12.6806L8.26973 15.0989C8.28028 15.14 8.2741 15.1837 8.25253 15.2202C8.23096 15.2568 8.19578 15.2833 8.15469 15.2939Z" fill="#88ACE0"/>
<path d="M9.41543 20.1836L6.69866 20.8842C6.65755 20.8947 6.61393 20.8885 6.57737 20.867C6.54082 20.8454 6.51431 20.8102 6.50367 20.7691L5.88003 18.3508C5.86948 18.3097 5.87567 18.2661 5.89723 18.2295C5.9188 18.193 5.95399 18.1665 5.99508 18.1558L8.71185 17.4552C8.75296 17.4447 8.79658 17.4509 8.83313 17.4724C8.86969 17.494 8.8962 17.5292 8.90684 17.5703L9.53047 19.9886C9.54103 20.0297 9.53484 20.0733 9.51328 20.1099C9.49171 20.1464 9.45652 20.1729 9.41543 20.1836Z" fill="#88ACE0"/>
<path d="M27.2723 4.58105H11.5947C11.0632 4.58165 10.5536 4.79308 10.1777 5.16894C9.80186 5.5448 9.59044 6.05441 9.58984 6.58596V24.9946C9.59044 25.5262 9.80186 26.0358 10.1777 26.4117C10.5536 26.7875 11.0632 26.9989 11.5947 26.9995H27.2723C27.8038 26.9989 28.3134 26.7875 28.6893 26.4117C29.0652 26.0358 29.2766 25.5262 29.2772 24.9946V6.58596C29.2766 6.05441 29.0652 5.5448 28.6893 5.16894C28.3134 4.79308 27.8038 4.58165 27.2723 4.58105Z" fill="#CDCACA"/>
<path d="M27.2723 5.15918H11.5947C11.2162 5.1596 10.8533 5.31016 10.5856 5.57782C10.318 5.84548 10.1674 6.20839 10.167 6.58692V24.9956C10.1674 25.3741 10.318 25.737 10.5856 26.0047C10.8533 26.2723 11.2162 26.4229 11.5947 26.4233H27.2723C27.6508 26.4229 28.0137 26.2723 28.2814 26.0047C28.549 25.737 28.6996 25.3741 28.7 24.9956V6.58692C28.6996 6.20839 28.549 5.84549 28.2814 5.57783C28.0137 5.31017 27.6508 5.15961 27.2723 5.15918Z" fill="white"/>
<path d="M24.9127 15.2742H16.9846C16.9408 15.2742 16.8973 15.2656 16.8568 15.2489C16.8162 15.2321 16.7794 15.2075 16.7483 15.1765C16.7173 15.1455 16.6926 15.1087 16.6758 15.0682C16.659 15.0276 16.6504 14.9842 16.6504 14.9403C16.6504 14.8964 16.659 14.853 16.6758 14.8125C16.6926 14.7719 16.7173 14.7351 16.7483 14.7041C16.7794 14.6731 16.8162 14.6485 16.8568 14.6318C16.8973 14.615 16.9408 14.6064 16.9846 14.6064H24.9127C25.0011 14.6065 25.086 14.6418 25.1485 14.7044C25.211 14.767 25.2462 14.8518 25.2462 14.9403C25.2462 15.0288 25.211 15.1137 25.1485 15.1763C25.086 15.2389 25.0011 15.2741 24.9127 15.2742Z" fill="#CDCACA"/>
<path d="M26.2899 16.4011H16.9846C16.9408 16.4012 16.8973 16.3926 16.8568 16.3758C16.8162 16.3591 16.7794 16.3345 16.7483 16.3035C16.7173 16.2725 16.6926 16.2357 16.6758 16.1951C16.659 16.1546 16.6504 16.1111 16.6504 16.0673C16.6504 16.0234 16.659 15.9799 16.6758 15.9394C16.6926 15.8989 16.7173 15.8621 16.7483 15.8311C16.7794 15.8 16.8162 15.7755 16.8568 15.7587C16.8973 15.7419 16.9408 15.7333 16.9846 15.7334H26.2899C26.3784 15.7334 26.4633 15.7686 26.526 15.8312C26.5886 15.8938 26.6237 15.9787 26.6237 16.0673C26.6237 16.1558 26.5886 16.2407 26.526 16.3034C26.4633 16.366 26.3784 16.4011 26.2899 16.4011Z" fill="#CDCACA"/>
<path d="M24.9127 20.324H16.9846C16.9408 20.324 16.8973 20.3154 16.8568 20.2987C16.8162 20.2819 16.7794 20.2573 16.7483 20.2263C16.7173 20.1953 16.6926 20.1585 16.6758 20.118C16.659 20.0774 16.6504 20.034 16.6504 19.9901C16.6504 19.9462 16.659 19.9028 16.6758 19.8623C16.6926 19.8217 16.7173 19.7849 16.7483 19.7539C16.7794 19.7229 16.8162 19.6983 16.8568 19.6816C16.8973 19.6648 16.9408 19.6562 16.9846 19.6563H24.9127C25.0012 19.6563 25.0861 19.6914 25.1487 19.754C25.2114 19.8167 25.2465 19.9016 25.2465 19.9901C25.2465 20.0787 25.2114 20.1636 25.1487 20.2262C25.0861 20.2888 25.0012 20.324 24.9127 20.324Z" fill="#CDCACA"/>
<path d="M26.2899 21.4509H16.9846C16.9408 21.451 16.8973 21.4424 16.8568 21.4256C16.8162 21.4089 16.7794 21.3843 16.7483 21.3533C16.7173 21.3223 16.6926 21.2855 16.6758 21.2449C16.659 21.2044 16.6504 21.161 16.6504 21.1171C16.6504 21.0732 16.659 21.0298 16.6758 20.9892C16.6926 20.9487 16.7173 20.9119 16.7483 20.8809C16.7794 20.8499 16.8162 20.8253 16.8568 20.8085C16.8973 20.7918 16.9408 20.7832 16.9846 20.7832H26.2899C26.3337 20.7832 26.3772 20.7918 26.4178 20.8085C26.4583 20.8253 26.4952 20.8499 26.5262 20.8809C26.5572 20.9119 26.5819 20.9487 26.5987 20.9892C26.6155 21.0298 26.6241 21.0732 26.6241 21.1171C26.6241 21.161 26.6155 21.2044 26.5987 21.2449C26.5819 21.2855 26.5572 21.3223 26.5262 21.3533C26.4952 21.3843 26.4583 21.4089 26.4178 21.4256C26.3772 21.4424 26.3337 21.451 26.2899 21.4509Z" fill="#CDCACA"/>
<path d="M15.2089 16.9123H12.4033C12.3608 16.9123 12.3201 16.8954 12.2901 16.8654C12.2601 16.8354 12.2432 16.7947 12.2432 16.7522V14.2548C12.2432 14.2124 12.2601 14.1717 12.2901 14.1417C12.3201 14.1117 12.3608 14.0948 12.4033 14.0947H15.2089C15.2514 14.0948 15.292 14.1117 15.3221 14.1417C15.3521 14.1717 15.369 14.2124 15.369 14.2548V16.7522C15.369 16.7947 15.3521 16.8354 15.3221 16.8654C15.292 16.8954 15.2514 16.9123 15.2089 16.9123Z" fill="#CDCACA"/>
<path d="M15.2089 21.9621H12.4033C12.3608 21.9621 12.3201 21.9452 12.2901 21.9152C12.2601 21.8852 12.2432 21.8445 12.2432 21.802V19.3046C12.2432 19.2622 12.2601 19.2215 12.2901 19.1915C12.3201 19.1615 12.3608 19.1446 12.4033 19.1445H15.2089C15.2514 19.1446 15.292 19.1615 15.3221 19.1915C15.3521 19.2215 15.369 19.2622 15.369 19.3046V21.802C15.369 21.8445 15.3521 21.8852 15.3221 21.9152C15.292 21.9452 15.2514 21.9621 15.2089 21.9621Z" fill="#CDCACA"/>
<path d="M24.922 9.65309H19.077C18.9885 9.65309 18.9036 9.61792 18.841 9.5553C18.7783 9.49269 18.7432 9.40777 18.7432 9.31922C18.7432 9.23067 18.7783 9.14575 18.841 9.08314C18.9036 9.02053 18.9885 8.98535 19.077 8.98535H24.922C25.0106 8.98535 25.0955 9.02053 25.1581 9.08314C25.2207 9.14575 25.2559 9.23067 25.2559 9.31922C25.2559 9.40777 25.2207 9.49269 25.1581 9.5553C25.0955 9.61792 25.0106 9.65309 24.922 9.65309Z" fill="#CCCCCC"/>
<path d="M26.2993 10.78H19.077C19.0332 10.78 18.9898 10.7714 18.9493 10.7546C18.9088 10.7379 18.872 10.7133 18.841 10.6823C18.81 10.6513 18.7854 10.6144 18.7686 10.5739C18.7518 10.5334 18.7432 10.49 18.7432 10.4462C18.7432 10.4023 18.7518 10.3589 18.7686 10.3184C18.7854 10.2779 18.81 10.2411 18.841 10.2101C18.872 10.1791 18.9088 10.1545 18.9493 10.1377C18.9898 10.1209 19.0332 10.1123 19.077 10.1123H26.2993C26.3878 10.1123 26.4727 10.1475 26.5353 10.2101C26.598 10.2727 26.6331 10.3576 26.6331 10.4462C26.6331 10.5347 26.598 10.6196 26.5353 10.6823C26.4727 10.7449 26.3878 10.78 26.2993 10.78Z" fill="#CCCCCC"/>
<path d="M17.7831 12.1448H12.3945C12.352 12.1448 12.3113 12.1279 12.2813 12.0979C12.2513 12.0679 12.2344 12.0272 12.2344 11.9847V7.77923C12.2344 7.73679 12.2513 7.69609 12.2813 7.66608C12.3113 7.63607 12.352 7.61919 12.3945 7.61914H17.7831C17.8255 7.61919 17.8662 7.63607 17.8962 7.66608C17.9262 7.69609 17.9431 7.73679 17.9431 7.77923V11.9847C17.9431 12.0272 17.9262 12.0679 17.8962 12.0979C17.8662 12.1279 17.8255 12.1448 17.7831 12.1448Z" fill="#88ACE0"/>
</svg>
