<svg width="27" height="26" viewBox="0 0 27 26" fill="none" xmlns="http://www.w3.org/2000/svg">
<path d="M8.74824 1.50076V1.0364C8.74824 0.110319 8.19313 -0.0818282 7.58466 0.027601L2.4873 0.948321C1.87616 1.05775 1.42779 1.6075 1.42779 2.24802V3.43295C1.42779 3.86528 1.12623 4.23625 0.71256 4.31099L0.621835 4.32698C0.26421 4.39104 0 4.71129 0 5.08758L0.288231 24.8445C0.288231 24.8445 0.266879 25.1594 0.563117 25.1808C0.870031 25.2021 1.10221 24.9673 1.40911 24.8952L25.332 19.1947C25.6896 19.1307 25.9538 18.8104 25.9538 18.4341V0.812202C25.9538 0.334494 25.5375 -0.0284481 25.0812 0.0516005L10.0533 2.63765C9.37275 2.75776 8.74824 2.50155 8.74824 1.50076Z" fill="#F3AB47"/>
<path d="M26.4608 18.5061L26.9999 2.58689C26.9999 2.10918 26.5835 1.74624 26.1272 1.82629L11.11 4.39366C10.4108 4.51376 9.88502 5.09821 9.84232 5.80543L9.78093 6.81156C9.73289 7.61753 9.13243 8.28474 8.33713 8.41817L2.29235 9.43498C1.69454 9.5364 1.2542 10.0541 1.2542 10.6626L0.562988 25.1754C0.562988 25.1754 0.651044 25.2128 1.64118 24.9619L25.4466 19.3281C25.8069 19.2694 26.2179 18.9331 26.4608 18.5061Z" fill="#E4C958"/>
<path d="M2.19385 9.72068L8.26798 8.68252C9.78919 8.34358 10.032 7.76714 10.0294 6.55552L10.032 6.24326C10.0801 5.33053 10.5231 4.79146 11.4225 4.63665L26.2795 2.06128" stroke="#FFF9C4" stroke-width="0.5" stroke-miterlimit="10" stroke-linecap="round"/>
</svg>
