<svg width="26" height="30" viewBox="0 0 26 30" fill="none" xmlns="http://www.w3.org/2000/svg">
<path d="M13.035 22.9924H13C6.5875 22.9999 0 24.7674 0 29.2399V29.9774H26V29.2399C26 25.0224 19.475 22.9924 13.035 22.9924Z" fill="url(#paint0_linear_2872_2778)"/>
<path d="M13.5699 27.31L14.1624 26.1475L12.9999 24.78L11.8374 26.1475L12.4299 27.31L11.7124 29.9825H12.9999H14.2874L13.5699 27.31Z" fill="#1565C0"/>
<path d="M15.7552 21.8374H10.2452L8.59766 23.6174L10.9677 27.2899L13.0002 24.7799L15.0327 27.2899L17.4027 23.6174L15.7552 21.8374Z" fill="url(#paint1_linear_2872_2778)"/>
<path d="M13 20.075H10.73V22.57C10.73 23.6975 11.655 24.6125 12.795 24.6125H13.2075C14.3475 24.6125 15.2725 23.6975 15.2725 22.57V20.075H13Z" fill="#E59600"/>
<path d="M19.8327 11.6001H6.16773C4.69523 11.6001 3.49023 12.8851 3.49023 14.4526C3.49023 16.0201 4.69523 17.3051 6.16773 17.3051H19.8302C21.3027 17.3051 22.5077 16.0201 22.5077 14.4526C22.5077 12.8851 21.3052 11.6001 19.8327 11.6001Z" fill="#E59600"/>
<path d="M13.0001 1.76001C8.65012 1.76001 4.62012 6.41251 4.62012 13.11C4.62012 19.77 8.77262 23.0625 13.0001 23.0625C17.2276 23.0625 21.3801 19.7675 21.3801 13.1075C21.3801 6.41251 17.3501 1.76001 13.0001 1.76001Z" fill="#FFCA28"/>
<path d="M7.65771 13.6949C7.65771 14.0331 7.78757 14.3574 8.01871 14.5965C8.24984 14.8356 8.56334 14.9699 8.89021 14.9699C9.21709 14.9699 9.53058 14.8356 9.76172 14.5965C9.99286 14.3574 10.1227 14.0331 10.1227 13.6949C10.1227 13.3568 9.99286 13.0325 9.76172 12.7934C9.53058 12.5543 9.21709 12.4199 8.89021 12.4199C8.56334 12.4199 8.24984 12.5543 8.01871 12.7934C7.78757 13.0325 7.65771 13.3568 7.65771 13.6949Z" fill="#404040"/>
<path d="M15.8779 13.6949C15.8779 13.8624 15.9098 14.0282 15.9717 14.1828C16.0337 14.3375 16.1245 14.4781 16.2389 14.5965C16.3534 14.7149 16.4892 14.8088 16.6388 14.8729C16.7883 14.9369 16.9486 14.9699 17.1104 14.9699C17.2723 14.9699 17.4326 14.9369 17.5821 14.8729C17.7316 14.8088 17.8675 14.7149 17.9819 14.5965C18.0964 14.4781 18.1872 14.3375 18.2491 14.1828C18.3111 14.0282 18.3429 13.8624 18.3429 13.6949C18.3429 13.5275 18.3111 13.3617 18.2491 13.207C18.1872 13.0523 18.0964 12.9118 17.9819 12.7934C17.8675 12.675 17.7316 12.5811 17.5821 12.517C17.4326 12.4529 17.2723 12.4199 17.1104 12.4199C16.9486 12.4199 16.7883 12.4529 16.6388 12.517C16.4892 12.5811 16.3534 12.675 16.2389 12.7934C16.1245 12.9118 16.0337 13.0523 15.9717 13.207C15.9098 13.3617 15.8779 13.5275 15.8779 13.6949Z" fill="#404040"/>
<path d="M13.9651 16.0075C13.9376 15.9975 13.9126 15.99 13.8851 15.9875H12.1151C12.0876 15.99 12.0601 15.9975 12.0351 16.0075C11.8751 16.0725 11.7876 16.2375 11.8626 16.415C11.9376 16.5925 12.2901 17.0875 13.0001 17.0875C13.7101 17.0875 14.0626 16.59 14.1376 16.415C14.2126 16.2375 14.1251 16.0725 13.9651 16.0075Z" fill="#E59600"/>
<path d="M15.1055 18.0275C14.3105 18.5 11.698 18.5 10.903 18.0275C10.4455 17.755 9.97796 18.1725 10.168 18.5875C10.3555 18.995 11.778 19.9425 13.0105 19.9425C14.243 19.9425 15.648 18.995 15.8355 18.5875C16.023 18.1725 15.563 17.755 15.1055 18.0275Z" fill="#795548"/>
<path d="M12.9999 0H12.9949H12.9899C1.63239 0.06 3.95989 13.035 3.95989 13.035C3.95989 13.035 4.46989 14.3725 4.70239 14.9625C4.73489 15.0475 4.85989 15.0375 4.87989 14.95C5.12239 13.865 5.99489 10.0175 6.43489 8.8475C6.69489 8.1575 7.40989 7.7575 8.13239 7.89C9.24489 8.0925 11.0199 8.3425 12.9749 8.3425H12.9949H13.0149C14.9699 8.3425 16.7449 8.0925 17.8574 7.89C18.5824 7.7575 19.2974 8.16 19.5549 8.8475C19.9924 10.0125 20.8599 13.8375 21.1049 14.9375C21.1249 15.0275 21.2499 15.035 21.2824 14.95L22.0274 13.0325C22.0324 13.035 24.3599 0.06 12.9999 0Z" fill="#543930"/>
<path d="M22.0324 13.035C22.0324 13.035 24.3599 0.06 12.9999 0H12.9949H12.9899C12.8124 0 12.6399 0.00499993 12.4699 0.0124999C12.1324 0.0274999 11.8049 0.0524999 11.4899 0.0899999H11.4799C11.4574 0.0924999 11.4374 0.0974999 11.4149 0.0999999C1.85495 1.3025 3.95995 13.035 3.95995 13.035L4.70495 14.955C4.73745 15.04 4.85995 15.0325 4.87995 14.9425C5.12495 13.845 5.99495 10.015 6.43495 8.85C6.69495 8.16 7.40995 7.76 8.13245 7.8925C9.24495 8.095 11.0199 8.345 12.9749 8.345H12.9949H13.0149C14.9699 8.345 16.7449 8.095 17.8574 7.8925C18.5824 7.76 19.2974 8.1625 19.5549 8.85C19.9949 10.02 20.8674 13.875 21.1074 14.955C21.1274 15.045 21.2499 15.0525 21.2824 14.9675C21.5199 14.3775 22.0324 13.035 22.0324 13.035Z" fill="url(#paint2_radial_2872_2778)"/>
<path d="M7.00258 11.6725C7.75008 10.615 9.44758 10.515 10.4201 11.3025C10.5751 11.4275 10.7801 11.6025 10.8401 11.7975C10.9401 12.115 10.6351 12.3625 10.3376 12.2875C10.1476 12.24 9.97008 12.1375 9.78258 12.08C9.44008 11.9725 9.19258 11.9425 8.88508 11.9425C8.43008 11.94 8.13758 11.9975 7.70508 12.1725C7.52758 12.245 7.38258 12.36 7.18008 12.275C6.94758 12.18 6.86008 11.8825 7.00258 11.6725Z" fill="#6D4C41"/>
<path d="M18.5175 12.2751C18.445 12.2426 18.375 12.2026 18.3025 12.1726C17.8575 11.9876 17.605 11.9401 17.1225 11.9426C16.6975 11.9451 16.445 12.0026 16.1125 12.1151C15.91 12.1851 15.6525 12.3601 15.4275 12.2926C15.0975 12.1926 15.1075 11.8326 15.2875 11.6026C15.5025 11.3326 15.7975 11.1276 16.11 10.9926C16.835 10.6776 17.72 10.7226 18.4025 11.1301C18.625 11.2626 18.8675 11.4451 19.0025 11.6751C19.1975 12.0001 18.9025 12.4326 18.5175 12.2751Z" fill="#6D4C41"/>
<defs>
<linearGradient id="paint0_linear_2872_2778" x1="13" y1="22.9144" x2="13" y2="29.9172" gradientUnits="userSpaceOnUse">
<stop offset="0.003" stop-color="#E3F2FD"/>
<stop offset="0.225" stop-color="#D6ECFC"/>
<stop offset="0.635" stop-color="#B4DBFB"/>
<stop offset="1" stop-color="#90CAF9"/>
</linearGradient>
<linearGradient id="paint1_linear_2872_2778" x1="13.0002" y1="26.9127" x2="13.0002" y2="22.3544" gradientUnits="userSpaceOnUse">
<stop offset="0.5" stop-color="#F5F5F5"/>
<stop offset="1" stop-color="#DADADA"/>
</linearGradient>
<radialGradient id="paint2_radial_2872_2778" cx="0" cy="0" r="1" gradientUnits="userSpaceOnUse" gradientTransform="translate(12.9957 10.7669) scale(9.52325 10.7441)">
<stop offset="0.794" stop-color="#6D4C41" stop-opacity="0"/>
<stop offset="1" stop-color="#6D4C41"/>
</radialGradient>
</defs>
</svg>
