<svg width="32" height="26" viewBox="0 0 32 26" fill="none" xmlns="http://www.w3.org/2000/svg">
<path d="M14.1032 7.51915C14.1032 7.51915 13.9652 7.1208 13.6658 6.9828C13.369 6.8448 12.8717 6.82397 12.8717 6.82397L12.0386 16.6786L12.7155 21.5422C12.7155 21.5422 12.9134 22.1176 13.4315 22.1384C13.947 22.1593 18.2404 22.1384 18.6179 22.1384C18.9954 22.1384 19.1152 21.6411 19.1334 21.4224C19.1542 21.2037 19.1464 20.8366 19.1464 20.8366L20.9794 20.8288C20.9794 20.8288 21.0861 21.6099 20.9091 22.102C20.7555 22.529 20.6175 22.87 20.6201 23.0158C20.6227 23.2241 20.8987 23.4324 21.2163 23.4142C21.5339 23.3933 22.0104 22.9768 22.328 22.719C22.6457 22.4613 27.7383 22.5211 27.7383 22.5211C27.7383 22.5211 27.9831 22.9742 28.2565 23.2476C28.4205 23.4116 28.6861 23.4923 28.9256 23.4923C29.1651 23.4923 29.462 23.1747 29.4021 22.956C29.3422 22.7373 29.0714 22.2347 29.0245 21.7453C29.0037 21.5239 29.0297 20.9069 29.1391 20.8054C29.1651 20.7819 29.5609 20.795 29.9306 20.7559C30.5607 20.6908 31.1907 19.8759 31.2688 19.2406C31.3495 18.6053 31.2897 16.5979 31.2897 16.5979L14.1032 7.51915Z" fill="#B3AFAF"/>
<path d="M12.5488 18.5532H31.3027C31.3027 18.5532 31.3469 19.0791 31.2558 19.4176C31.1751 19.717 31.0137 19.9149 31.0137 19.9149L12.6556 19.9123L12.5488 18.5532Z" fill="#9A9A9A"/>
<path d="M5.96959 17.7018L1.99909 18.9307L0.0151367 18.246C0.0151367 18.246 0.0854367 14.5124 0.108862 14.1349C0.132312 13.7574 0.226037 13.4267 0.582737 13.1898C0.936812 12.9528 1.92879 12.3618 1.92879 12.3618C1.92879 12.3618 4.97761 7.46963 5.23799 7.11553C5.49834 6.76146 5.81859 6.32926 6.57624 6.25896C7.33389 6.18866 12.01 6.24593 12.4344 6.26936C12.8588 6.29281 13.1764 6.48546 13.1764 7.40713C13.1764 8.32881 13.153 15.3638 13.1295 15.7179C13.1061 16.072 11.333 17.3712 11.333 17.3712L5.96959 17.7018Z" fill="#E0E0E0"/>
<path d="M11.7496 22.1776C11.7496 22.1776 12.1297 22.188 12.3927 22.1515C12.6557 22.1151 13.0514 21.8521 13.0696 21.2299C13.0801 20.8602 13.1295 15.718 13.1295 15.718L6.04771 15.7336L3.75653 18.2409L0.0151332 18.2461C0.0151332 18.2461 -0.000491796 19.7172 0.0099332 20.1103C0.0203582 20.5061 2.05638 21.3679 2.05638 21.3679L11.7496 22.1776Z" fill="#DC0D28"/>
<path d="M0.00992168 20.1103H4.27462C4.27462 20.1103 5.1885 18.2878 7.81555 18.319C11.6741 18.3659 11.7522 22.175 11.7522 22.175H1.70227C1.13727 22.175 0.330172 21.9875 0.124472 21.2741C-0.0499533 20.6753 0.00992168 20.1103 0.00992168 20.1103Z" fill="#B10A1B"/>
<path d="M2.62131 13.3851C2.62131 13.3851 2.62131 12.9607 2.34271 12.9451C2.06411 12.9294 1.75691 13.1039 1.47831 13.3408C1.18411 13.5908 1.03831 13.8173 0.981037 14.0151C0.892512 14.3093 0.965412 14.5723 1.42104 14.5853C1.97821 14.6036 10.8253 14.5463 11.234 14.5124C11.747 14.4682 12.0542 14.2495 12.0386 13.8667C12.0255 13.4996 11.76 13.3825 10.6613 13.3694C9.56254 13.3564 2.62131 13.3851 2.62131 13.3851Z" fill="white"/>
<path d="M0.0984742 14.6271C0.0984742 14.6271 2.75675 14.5437 2.81402 14.6088C2.89475 14.7052 2.91037 15.9601 2.88172 16.1502C2.8531 16.3402 2.60315 16.473 2.29592 16.486C1.9887 16.4991 0.0541992 16.5303 0.0541992 16.5303L0.0984742 14.6271Z" fill="#FDEDC5"/>
<path d="M11.044 12.9295C11.4553 12.9295 11.6011 12.4609 11.6011 12.138V8.05296C11.6011 7.73011 11.3954 7.55569 10.7524 7.52444C10.1067 7.49579 7.16459 7.52964 6.84174 7.54006C6.34444 7.55569 6.00597 7.77439 5.55294 8.40446C5.25874 8.81324 3.44402 11.8178 3.29822 12.0651C3.15242 12.3151 2.97537 12.9738 3.73824 12.9868C4.52712 13.0024 11.044 12.9295 11.044 12.9295Z" fill="#5F6369"/>
<path d="M4.11572 12.2423H10.6768C10.8096 12.2423 10.9268 12.0965 10.9268 11.9194C10.9268 11.7424 10.9372 8.97733 10.9424 8.81328C10.958 8.36025 10.6195 8.25613 10.3279 8.27173C10.0337 8.28736 7.07082 8.27696 6.89637 8.28476C6.5605 8.30038 6.22725 8.75081 5.93565 9.19603C5.58415 9.73498 4.11572 12.2423 4.11572 12.2423Z" fill="#AFE3FB"/>
<path d="M4.21715 12.7264C4.2458 13.3851 5.30025 13.9266 5.56583 13.9423C5.8288 13.9579 5.99023 13.445 6.01885 12.755C6.04748 12.0651 5.77153 11.4949 5.5502 11.4949C5.3315 11.4949 4.19373 12.1692 4.21715 12.7264Z" fill="#5F6369"/>
<path d="M4.44674 22.5915C4.46757 23.8933 5.50382 25.7653 7.75854 25.7783C10.0133 25.7913 11.1849 24.0625 11.112 22.2895C11.0391 20.4878 9.64094 19.2146 7.62837 19.2719C5.74594 19.3292 4.41809 20.7924 4.44674 22.5915Z" fill="#4E433D"/>
<path d="M6.0578 22.5161C6.06822 23.2008 6.61237 24.1902 7.79962 24.198C8.98687 24.2058 9.55967 23.3466 9.52322 22.4119C9.48415 21.4616 8.7265 20.7534 7.73192 20.7691C6.74255 20.7821 6.0448 21.5658 6.0578 22.5161Z" fill="#C8C8C8"/>
<path d="M21.6303 22.5915C21.6512 23.8933 22.6874 25.7653 24.9421 25.7783C27.1969 25.7913 28.3685 24.0625 28.2956 22.2895C28.2227 20.4878 26.8245 19.2146 24.812 19.2719C22.9295 19.3292 21.6017 20.7924 21.6303 22.5915Z" fill="#4E433D"/>
<path d="M23.2419 22.5161C23.2523 23.2008 23.7964 24.1902 24.9837 24.198C26.1683 24.2058 26.7437 23.3466 26.7073 22.4119C26.6682 21.4616 25.9106 20.7534 24.916 20.7691C23.9266 20.7821 23.2289 21.5658 23.2419 22.5161Z" fill="#C8C8C8"/>
<path d="M13.8115 0.98155C13.8115 0.2994 14.1109 0.0260249 14.6577 0.0546749C15.2045 0.0806999 30.1882 0 30.6777 0C31.1672 0 31.3599 0.5181 31.3599 0.817525C31.3599 1.11695 31.2661 16.3064 31.287 16.6006C31.3052 16.8948 31.2245 17.3036 30.7064 17.3583C30.1883 17.4129 14.8217 17.3843 14.4937 17.3583C14.1656 17.3322 13.7568 17.0588 13.7568 16.6761C13.7568 16.2908 13.8115 1.33565 13.8115 0.98155Z" fill="#D16E1D"/>
<path d="M15.1758 1.58042C15.1758 1.93452 15.0664 15.1999 15.0664 15.528C15.0664 15.856 15.2304 16.2387 15.6678 16.2387C16.1053 16.2387 29.5321 16.2648 29.8055 16.2387C30.0788 16.2127 30.2429 16.0487 30.2689 15.6113C30.2949 15.1739 30.2949 1.85642 30.2949 1.41899C30.2949 0.981591 29.8575 0.955566 29.3941 0.955566C28.9307 0.955566 15.8032 0.981591 15.6106 1.01024C15.4205 1.03367 15.1758 1.22634 15.1758 1.58042Z" fill="#F5B03A"/>
<path d="M18.389 16.702C18.3734 11.8984 18.3395 0.695006 18.3942 0.390381L18.7795 0.460681L19.1675 0.507556C19.131 0.937156 19.1493 10.4247 19.1701 16.6994L18.389 16.702Z" fill="#D16E1D"/>
<path d="M22.3721 0.434814H23.1532V16.7282H22.3721V0.434814Z" fill="#D16E1D"/>
<path d="M26.3145 0.447754H27.0955V16.6605H26.3145V0.447754Z" fill="#D16E1D"/>
</svg>
