<svg width="22" height="28" viewBox="0 0 22 28" fill="none" xmlns="http://www.w3.org/2000/svg">
<path d="M10.9961 13.9961L6.9152 14.282C2.86076 15.9021 0 19.8639 0 24.5001V28.0001H22V24.5001C22 19.886 19.1514 15.9306 15.1188 14.2987L10.9961 13.9961Z" fill="#433B6B"/>
<path d="M13.71 14.1201H8.29004L8.30004 28H13.71V14.1201Z" fill="#D3D3D3"/>
<path d="M13.8744 13.8804L13.71 14.0402V27.9902L16.46 20.1302C16.58 19.7702 16.49 19.3802 16.22 19.1202L14.86 17.7902C14.69 17.6202 14.81 17.3402 15.05 17.3402H16.1C16.31 17.3402 16.45 17.1202 16.36 16.9302L15.13 14.3102C15.1287 14.3073 15.1274 14.3045 15.1261 14.3018C14.7203 14.1372 14.3025 13.9962 13.8744 13.8804Z" fill="#8D65C5"/>
<path d="M6.91243 14.2831C6.91153 14.2854 6.91063 14.2878 6.90973 14.2901L5.63973 16.9801C5.54973 17.1701 5.69973 17.3901 5.90973 17.3901H6.95973C7.19973 17.3901 7.30973 17.6801 7.14973 17.8401L5.78973 19.1701C5.52973 19.4301 5.42973 19.8201 5.55973 20.1701L8.28973 27.9901H8.29973V14.0901L7.87473 13.9495C7.54733 14.0462 7.22633 14.1577 6.91243 14.2831Z" fill="#8D65C5"/>
<path d="M10.9902 16.6799L9.31017 16.9999L10.2902 19.1099L8.93018 27.9999H13.0402L11.6902 19.1099L12.6602 16.9999L10.9902 16.6799Z" fill="#321B41"/>
<path d="M11 13.3101H8.29004V18.0501C8.29004 18.3601 8.65004 18.5401 8.90004 18.3401L11 16.6701L13.1 18.3401C13.35 18.5401 13.71 18.3601 13.71 18.0501V13.3101H11Z" fill="#E6E6E6"/>
<path d="M11 16.5C9.8932 16.5 9 15.5359 9 14.3413V11.6587C9 10.4641 9.8932 9.5 11 9.5C12.1068 9.5 13 10.4641 13 11.6587V14.3413C13 15.5359 12.1068 16.5 11 16.5Z" fill="#FCB100"/>
<path d="M17.2499 3.29C16.9499 2.77 16.4799 2.41 15.9599 2.23C15.3899 2.04 14.8899 1.66 14.5799 1.15C14.1599 0.46 13.3999 0 12.5399 0C12.2099 0 11.8899 0.0700001 11.6099 0.19C11.2199 0.36 10.7799 0.36 10.3899 0.19C10.0999 0.0700001 9.78988 0 9.45988 0C8.60988 0 7.85988 0.44 7.43988 1.11C7.10988 1.63 6.61988 2.03 6.02988 2.23C5.47988 2.42 4.99988 2.81 4.70992 3.36C4.27992 4.16 4.36992 5.12 4.85992 5.83C5.02988 6.09 5.12988 6.4 5.12988 6.71V10.88C5.12988 11.81 5.71988 12.63 6.59988 12.94L8.48988 13.59V6.17C8.63988 6.03 8.75988 5.86 8.86988 5.67C9.03988 5.38 9.13988 5.06 9.16988 4.75C9.25988 4.76 9.35988 4.77 9.44988 4.77C10.0399 4.77 10.5799 4.56 10.9899 4.2C11.4099 4.55 11.9399 4.77 12.5299 4.77C12.6299 4.77 12.7199 4.76 12.8099 4.75C12.8499 5.07 12.9399 5.38 13.1099 5.67C13.2199 5.86 13.3499 6.02 13.4899 6.17V13.6L15.3799 12.95C16.2599 12.65 16.8499 11.82 16.8499 10.89V6.72C16.8499 6.41 16.9499 6.1 17.1299 5.84C17.6499 5.1 17.7199 4.11 17.2499 3.29Z" fill="#F1A11E"/>
<path d="M7.76974 8.5899C7.76974 9.5122 7.02204 10.2599 6.09974 10.2599C5.17734 10.2599 4.42969 9.5122 4.42969 8.5899C4.42969 7.66761 5.17734 6.91992 6.09974 6.91992C7.02204 6.91992 7.76974 7.66761 7.76974 8.5899Z" fill="#FDBB11"/>
<path d="M17.5597 8.5899C17.5597 9.5122 16.812 10.2599 15.8897 10.2599C14.9674 10.2599 14.2197 9.5122 14.2197 8.5899C14.2197 7.66761 14.9674 6.91992 15.8897 6.91992C16.812 6.91992 17.5597 7.66761 17.5597 8.5899Z" fill="#FDBB11"/>
<path d="M5.75 6.18812C5.8253 4.41802 7.3341 3 9.1775 3H10.4852C10.7669 3 11.0084 3.16585 11.119 3.40976C11.5214 4.27805 12.4167 4.82439 13.3925 4.82439H14.8311C15.6359 4.86341 16.2697 5.51707 16.2495 6.30731L16.2375 6.80981L15.9276 11.6439C15.6559 13.5659 13.976 15 11.974 15H10.0627C8.0708 15 6.3808 13.5659 6.1192 11.6439L5.75 6.18812Z" fill="#FFC83D"/>
<path d="M7.18016 8.28C7.33016 7.65995 7.89016 7.19995 8.56016 7.19995C9.26016 7.19995 9.83016 7.68995 9.96016 8.35C9.99016 8.5 9.88016 8.63 9.73016 8.63H7.45016C7.27016 8.63 7.13016 8.45 7.18016 8.28Z" fill="white"/>
<path d="M14.8299 8.28C14.6799 7.65995 14.1199 7.19995 13.4499 7.19995C12.7499 7.19995 12.1799 7.68995 12.0499 8.35C12.0199 8.5 12.1299 8.63 12.2799 8.63H14.5599C14.7399 8.63 14.8699 8.46 14.8299 8.28Z" fill="white"/>
<path d="M7.86035 8.39C7.86035 7.88998 8.27035 7.47998 8.77035 7.47998C9.28035 7.47998 9.69035 7.88998 9.68035 8.39C9.68035 8.47 9.67035 8.55 9.65035 8.63H7.89035C7.87035 8.55 7.86035 8.47 7.86035 8.39Z" fill="#7D4533"/>
<path d="M14.1501 8.39C14.1501 7.88998 13.7401 7.47998 13.2401 7.47998C12.7301 7.47998 12.3301 7.88998 12.3301 8.39C12.3301 8.47 12.3401 8.55 12.3601 8.63H14.1201C14.1401 8.55 14.1501 8.47 14.1501 8.39Z" fill="#7D4533"/>
<path d="M8.77 7.87012C9.06 7.87012 9.29 8.1001 9.29 8.3901C9.29 8.4801 9.27 8.5601 9.23 8.6301H8.31C8.27 8.5601 8.25 8.4801 8.25 8.3901C8.25 8.1001 8.48 7.87012 8.77 7.87012Z" fill="black"/>
<path d="M13.2397 7.87012C12.9497 7.87012 12.7197 8.1001 12.7197 8.3901C12.7197 8.4801 12.7397 8.5601 12.7797 8.6301H13.6997C13.7397 8.5601 13.7597 8.4801 13.7597 8.3901C13.7597 8.1001 13.5297 7.87012 13.2397 7.87012Z" fill="black"/>
<path d="M8.6198 8.0199C8.6198 8.1082 8.5482 8.1799 8.4598 8.1799C8.3715 8.1799 8.2998 8.1082 8.2998 8.0199C8.2998 7.9315 8.3715 7.85986 8.4598 7.85986C8.5482 7.85986 8.6198 7.9315 8.6198 8.0199Z" fill="white"/>
<path d="M13.1198 8.0199C13.1198 8.1082 13.0482 8.1799 12.9598 8.1799C12.8715 8.1799 12.7998 8.1082 12.7998 8.0199C12.7998 7.9315 12.8715 7.85986 12.9598 7.85986C13.0482 7.85986 13.1198 7.9315 13.1198 8.0199Z" fill="white"/>
<path d="M10.6544 8.28971L10.1586 10.0282C10.0557 10.384 10.2989 10.75 10.645 10.75H11.3746C11.7207 10.75 11.9639 10.384 11.861 10.0282L11.3653 8.28971C11.2624 7.90343 10.7666 7.90343 10.6544 8.28971Z" fill="#ED9200"/>
<path d="M11.0005 11.7057C10.45 11.7057 9.93008 11.5669 9.49178 11.3212C9.33888 11.2358 9.18598 11.4174 9.27768 11.5669C9.64468 12.1542 10.2767 12.5493 11.0005 12.5493C11.7243 12.5493 12.3563 12.1542 12.7233 11.5669C12.8151 11.4174 12.652 11.2465 12.5093 11.3212C12.0607 11.5669 11.551 11.7057 11.0005 11.7057Z" fill="#990839"/>
<path d="M7.34512 6.42675C7.39162 6.45985 7.44732 6.4776 7.50442 6.47752C7.56622 6.47719 7.62612 6.45605 7.67442 6.41752C8.11622 6.1244 8.64812 5.99852 9.17442 6.06252C9.21002 6.0671 9.24612 6.06448 9.28062 6.0548C9.31512 6.04513 9.34732 6.0286 9.37532 6.0062C9.40332 5.9838 9.42652 5.956 9.44362 5.92444C9.46062 5.89288 9.47112 5.85822 9.47442 5.82252C9.48172 5.75118 9.46082 5.67981 9.41612 5.62372C9.37152 5.56763 9.30662 5.5313 9.23542 5.52252C8.56632 5.43577 7.88882 5.60156 7.33542 5.98752C7.29042 6.02264 7.25752 6.07095 7.24132 6.1257C7.22502 6.18044 7.22632 6.23888 7.24502 6.29286C7.26362 6.34683 7.29862 6.39364 7.34512 6.42675Z" fill="#D37034"/>
<path d="M14.3466 6.42156C14.3943 6.45782 14.4526 6.47749 14.5126 6.47756C14.5697 6.47799 14.6266 6.46048 14.6732 6.4275C14.7199 6.39453 14.755 6.34774 14.7737 6.29374C14.7923 6.23974 14.7936 6.18124 14.7773 6.12649C14.7609 6.07174 14.7278 6.0235 14.6826 5.98856C14.1285 5.60393 13.4517 5.43794 12.7826 5.52256C12.7121 5.53301 12.6485 5.57049 12.6052 5.62707C12.5619 5.68364 12.5423 5.75486 12.5507 5.82561C12.559 5.89636 12.5945 5.96109 12.6498 6.00607C12.705 6.05105 12.7756 6.07275 12.8466 6.06656C13.373 6.00148 13.9052 6.12745 14.3466 6.42156Z" fill="#D37034"/>
</svg>
