<svg width="22" height="34" viewBox="0 0 22 34" fill="none" xmlns="http://www.w3.org/2000/svg">
<path d="M10.9649 1C13.3052 1 15.5496 1.92965 17.2043 3.58444C18.8591 5.23923 19.7888 7.48361 19.7888 9.82384V21.3321C19.7876 21.5307 19.7276 21.7244 19.6165 21.8889C19.5054 22.0535 19.348 22.1814 19.1643 22.2567C13.9015 24.3656 8.02842 24.3656 2.76559 22.2567C2.58186 22.1814 2.42451 22.0535 2.31338 21.8889C2.20225 21.7244 2.14231 21.5307 2.14111 21.3321V9.82384C2.14111 7.48361 3.07076 5.23923 4.72555 3.58444C6.38034 1.92965 8.62472 1 10.9649 1Z" fill="#724F3D"/>
<path d="M10.9649 1C8.62472 1 6.38034 1.92965 4.72555 3.58444C3.07076 5.23923 2.14111 7.48361 2.14111 9.82384V12.2569C2.14111 9.91665 3.07076 7.67228 4.72555 6.01748C6.38034 4.36269 8.62472 3.43304 10.9649 3.43304C13.3052 3.43304 15.5496 4.36269 17.2043 6.01748C18.8591 7.67228 19.7888 9.91665 19.7888 12.2569V9.82384C19.7888 7.48361 18.8591 5.23923 17.2043 3.58444C15.5496 1.92965 13.3052 1 10.9649 1Z" fill="#A86C4D"/>
<path d="M10.9649 1C13.3052 1 15.5496 1.92965 17.2043 3.58444C18.8591 5.23923 19.7888 7.48361 19.7888 9.82384V21.3321C19.7876 21.5307 19.7276 21.7244 19.6165 21.8889C19.5054 22.0535 19.348 22.1814 19.1643 22.2567C13.9015 24.3656 8.02842 24.3656 2.76559 22.2567C2.58186 22.1814 2.42451 22.0535 2.31338 21.8889C2.20225 21.7244 2.14231 21.5307 2.14111 21.3321V9.82384C2.14111 7.48361 3.07076 5.23923 4.72555 3.58444C6.38034 1.92965 8.62472 1 10.9649 1Z" stroke="#45413C" stroke-linecap="round" stroke-linejoin="round"/>
<path opacity="0.15" d="M0 32.7834C-3.02994e-08 32.9432 0.283197 33.1014 0.83342 33.249C1.38364 33.3966 2.19012 33.5307 3.2068 33.6436C4.22348 33.7566 5.43045 33.8462 6.75881 33.9073C8.08717 33.9685 9.51089 33.9999 10.9487 33.9999C12.3865 33.9999 13.8102 33.9685 15.1386 33.9073C16.4669 33.8462 17.6739 33.7566 18.6906 33.6436C19.7073 33.5307 20.5137 33.3966 21.064 33.249C21.6142 33.1014 21.8974 32.9432 21.8974 32.7834C21.8974 32.6237 21.6142 32.4655 21.064 32.3179C20.5137 32.1703 19.7073 32.0362 18.6906 31.9232C17.6739 31.8102 16.4669 31.7206 15.1386 31.6595C13.8102 31.5984 12.3865 31.5669 10.9487 31.5669C9.51089 31.5669 8.08717 31.5984 6.75881 31.6595C5.43045 31.7206 4.22348 31.8102 3.2068 31.9232C2.19012 32.0362 1.38364 32.1703 0.83342 32.3179C0.283197 32.4655 -2.14249e-08 32.6237 0 32.7834Z" fill="#45413C"/>
<path d="M17.0798 22.5162L10.9647 20.2129L4.84969 22.5405C3.81277 22.9362 2.92035 23.6372 2.29043 24.551C1.6605 25.4647 1.32273 26.5482 1.32178 27.658V32.3781H20.6077V27.6337C20.6067 26.5238 20.269 25.4404 19.639 24.5267C19.0091 23.6129 18.1167 22.9118 17.0798 22.5162Z" fill="#4ACFFF"/>
<path d="M17.0798 22.5162L10.9647 20.2129L4.84969 22.5405C3.81277 22.9362 2.92035 23.6372 2.29043 24.551C1.6605 25.4647 1.32273 26.5482 1.32178 27.658V30.091C1.32273 28.9812 1.6605 27.8978 2.29043 26.984C2.92035 26.0703 3.81277 25.3692 4.84969 24.9735L10.9647 22.6459L17.0798 24.9735C18.1167 25.3692 19.0091 26.0703 19.639 26.984C20.269 27.8978 20.6067 28.9812 20.6077 30.091V27.658C20.6117 26.544 20.2762 25.4552 19.646 24.5367C19.0157 23.6181 18.1206 22.9133 17.0798 22.5162Z" fill="#00B8F0"/>
<path d="M17.0798 22.5162L10.9647 20.2129L4.84969 22.5405C3.81277 22.9362 2.92035 23.6372 2.29043 24.551C1.6605 25.4647 1.32273 26.5482 1.32178 27.658V32.3781H20.6077V27.6337C20.6067 26.5238 20.269 25.4404 19.639 24.5267C19.0091 23.6129 18.1167 22.9118 17.0798 22.5162Z" stroke="#45413C" stroke-linecap="round" stroke-linejoin="round"/>
<path d="M5.63663 22.2161L4.0957 25.7602L6.06647 26.5226L4.84995 27.585L6.87748 32.3781H8.75904L6.60985 21.843L5.63663 22.2161Z" fill="#009FD9" stroke="#45413C" stroke-linecap="round" stroke-linejoin="round"/>
<path d="M10.965 20.1882L6.60986 21.8427L8.75905 32.3778H13.171L15.3202 21.8427L10.965 20.1882Z" fill="white" stroke="#45413C" stroke-linecap="round" stroke-linejoin="round"/>
<path d="M5.63663 22.2163L4.0957 25.7604L6.06647 26.5227L4.84995 27.5852L6.87748 32.3783H9.1321L8.04534 21.2998L5.63663 22.2163Z" fill="#009FD9" stroke="#45413C" stroke-linecap="round" stroke-linejoin="round"/>
<path d="M16.2928 22.2163L17.8338 25.7604L15.863 26.5227L17.0795 27.5852L15.052 32.3783H12.7974L13.8841 21.2998L16.2928 22.2163Z" fill="#009FD9" stroke="#45413C" stroke-linecap="round" stroke-linejoin="round"/>
<path d="M10.9652 20.2129C10.9652 20.2129 6.91016 20.2129 6.91016 22.4999C6.98373 24.206 7.59714 25.8446 8.66195 27.1795L10.9652 25.2087L13.3091 27.1795C14.3739 25.8446 14.9873 24.206 15.0608 22.4999C15.0608 20.2129 10.9652 20.2129 10.9652 20.2129Z" fill="#F0F0F0" stroke="#45413C" stroke-linecap="round" stroke-linejoin="round"/>
<path d="M10.9648 17.9175C10.6936 17.9175 10.425 17.971 10.1746 18.0751C9.92412 18.1791 9.69667 18.3316 9.50528 18.5237C9.31389 18.7158 9.16232 18.9439 9.05927 19.1948C8.95623 19.4456 8.90373 19.7144 8.9048 19.9856V22.297C8.9048 23.4324 10.9648 25.2085 10.9648 25.2085C10.9648 25.2085 13.0248 23.4324 13.0248 22.297V19.9856C13.0258 19.7144 12.9733 19.4456 12.8703 19.1948C12.7672 18.9439 12.6157 18.7158 12.4243 18.5237C12.2329 18.3316 12.0054 18.1791 11.755 18.0751C11.5045 17.971 11.236 17.9175 10.9648 17.9175Z" fill="#FFE500"/>
<path d="M10.9648 17.9175C10.4184 17.9175 9.89446 18.1345 9.50814 18.5208C9.12182 18.9072 8.90479 19.4311 8.90479 19.9775V20.4641C8.90479 21.0104 9.12182 21.5344 9.50814 21.9207C9.89446 22.307 10.4184 22.524 10.9648 22.524C11.5111 22.524 12.0351 22.307 12.4214 21.9207C12.8077 21.5344 13.0247 21.0104 13.0247 20.4641V19.9856C13.0258 19.7144 12.9733 19.4456 12.8703 19.1948C12.7672 18.9439 12.6157 18.7158 12.4243 18.5237C12.2329 18.3316 12.0054 18.1791 11.755 18.0751C11.5045 17.971 11.236 17.9175 10.9648 17.9175Z" fill="#EBCB00"/>
<path d="M10.9648 17.9175C10.6936 17.9175 10.425 17.971 10.1746 18.0751C9.92412 18.1791 9.69667 18.3316 9.50528 18.5237C9.31389 18.7158 9.16232 18.9439 9.05927 19.1948C8.95623 19.4456 8.90373 19.7144 8.9048 19.9856V22.297C8.9048 23.4324 10.9648 25.2085 10.9648 25.2085C10.9648 25.2085 13.0248 23.4324 13.0248 22.297V19.9856C13.0258 19.7144 12.9733 19.4456 12.8703 19.1948C12.7672 18.9439 12.6157 18.7158 12.4243 18.5237C12.2329 18.3316 12.0054 18.1791 11.755 18.0751C11.5045 17.971 11.236 17.9175 10.9648 17.9175Z" stroke="#45413C" stroke-linecap="round" stroke-linejoin="round"/>
<path d="M18.3207 11.6644C17.2976 11.378 16.3521 10.8647 15.5546 10.1626C14.7571 9.46061 14.128 8.58791 13.7141 7.60937L13.2113 6.42529C11.2558 9.05894 8.37012 10.8483 5.14171 11.4293L3.6089 11.705C3.23737 11.7326 2.89003 11.8997 2.63655 12.1727C2.38306 12.4457 2.24219 12.8044 2.24219 13.177C2.24219 13.5495 2.38306 13.9083 2.63655 14.1813C2.89003 14.4543 3.23737 14.6214 3.6089 14.649H3.70622C3.89599 16.4418 4.74253 18.1009 6.08273 19.3068C7.42293 20.5126 9.16197 21.1798 10.9648 21.1798C12.7676 21.1798 14.5067 20.5126 15.8469 19.3068C17.1871 18.1009 18.0336 16.4418 18.2234 14.649H18.3207C18.6922 14.6214 19.0396 14.4543 19.293 14.1813C19.5465 13.9083 19.6874 13.5495 19.6874 13.177C19.6874 12.8044 19.5465 12.4457 19.293 12.1727C19.0396 11.8997 18.6922 11.7326 18.3207 11.705V11.6644Z" fill="#FFE500" stroke="#45413C" stroke-linecap="round" stroke-linejoin="round"/>
<path d="M6.56104 12.8408C6.56104 13.0064 6.62683 13.1653 6.74394 13.2824C6.86105 13.3995 7.01989 13.4653 7.18552 13.4653C7.35114 13.4653 7.50998 13.3995 7.62709 13.2824C7.7442 13.1653 7.81 13.0064 7.81 12.8408C7.81 12.6752 7.7442 12.5163 7.62709 12.3992C7.50998 12.2821 7.35114 12.2163 7.18552 12.2163C7.01989 12.2163 6.86105 12.2821 6.74394 12.3992C6.62683 12.5163 6.56104 12.6752 6.56104 12.8408Z" fill="#45413C" stroke="#45413C" stroke-linecap="round" stroke-linejoin="round"/>
<path d="M15.3686 12.8408C15.3686 13.0064 15.3028 13.1653 15.1857 13.2824C15.0686 13.3995 14.9097 13.4653 14.7441 13.4653C14.5785 13.4653 14.4196 13.3995 14.3025 13.2824C14.1854 13.1653 14.1196 13.0064 14.1196 12.8408C14.1196 12.6752 14.1854 12.5163 14.3025 12.3992C14.4196 12.2821 14.5785 12.2163 14.7441 12.2163C14.9097 12.2163 15.0686 12.2821 15.1857 12.3992C15.3028 12.5163 15.3686 12.6752 15.3686 12.8408Z" fill="#45413C" stroke="#45413C" stroke-linecap="round" stroke-linejoin="round"/>
<path d="M8.66141 16.6445C8.61088 16.6456 8.56111 16.657 8.5151 16.6779C8.46909 16.6988 8.42782 16.7288 8.39377 16.7662C8.35916 16.8056 8.33389 16.8523 8.31985 16.9029C8.30581 16.9534 8.30335 17.0065 8.31267 17.0581C8.42218 17.682 8.74811 18.2473 9.23315 18.6546C9.71819 19.0619 10.3313 19.2852 10.9647 19.2852C11.5981 19.2852 12.2112 19.0619 12.6962 18.6546C13.1813 18.2473 13.5072 17.682 13.6167 17.0581C13.626 17.0065 13.6236 16.9534 13.6095 16.9029C13.5955 16.8523 13.5702 16.8056 13.5356 16.7662C13.5019 16.7285 13.4606 16.6982 13.4146 16.6772C13.3685 16.6563 13.3186 16.6451 13.268 16.6445H8.66141Z" fill="#FF6242"/>
<path d="M10.9651 17.7798C10.2338 17.758 9.51564 17.9775 8.92139 18.4043C9.17555 18.6912 9.4877 18.9208 9.83722 19.0781C10.1867 19.2354 10.5656 19.3168 10.9489 19.3168C11.3322 19.3168 11.7111 19.2354 12.0606 19.0781C12.4101 18.9208 12.7223 18.6912 12.9765 18.4043C12.3911 17.9842 11.6855 17.7651 10.9651 17.7798Z" fill="#FFA694"/>
<path d="M8.66141 16.6445C8.61088 16.6456 8.56111 16.657 8.5151 16.6779C8.46909 16.6988 8.42782 16.7288 8.39377 16.7662C8.35916 16.8056 8.33389 16.8523 8.31985 16.9029C8.30581 16.9534 8.30335 17.0065 8.31267 17.0581C8.42218 17.682 8.74811 18.2473 9.23315 18.6546C9.7182 19.0619 10.3313 19.2852 10.9647 19.2852C11.5981 19.2852 12.2112 19.0619 12.6962 18.6546C13.1813 18.2473 13.5072 17.682 13.6167 17.0581C13.626 17.0065 13.6236 16.9534 13.6095 16.9029C13.5955 16.8523 13.5702 16.8056 13.5356 16.7662C13.5019 16.7285 13.4606 16.6982 13.4146 16.6772C13.3685 16.6563 13.3186 16.6451 13.268 16.6445H8.66141Z" stroke="#45413C" stroke-linecap="round" stroke-linejoin="round"/>
<path d="M5.33643 15.501C5.33643 15.6301 5.42187 15.7538 5.57397 15.8451C5.72606 15.9364 5.93235 15.9876 6.14744 15.9876C6.36253 15.9876 6.56882 15.9364 6.72091 15.8451C6.87301 15.7538 6.95846 15.6301 6.95846 15.501C6.95846 15.372 6.87301 15.2482 6.72091 15.1569C6.56882 15.0657 6.36253 15.0144 6.14744 15.0144C5.93235 15.0144 5.72606 15.0657 5.57397 15.1569C5.42187 15.2482 5.33643 15.372 5.33643 15.501Z" fill="#FFAA54"/>
<path d="M14.9712 15.501C14.9712 15.6301 15.0566 15.7538 15.2087 15.8451C15.3608 15.9364 15.5671 15.9876 15.7822 15.9876C15.9973 15.9876 16.2036 15.9364 16.3557 15.8451C16.5078 15.7538 16.5932 15.6301 16.5932 15.501C16.5932 15.372 16.5078 15.2482 16.3557 15.1569C16.2036 15.0657 15.9973 15.0144 15.7822 15.0144C15.5671 15.0144 15.3608 15.0657 15.2087 15.1569C15.0566 15.2482 14.9712 15.372 14.9712 15.501Z" fill="#FFAA54"/>
</svg>
