<svg width="27" height="27" viewBox="0 0 27 27" fill="none" xmlns="http://www.w3.org/2000/svg">
<path d="M10.5 25.4999C10.5 26.3279 11.172 26.9999 12 26.9999H25.4999C26.3279 26.9999 26.9999 26.3279 26.9999 25.4999V10.5C26.9999 9.672 26.3279 9 25.4999 9H12C11.172 9 10.5 9.672 10.5 10.5V25.4999Z" fill="#FFCC4D"/>
<path d="M25.5 9H15V10.5H27C27 9.672 26.328 9 25.5 9Z" fill="#BCBEC0"/>
<path d="M15 12H25.5V27H15V12Z" fill="#55ACEE"/>
<path d="M13.5 0H1.49999C0.671998 0 0 0.671998 0 1.49999V25.4999C0 26.3279 0.671998 26.9999 1.49999 26.9999H15V1.49999C15 0.671998 14.328 0 13.5 0Z" fill="#FFE8B6"/>
<path d="M13.5 0H1.49999C0.671998 0 0 0.671998 0 1.49999H15C15 0.671998 14.328 0 13.5 0Z" fill="#BCBEC0"/>
<path d="M1.5 16.5H13.5V19.4999H1.5V16.5ZM1.5 12H13.5V15H1.5V12ZM1.5 7.49999H13.5V10.5H1.5V7.49999ZM1.5 3H13.5V5.99999H1.5V3ZM1.5 20.9999H13.5V26.9999H1.5V20.9999Z" fill="#55ACEE"/>
<path d="M4.49951 23.9998H10.4995V26.9997H4.49951V23.9998ZM17.2495 23.9998H23.2494V26.9997H17.2495V23.9998Z" fill="#3B88C3"/>
<path d="M15 19.5H26.25V21H15V19.5ZM15 15H26.25V16.5H15V15Z" fill="#FFCC4D"/>
<path d="M27 5.24999C27 6.07799 26.328 6.74998 25.5 6.74998H18C17.172 6.74998 16.5 6.07799 16.5 5.24999V3.75C16.5 2.922 17.172 2.25 18 2.25H25.5C26.328 2.25 27 2.922 27 3.75V5.24999Z" fill="#DD2E44"/>
<path d="M19.5 6.75H21V8.99999H19.5V6.75ZM22.5 6.75H24V8.99999H22.5V6.75Z" fill="#58595B"/>
<path d="M17.9995 3.75H19.4995V5.24999H17.9995V3.75Z" fill="#F4ABBA"/>
<path d="M19.5 3.75H21V5.24999H19.5V3.75Z" fill="white"/>
<path d="M20.9995 3.75H22.4995V5.24999H20.9995V3.75Z" fill="#F4ABBA"/>
<path d="M22.5 3.75H24V5.24999H22.5V3.75Z" fill="white"/>
<path d="M24 3.75H25.5V5.24999H24V3.75Z" fill="#F4ABBA"/>
</svg>
