<svg width="24" height="25" viewBox="0 0 24 25" fill="none" xmlns="http://www.w3.org/2000/svg">
<path d="M12.277 0C8.55841 0 5.24302 1.63095 2.99683 4.21662C2.31235 5.00534 1.72582 5.8814 1.25928 6.82905L5.39014 9.98433C5.86888 8.53159 6.79332 7.28497 8.00217 6.40302C9.19922 5.5309 10.6752 5.01557 12.2766 5.01557C14.0067 5.01557 15.5692 5.62885 16.7969 6.63196L20.3684 3.0656C18.1926 1.1703 15.4024 0 12.277 0Z" fill="#FF7976"/>
<path d="M1.25952 6.82865L5.39039 9.98394C5.86913 8.53119 6.79357 7.28458 8.00242 6.40262C9.19947 5.5305 10.6754 5.01518 12.2769 5.01518C14.0069 5.01518 15.5694 5.62846 16.7972 6.63157L20.3687 3.0652C18.1921 1.17069 15.4023 0 12.2769 0" fill="#E3443A"/>
<path d="M5.02265 12.2596C5.02265 12.1467 5.03091 12.0354 5.03603 11.9236C5.06828 11.2486 5.18826 10.598 5.39046 9.9839L1.2596 6.82861C0.499984 8.36948 0.0594001 10.0948 0.00983445 11.9236C0.00668742 12.0358 0 12.1471 0 12.2596C0 12.3725 0.00668745 12.4842 0.0094411 12.5963C0.0590067 14.4228 0.49959 16.1473 1.25724 17.6866L5.38692 14.5254C5.18669 13.9145 5.0675 13.2666 5.03603 12.5959C5.03091 12.4842 5.02265 12.3729 5.02265 12.2596Z" fill="#F4D72C"/>
<path d="M1.25757 17.6866L5.38725 14.5254C5.18702 13.9145 5.06783 13.2666 5.03636 12.5959C5.03125 12.4838 5.02298 12.3725 5.02298 12.2592C5.02298 12.1463 5.03125 12.035 5.03636 11.9233C5.06862 11.2482 5.1886 10.5976 5.39079 9.98351L1.25954 6.82861" fill="#F7B92B"/>
<path d="M16.3544 18.4321C15.2478 19.1291 13.8541 19.504 12.277 19.504C11.3541 19.504 10.4749 19.3286 9.66459 19.0166C9.06783 18.7869 8.51081 18.4797 8.00217 18.1099C6.79371 17.2299 5.86888 15.9872 5.39014 14.5356L1.25928 17.6905C1.72504 18.6366 2.31038 19.5115 2.99368 20.299C5.23987 22.8875 8.55762 24.5196 12.277 24.5196C13.4021 24.5196 14.5079 24.3693 15.5637 24.0766C17.3189 23.5896 18.9365 22.7081 20.276 21.4642L16.3544 18.4321Z" fill="#59C96E"/>
<path d="M1.25952 17.6904C1.72528 18.6365 2.31063 19.5114 2.99393 20.2989C5.24011 22.8873 8.55787 24.5195 12.2773 24.5195C13.4023 24.5195 14.5081 24.3692 15.5639 24.0765C17.3192 23.5895 18.9368 22.708 20.2762 21.4641L16.3542 18.4323C15.2477 19.1294 13.8539 19.5043 12.2769 19.5043C11.354 19.5043 10.4748 19.3289 9.66444 19.0169C9.06768 18.7872 8.51066 18.4799 8.00202 18.1102" fill="#40A557"/>
<path d="M23.7174 9.89941H22.9813H12.3916V11.9237V12.5964V14.62H18.8623C18.533 16.1935 17.6369 17.6238 16.3545 18.4322L20.2765 21.4639C21.352 20.4656 22.2453 19.2126 22.8881 17.7634C23.593 16.1758 23.9963 14.2742 23.9963 12.1845C23.9963 11.4607 23.8849 10.6862 23.7174 9.89941Z" fill="#0FAEF4"/>
<path d="M20.2764 21.4639C21.3519 20.4656 22.2531 19.1985 22.8959 17.7493C23.6008 16.1616 24.0001 14.2671 24.0001 12.1779C24.0001 11.4537 23.8848 10.6862 23.7172 9.89941H23.0127" fill="#4087ED"/>
<path d="M12.3916 11.8662V12.5963V14.6199H18.6857" fill="#4087ED"/>
</svg>
