<svg width="157" height="157" viewBox="0 0 157 157" fill="none" xmlns="http://www.w3.org/2000/svg">
<path d="M45.9989 90.2892V82.158C45.9999 78.9687 45.1674 75.8352 43.585 73.0721C42.0026 70.3089 39.7259 68.0134 36.9835 66.4159C34.2333 64.8328 31.1201 64 27.9519 64C24.7838 64 21.6705 64.8328 18.9203 66.4159C16.196 68.0257 13.9387 70.3266 12.3737 73.0888C10.8088 75.8511 9.99097 78.9782 10.0019 82.158V90.2892C9.95884 93.1041 10.6604 95.8798 12.0345 98.3317C13.4087 100.784 15.406 102.824 17.8217 104.242C20.8962 106.048 24.3921 107 27.9519 107C31.5117 107 35.0076 106.048 38.0821 104.242C40.5159 102.836 42.5326 100.802 43.9243 98.3487C45.316 95.8959 46.0322 93.1137 45.9989 90.2892Z" fill="#DFE8F4"/>
<path d="M63.6502 154.811C65.1815 153.917 66.4055 152.583 67.1616 150.985C67.9177 149.386 68.1705 147.597 67.887 145.853C66.9163 139.596 64.4653 133.657 60.736 128.528C57.0068 123.399 52.1062 119.225 46.4383 116.352C40.7703 113.478 34.4973 111.986 28.1365 112C21.7757 112.014 15.5093 113.532 9.85382 116.43C6.8546 117.983 4.34618 120.332 2.60694 123.217C0.867706 126.103 -0.0343129 129.412 0.000998356 132.776H0.132369C0.136186 137.071 1.64852 141.229 4.40753 144.53C7.16654 147.832 10.9985 150.069 15.24 150.855C29.6161 153.518 44.1534 155.233 58.7567 155.988C60.4682 156.078 62.169 155.669 63.6502 154.811Z" fill="#DFE8F4"/>
<path d="M20 151.805C32.7943 153.905 45.6992 155.301 58.6539 155.988C60.3845 156.077 62.1041 155.672 63.6019 154.821C65.1502 153.934 66.3877 152.611 67.1522 151.026C67.9167 149.441 68.1724 147.667 67.8857 145.937C66.6722 138.465 63.2948 131.488 58.1521 125.829C53.0095 120.17 46.3161 116.066 38.8621 114C27.9475 123.851 21.2164 137.342 20 151.805Z" fill="#CCD8E5"/>
<path d="M147.998 90.2892V82.158C147.999 78.9687 147.146 75.8352 145.524 73.0721C143.902 70.3089 141.568 68.0134 138.757 66.4159C135.938 64.8328 132.747 64 129.499 64C126.252 64 123.061 64.8328 120.242 66.4159C117.431 68.0134 115.097 70.3089 113.475 73.0721C111.853 75.8352 111 78.9687 111.001 82.158V90.2892C110.976 93.1233 111.725 95.9121 113.17 98.3658C114.615 100.82 116.702 102.849 119.215 104.242C122.366 106.048 125.95 107 129.599 107C133.248 107 136.831 106.048 139.983 104.242C142.459 102.824 144.506 100.784 145.915 98.3317C147.323 95.8798 148.042 93.1041 147.998 90.2892Z" fill="#DFE8F4"/>
<path d="M95.2747 155.129C96.7771 155.788 98.4165 156.08 100.056 155.981C114.051 155.177 127.981 153.504 141.766 150.97C146.036 150.183 149.895 147.94 152.677 144.626C155.458 141.313 156.987 137.139 156.999 132.824C157.034 129.453 156.129 126.138 154.383 123.248C152.637 120.357 150.118 118.003 147.107 116.448C141.577 113.616 135.462 112.095 129.241 112.004C123.021 111.913 116.863 113.254 111.252 115.923C105.64 118.591 100.726 122.514 96.8962 127.384C93.0661 132.254 90.4232 137.939 89.1748 143.993C88.7438 146.263 89.1155 148.612 90.227 150.641C91.3386 152.67 93.1217 154.256 95.2747 155.129Z" fill="#DFE8F4"/>
<path d="M118.421 114C111.38 115.989 105.022 119.858 100.039 125.185C95.0564 130.513 91.6397 137.096 90.1604 144.219C89.756 146.436 90.1216 148.723 91.1972 150.707C92.2728 152.69 93.9947 154.252 96.0807 155.136C97.5711 155.79 99.1974 156.08 100.824 155.981C112.949 155.273 125.025 153.907 137 151.887C135.796 137.394 129.167 123.876 118.421 114Z" fill="#CCD8E5"/>
<path d="M102 78.1274V67.9112C102.024 63.8848 100.948 59.9245 98.8832 56.4366C96.8185 52.9487 93.8388 50.0586 90.2498 48.0626C86.6763 46.0562 82.6244 45 78.5 45C74.3756 45 70.3237 46.0562 66.7502 48.0626C63.1612 50.0586 60.1815 52.9487 58.1168 56.4366C56.052 59.9245 54.9765 63.8848 55.0004 67.9112V78.1274C54.9831 81.6454 55.9149 85.1061 57.7025 88.1628C59.4901 91.2194 62.0707 93.7647 65.1858 95.5435C69.19 97.8076 73.7373 99 78.3668 99C82.9964 99 87.5437 97.8076 91.5479 95.5435C94.7125 93.7976 97.3465 91.2666 99.1822 88.2077C101.018 85.1487 101.99 81.6709 102 78.1274Z" fill="#0795FF"/>
<path d="M78.5 106C65.6781 106.011 53.3372 110.912 43.9655 119.714C34.5939 128.517 28.8886 140.567 28 153.435C44.7272 155.834 61.6037 157.025 78.5 157C95.3963 157.025 112.273 155.834 129 153.435C128.111 140.567 122.406 128.517 113.034 119.714C103.663 110.912 91.3219 106.011 78.5 106Z" fill="#0795FF"/>
<path d="M98.6496 3.21519C96.0151 1.0204 92.6372 -0.0953342 89.2032 0.095071C85.7693 0.285476 82.5375 1.76771 80.1656 4.24009L79 5.23193L77.8343 4.07479C75.4405 1.62613 72.1972 0.174392 68.7637 0.0147173C65.3302 -0.144957 61.9643 0.999422 59.3504 3.21519C58.0275 4.39278 56.9601 5.82543 56.213 7.42582C55.466 9.02622 55.055 10.7609 55.0052 12.524C54.9553 14.2872 55.2676 16.042 55.923 17.6815C56.5785 19.3209 57.5633 20.8108 58.8175 22.0602L77.135 40.2439C77.633 40.7286 78.3026 41 79 41C79.6974 41 80.367 40.7286 80.865 40.2439L99.1825 22.0602C100.437 20.8108 101.422 19.3209 102.077 17.6815C102.732 16.042 103.045 14.2872 102.995 12.524C102.945 10.7609 102.534 9.02622 101.787 7.42582C101.04 5.82543 99.9725 4.39278 98.6496 3.21519Z" fill="#156CDD"/>
</svg>
