<svg width="22" height="36" viewBox="0 0 22 36" fill="none" xmlns="http://www.w3.org/2000/svg">
<path d="M11 11V11.01M11 18V18.01M11 25V25.01M11 12C10.7348 12 10.4804 11.8946 10.2929 11.7071C10.1054 11.5196 10 11.2652 10 11C10 10.7348 10.1054 10.4804 10.2929 10.2929C10.4804 10.1054 10.7348 10 11 10C11.2652 10 11.5196 10.1054 11.7071 10.2929C11.8946 10.4804 12 10.7348 12 11C12 11.2652 11.8946 11.5196 11.7071 11.7071C11.5196 11.8946 11.2652 12 11 12ZM11 19C10.7348 19 10.4804 18.8946 10.2929 18.7071C10.1054 18.5196 10 18.2652 10 18C10 17.7348 10.1054 17.4804 10.2929 17.2929C10.4804 17.1054 10.7348 17 11 17C11.2652 17 11.5196 17.1054 11.7071 17.2929C11.8946 17.4804 12 17.7348 12 18C12 18.2652 11.8946 18.5196 11.7071 18.7071C11.5196 18.8946 11.2652 19 11 19ZM11 26C10.7348 26 10.4804 25.8946 10.2929 25.7071C10.1054 25.5196 10 25.2652 10 25C10 24.7348 10.1054 24.4804 10.2929 24.2929C10.4804 24.1054 10.7348 24 11 24C11.2652 24 11.5196 24.1054 11.7071 24.2929C11.8946 24.4804 12 24.7348 12 25C12 25.2652 11.8946 25.5196 11.7071 25.7071C11.5196 25.8946 11.2652 26 11 26Z" stroke="black" stroke-linecap="round" stroke-linejoin="round"/>
</svg>
