<svg width="17" height="19" viewBox="0 0 17 19" fill="none" xmlns="http://www.w3.org/2000/svg">
<path d="M11.3125 14.1875H16L14.6828 12.8703C14.5059 12.6934 14.3656 12.4834 14.2699 12.2522C14.1742 12.021 14.125 11.7733 14.125 11.5231V8.5625C14.1251 7.399 13.7646 6.26407 13.093 5.31396C12.4215 4.36385 11.4719 3.64528 10.375 3.25719V2.9375C10.375 2.44022 10.1775 1.96331 9.82582 1.61167C9.47419 1.26004 8.99728 1.0625 8.5 1.0625C8.00272 1.0625 7.52581 1.26004 7.17418 1.61167C6.82254 1.96331 6.625 2.44022 6.625 2.9375V3.25719C4.44063 4.02969 2.875 6.11375 2.875 8.5625V11.5241C2.875 12.0284 2.67438 12.5131 2.31719 12.8703L1 14.1875H5.6875M11.3125 14.1875V15.125C11.3125 15.8709 11.0162 16.5863 10.4887 17.1137C9.96129 17.6412 9.24592 17.9375 8.5 17.9375C7.75408 17.9375 7.03871 17.6412 6.51126 17.1137C5.98382 16.5863 5.6875 15.8709 5.6875 15.125V14.1875M11.3125 14.1875H5.6875" stroke="black" stroke-linecap="round" stroke-linejoin="round"/>
</svg>
