<svg width="20" height="22" viewBox="0 0 20 22" fill="none" xmlns="http://www.w3.org/2000/svg">
<path d="M13.2222 16.5556H18.7778L17.2167 14.9944C17.007 14.7848 16.8407 14.5358 16.7273 14.2619C16.6139 13.9879 16.5555 13.6943 16.5556 13.3978V9.88889C16.5557 8.50993 16.1284 7.16482 15.3325 6.03876C14.5365 4.91271 13.4111 4.06107 12.1111 3.60111V3.22222C12.1111 2.63285 11.877 2.06762 11.4602 1.65087C11.0435 1.23413 10.4783 1 9.88889 1C9.29952 1 8.73429 1.23413 8.31754 1.65087C7.90079 2.06762 7.66667 2.63285 7.66667 3.22222V3.60111C5.07778 4.51667 3.22222 6.98667 3.22222 9.88889V13.3989C3.22222 13.9967 2.98444 14.5711 2.56111 14.9944L1 16.5556H6.55556M13.2222 16.5556V17.6667C13.2222 18.5507 12.871 19.3986 12.2459 20.0237C11.6208 20.6488 10.7729 21 9.88889 21C9.00483 21 8.15699 20.6488 7.53187 20.0237C6.90674 19.3986 6.55556 18.5507 6.55556 17.6667V16.5556M13.2222 16.5556H6.55556" stroke="black" stroke-width="1.5" stroke-linecap="round" stroke-linejoin="round"/>
</svg>
