<svg width="32" height="32" viewBox="0 0 32 32" fill="none" xmlns="http://www.w3.org/2000/svg">
<path d="M4.57045 31.0011L12.4276 26.7145H22.4281L30.2852 22.4291L29.5703 20.2857L22.4281 21.7155L13.1411 21.0006L15.9994 17.4288L15.2858 15.2855L8.14224 19.5722L4.57045 23.8575L1 25.2873L4.57045 31.0011ZM31.0001 1.00098H5.28535V15.2855H31.0001V1.00098Z" fill="white"/>
<path d="M30.9988 5.99967V1.00098H25.9988L30.9988 5.99967ZM25.9988 15.2862H30.9974V10.2862L25.9988 15.2862ZM5.28516 10.2862V15.2862H10.2852L5.28516 10.2862ZM5.28516 5.99967V1.00098H10.2852L5.28516 5.99967Z" fill="#BBD8FF"/>
<path d="M5.28516 6.00003L10.2852 1.00134M5.28516 10.2865L10.2852 15.2866H5.28516V1H30.9988V15.2839H19.5704M30.9988 6.00003L25.9988 1.00134M30.9988 10.2865L25.9988 15.2866" stroke="#092F63" stroke-linecap="round" stroke-linejoin="round"/>
<path d="M19.5712 5.28648H16.7143L15.9994 6.71359L16.7143 8.14205H19.5712L20.2847 9.57184L19.5712 10.999H16.7143M18.1427 5.28648V3.85669M18.1427 12.4287V11.0003M4.57045 31.0013L12.4276 26.7146H22.4281L30.2852 22.4292L29.5703 20.2859L22.4281 21.7157L13.1411 21.0008L15.9994 17.429L15.2858 15.2856L8.14224 19.5723L4.57045 23.8577L1 25.2875" stroke="#092F63" stroke-linecap="round" stroke-linejoin="round"/>
</svg>
