<svg width="19" height="19" viewBox="0 0 19 19" fill="none" xmlns="http://www.w3.org/2000/svg">
<path d="M18 9.5C18 10.6162 17.7801 11.7215 17.353 12.7528C16.9258 13.7841 16.2997 14.7211 15.5104 15.5104C14.7211 16.2997 13.7841 16.9258 12.7528 17.353C11.7215 17.7801 10.6162 18 9.5 18C8.38376 18 7.27846 17.7801 6.24719 17.353C5.21592 16.9258 4.27889 16.2997 3.48959 15.5104C2.70029 14.7211 2.07419 13.7841 1.64702 12.7528C1.21986 11.7215 1 10.6162 1 9.5C1 7.24566 1.89553 5.08365 3.48959 3.48959C5.08365 1.89553 7.24566 1 9.5 1C11.7543 1 13.9163 1.89553 15.5104 3.48959C17.1045 5.08365 18 7.24566 18 9.5Z" stroke="#9E2A2F" stroke-width="1.5" stroke-linecap="round" stroke-linejoin="round"/>
</svg>
