<svg width="17" height="17" viewBox="0 0 17 17" fill="none" xmlns="http://www.w3.org/2000/svg">
<path d="M2.7675 13.3367C4.51618 12.3483 6.49132 11.8303 8.5 11.8333C10.5833 11.8333 12.5392 12.3792 14.2325 13.3367M11 6.83333C11 7.49637 10.7366 8.13226 10.2678 8.6011C9.79893 9.06994 9.16304 9.33333 8.5 9.33333C7.83696 9.33333 7.20107 9.06994 6.73223 8.6011C6.26339 8.13226 6 7.49637 6 6.83333C6 6.17029 6.26339 5.53441 6.73223 5.06557C7.20107 4.59673 7.83696 4.33333 8.5 4.33333C9.16304 4.33333 9.79893 4.59673 10.2678 5.06557C10.7366 5.53441 11 6.17029 11 6.83333ZM16 8.5C16 9.48491 15.806 10.4602 15.4291 11.3701C15.0522 12.2801 14.4997 13.1069 13.8033 13.8033C13.1069 14.4997 12.2801 15.0522 11.3701 15.4291C10.4602 15.806 9.48491 16 8.5 16C7.51509 16 6.53982 15.806 5.62987 15.4291C4.71993 15.0522 3.89314 14.4997 3.1967 13.8033C2.50026 13.1069 1.94781 12.2801 1.5709 11.3701C1.19399 10.4602 1 9.48491 1 8.5C1 6.51088 1.79018 4.60322 3.1967 3.1967C4.60322 1.79018 6.51088 1 8.5 1C10.4891 1 12.3968 1.79018 13.8033 3.1967C15.2098 4.60322 16 6.51088 16 8.5Z" stroke="black" stroke-linecap="round" stroke-linejoin="round"/>
</svg>
