<svg width="14" height="17" viewBox="0 0 14 17" fill="none" xmlns="http://www.w3.org/2000/svg">
<path d="M4.42857 2.50042H2.71429C2.25963 2.50042 1.82359 2.68103 1.5021 3.00252C1.18061 3.32401 1 3.76005 1 4.2147V14.5004C1 14.9551 1.18061 15.3911 1.5021 15.7126C1.82359 16.0341 2.25963 16.2147 2.71429 16.2147H11.2857C11.7404 16.2147 12.1764 16.0341 12.4979 15.7126C12.8194 15.3911 13 14.9551 13 14.5004V4.2147C13 3.76005 12.8194 3.32401 12.4979 3.00252C12.1764 2.68103 11.7404 2.50042 11.2857 2.50042H9.57143M4.42857 2.50042C4.42857 2.95508 4.60918 3.39111 4.93067 3.7126C5.25217 4.03409 5.6882 4.2147 6.14286 4.2147H7.85714C8.3118 4.2147 8.74783 4.03409 9.06933 3.7126C9.39082 3.39111 9.57143 2.95508 9.57143 2.50042M4.42857 2.50042C4.42857 2.04576 4.60918 1.60973 4.93067 1.28824C5.25217 0.966744 5.6882 0.786133 6.14286 0.786133H7.85714C8.3118 0.786133 8.74783 0.966744 9.06933 1.28824C9.39082 1.60973 9.57143 2.04576 9.57143 2.50042M7 8.50042H9.57143M7 11.929H9.57143M4.42857 8.50042H4.43714M4.42857 11.929H4.43714" stroke="#9E2A2F" stroke-width="1.5" stroke-linecap="round" stroke-linejoin="round"/>
</svg>
