<svg width="40" height="28" viewBox="0 0 40 28" fill="none" xmlns="http://www.w3.org/2000/svg">
<path d="M32.1983 1H1V20.0678H32.1983V1Z" fill="white"/>
<path d="M1 7.06779V1H7.06779L1 7.06779ZM35.6661 7.9322V4.46949H32.1983V1H26.1339L32.2017 7.06779V14L26.1339 20.0678H7.06609L1 14V20.0678H4.46779V23.5322H7.93389V27H39.1322V7.9322H35.6661Z" fill="#BBD8FF"/>
<path d="M1 7.06779L7.06779 1M1 14L7.06779 20.0678M32.1983 7.06779L26.1339 1M32.1983 14L26.1322 20.0678M32.1983 1H1V20.0678H32.1983V1Z" stroke="#092F63" stroke-linecap="round" stroke-linejoin="round"/>
<path d="M35.6658 4.46753V23.5319H4.46582" stroke="#092F63" stroke-linecap="round" stroke-linejoin="round"/>
<path d="M39.1323 7.93217V26.9999H7.93408M20.0663 7.93217H14.4341L13.1341 9.66776L14.4341 11.4017H18.7663L20.0663 13.1356L18.7663 14.8678H13.1341M16.6002 7.93217V6.20166M16.6002 16.6V14.8644" stroke="#092F63" stroke-linecap="round" stroke-linejoin="round"/>
</svg>
