<svg width="18" height="18" viewBox="0 0 18 18" fill="none" xmlns="http://www.w3.org/2000/svg">
<path d="M16.3636 0H1.63636C1.20237 0 0.786157 0.172402 0.47928 0.47928C0.172402 0.786157 0 1.20237 0 1.63636V16.3636C0 16.7976 0.172402 17.2138 0.47928 17.5207C0.786157 17.8276 1.20237 18 1.63636 18H16.3636C16.7976 18 17.2138 17.8276 17.5207 17.5207C17.8276 17.2138 18 16.7976 18 16.3636V1.63636C18 1.20237 17.8276 0.786157 17.5207 0.47928C17.2138 0.172402 16.7976 0 16.3636 0ZM16.3636 1.63636V8.18182H1.63636V1.63636H16.3636ZM16.3636 16.3636H1.63636V9.81818H16.3636V16.3636Z" fill="black"/>
</svg>
