<svg width="18" height="18" viewBox="0 0 18 18" fill="none" xmlns="http://www.w3.org/2000/svg">
<path d="M18 1.63636V7.77273C18 7.88123 17.9569 7.98528 17.8802 8.062C17.8035 8.13872 17.6994 8.18182 17.5909 8.18182H0.409091C0.300593 8.18182 0.196539 8.13872 0.11982 8.062C0.0431006 7.98528 0 7.88123 0 7.77273V1.63636C0 1.20237 0.172402 0.786157 0.47928 0.47928C0.786157 0.172402 1.20237 0 1.63636 0H16.3636C16.7976 0 17.2138 0.172402 17.5207 0.47928C17.8276 0.786157 18 1.20237 18 1.63636ZM17.5909 9.81818H0.409091C0.300593 9.81818 0.196539 9.86128 0.11982 9.938C0.0431006 10.0147 0 10.1188 0 10.2273V16.3636C0 16.7976 0.172402 17.2138 0.47928 17.5207C0.786157 17.8276 1.20237 18 1.63636 18H16.3636C16.7976 18 17.2138 17.8276 17.5207 17.5207C17.8276 17.2138 18 16.7976 18 16.3636V10.2273C18 10.1188 17.9569 10.0147 17.8802 9.938C17.8035 9.86128 17.6994 9.81818 17.5909 9.81818Z" fill="#000000"/>
</svg>
