<svg width="14" height="18" viewBox="0 0 14 18" fill="none" xmlns="http://www.w3.org/2000/svg">
<path fill-rule="evenodd" clip-rule="evenodd" d="M2.33333 0C1.71449 0 1.121 0.237053 0.683417 0.65901C0.245833 1.08097 0 1.65326 0 2.25V15.75C0 16.3467 0.245833 16.919 0.683417 17.341C1.121 17.7629 1.71449 18 2.33333 18H11.6667C12.2855 18 12.879 17.7629 13.3166 17.341C13.7542 16.919 14 16.3467 14 15.75V6.09075C13.9999 5.49406 13.7539 4.92186 13.3163 4.5L9.33333 0.65925C8.89585 0.237264 8.30245 0.000127434 7.68367 0H2.33333ZM4.66667 11.25C4.66667 10.9516 4.54375 10.6655 4.32496 10.4545C4.10616 10.2435 3.80942 10.125 3.5 10.125C3.19058 10.125 2.89383 10.2435 2.67504 10.4545C2.45625 10.6655 2.33333 10.9516 2.33333 11.25V14.625C2.33333 14.9234 2.45625 15.2095 2.67504 15.4205C2.89383 15.6315 3.19058 15.75 3.5 15.75C3.80942 15.75 4.10616 15.6315 4.32496 15.4205C4.54375 15.2095 4.66667 14.9234 4.66667 14.625V11.25ZM7 7.875C7.30942 7.875 7.60616 7.99353 7.82496 8.2045C8.04375 8.41548 8.16667 8.70163 8.16667 9V14.625C8.16667 14.9234 8.04375 15.2095 7.82496 15.4205C7.60616 15.6315 7.30942 15.75 7 15.75C6.69058 15.75 6.39383 15.6315 6.17504 15.4205C5.95625 15.2095 5.83333 14.9234 5.83333 14.625V9C5.83333 8.70163 5.95625 8.41548 6.17504 8.2045C6.39383 7.99353 6.69058 7.875 7 7.875ZM11.6667 6.75C11.6667 6.45163 11.5437 6.16548 11.325 5.9545C11.1062 5.74353 10.8094 5.625 10.5 5.625C10.1906 5.625 9.89383 5.74353 9.67504 5.9545C9.45625 6.16548 9.33333 6.45163 9.33333 6.75V14.625C9.33333 14.9234 9.45625 15.2095 9.67504 15.4205C9.89383 15.6315 10.1906 15.75 10.5 15.75C10.8094 15.75 11.1062 15.6315 11.325 15.4205C11.5437 15.2095 11.6667 14.9234 11.6667 14.625V6.75Z" fill="#9E2A2F"/>
</svg>
