<svg width="11" height="15" viewBox="0 0 11 15" fill="none" xmlns="http://www.w3.org/2000/svg">
<path d="M11 3.52036C11 3.64214 10.9503 3.75893 10.862 3.84504C10.7736 3.93115 10.6537 3.97953 10.5287 3.97953H7.83379C7.84991 4.13209 7.85804 4.28535 7.85814 4.43871C7.85669 5.61549 7.37625 6.74367 6.5222 7.57578C5.66816 8.4079 4.51025 8.876 3.30245 8.87742H1.69382L7.70105 14.2008C7.79354 14.2828 7.84882 14.3972 7.85471 14.519C7.8606 14.6407 7.81663 14.7597 7.73247 14.8498C7.64831 14.9399 7.53085 14.9937 7.40594 14.9995C7.28103 15.0052 7.15889 14.9624 7.06639 14.8804L0.154307 8.75803C0.0836908 8.6955 0.0342211 8.61355 0.0124406 8.52304C-0.00933989 8.43252 -0.00240455 8.33769 0.0323295 8.25109C0.0670635 8.16449 0.127959 8.09021 0.206963 8.03807C0.285966 7.98592 0.379355 7.95837 0.474777 7.95906H3.30245C4.26033 7.95785 5.17862 7.58657 5.85595 6.92663C6.53327 6.2667 6.91434 5.37199 6.91559 4.43871C6.91497 4.28516 6.90448 4.1318 6.88417 3.97953H0.474777C0.349786 3.97953 0.229915 3.93115 0.141533 3.84504C0.0531511 3.75893 0.0034984 3.64214 0.0034984 3.52036C0.0034984 3.39857 0.0531511 3.28178 0.141533 3.19567C0.229915 3.10956 0.349786 3.06118 0.474777 3.06118H6.62732C6.34927 2.42609 5.886 1.8845 5.29495 1.50359C4.70391 1.12267 4.0111 0.919176 3.30245 0.918354H0.474777C0.349786 0.918354 0.229915 0.869976 0.141533 0.783864C0.0531511 0.697752 0.0034984 0.580958 0.0034984 0.459177C0.0034984 0.337396 0.0531511 0.220602 0.141533 0.13449C0.229915 0.0483774 0.349786 0 0.474777 0H10.5287C10.6537 0 10.7736 0.0483774 10.862 0.13449C10.9503 0.220602 11 0.337396 11 0.459177C11 0.580958 10.9503 0.697752 10.862 0.783864C10.7736 0.869976 10.6537 0.918354 10.5287 0.918354H6.07278C6.80188 1.46374 7.34546 2.21045 7.63271 3.06118H10.5287C10.6537 3.06118 10.7736 3.10956 10.862 3.19567C10.9503 3.28178 11 3.39857 11 3.52036Z" fill="black"/>
</svg>
