<svg width="21" height="20" viewBox="0 0 21 20" fill="none" xmlns="http://www.w3.org/2000/svg">
<path d="M7.64648 6H13.6465M8.64648 6C9.04045 6 9.43056 6.0776 9.79453 6.22836C10.1585 6.37913 10.4892 6.6001 10.7678 6.87868C11.0464 7.15726 11.2674 7.48797 11.4181 7.85195C11.5689 8.21593 11.6465 8.60603 11.6465 9C11.6465 9.39397 11.5689 9.78407 11.4181 10.1481C11.2674 10.512 11.0464 10.8427 10.7678 11.1213C10.4892 11.3999 10.1585 11.6209 9.79453 11.7716C9.43056 11.9224 9.04045 12 8.64648 12H7.64648L10.6465 15M7.64648 9H13.6465M19.6465 10C19.6465 11.1819 19.4137 12.3522 18.9614 13.4442C18.5091 14.5361 17.8462 15.5282 17.0104 16.364C16.1747 17.1997 15.1826 17.8626 14.0906 18.3149C12.9987 18.7672 11.8284 19 10.6465 19C9.46459 19 8.29426 18.7672 7.20233 18.3149C6.1104 17.8626 5.11825 17.1997 4.28252 16.364C3.4468 15.5282 2.78386 14.5361 2.33157 13.4442C1.87928 12.3522 1.64648 11.1819 1.64648 10C1.64648 7.61305 2.5947 5.32387 4.28252 3.63604C5.97035 1.94821 8.25954 1 10.6465 1C13.0334 1 15.3226 1.94821 17.0104 3.63604C18.6983 5.32387 19.6465 7.61305 19.6465 10Z" stroke="black" stroke-width="1.5" stroke-linecap="round" stroke-linejoin="round"/>
</svg>
