<svg width="15" height="15" viewBox="0 0 15 15" fill="none" xmlns="http://www.w3.org/2000/svg">
<path d="M1.42717 15C1.02836 15 0.690789 14.8618 0.414474 14.5855C0.138158 14.3092 0 13.9716 0 13.5728V5.37454C0 4.97572 0.138158 4.63816 0.414474 4.36184C0.690789 4.08553 1.02836 3.94737 1.42717 3.94737H5.52632V1.18421C5.52632 0.856316 5.64171 0.576973 5.8725 0.346184C6.10329 0.115394 6.38263 0 6.71053 0H8.28947C8.61737 0 8.89671 0.115394 9.1275 0.346184C9.35829 0.576973 9.47368 0.856316 9.47368 1.18421V3.94737H13.5728C13.9716 3.94737 14.3092 4.08553 14.5855 4.36184C14.8618 4.63816 15 4.97572 15 5.37454V13.5728C15 13.9716 14.8618 14.3092 14.5855 14.5855C14.3092 14.8618 13.9716 15 13.5728 15H1.42717ZM1.42717 13.8158H13.5728C13.6437 13.8158 13.702 13.793 13.7475 13.7475C13.793 13.702 13.8158 13.6437 13.8158 13.5728V5.37454C13.8158 5.30362 13.793 5.2454 13.7475 5.19987C13.702 5.15434 13.6437 5.13158 13.5728 5.13158H9.47368V5.43533C9.47368 5.75809 9.35704 6.03612 9.12375 6.26941C8.89046 6.5027 8.61237 6.61934 8.28947 6.61934H6.71053C6.38763 6.61934 6.10954 6.5027 5.87625 6.26941C5.64296 6.03612 5.52632 5.75809 5.52632 5.43533V5.13158H1.42717C1.35625 5.13158 1.29803 5.15434 1.2525 5.19987C1.20697 5.2454 1.18421 5.30362 1.18421 5.37454V13.5728C1.18421 13.6437 1.20697 13.702 1.2525 13.7475C1.29803 13.793 1.35625 13.8158 1.42717 13.8158ZM2.88454 12.0091H7.37862V11.7752C7.37862 11.5718 7.32243 11.3848 7.21007 11.2143C7.0977 11.0437 6.9423 10.9109 6.74388 10.8158C6.48586 10.7024 6.22447 10.6174 5.95974 10.5608C5.69513 10.5041 5.41908 10.4757 5.13158 10.4757C4.84408 10.4757 4.56803 10.5041 4.30342 10.5608C4.03868 10.6174 3.7773 10.7024 3.51928 10.8158C3.32086 10.9109 3.16546 11.0437 3.05309 11.2143C2.94072 11.3848 2.88454 11.5718 2.88454 11.7752V12.0091ZM9.07895 10.8097H12.2368V9.86842H9.07895V10.8097ZM5.13158 9.86842C5.42513 9.86842 5.67566 9.76467 5.88316 9.55717C6.09066 9.34967 6.19441 9.09914 6.19441 8.80559C6.19441 8.51217 6.09066 8.26171 5.88316 8.05421C5.67566 7.84671 5.42513 7.74296 5.13158 7.74296C4.83803 7.74296 4.5875 7.84671 4.38 8.05421C4.1725 8.26171 4.06875 8.51217 4.06875 8.80559C4.06875 9.09914 4.1725 9.34967 4.38 9.55717C4.5875 9.76467 4.83803 9.86842 5.13158 9.86842ZM9.07895 8.68421H12.2368V7.74296H9.07895V8.68421ZM6.71053 5.43533H8.28947V1.18421H6.71053V5.43533Z" fill="#9E2A2F"/>
</svg>
