<svg width="15" height="15" viewBox="0 0 15 15" fill="none" xmlns="http://www.w3.org/2000/svg">
<path d="M10.8798 13.0171L13.3652 10.5591L12.7053 9.89912L10.8798 11.6927L10.1201 10.9253L9.46013 11.5972L10.8798 13.0171ZM2.27053 4.22289H11.1099V3.04246H2.27053V4.22289ZM11.4127 15C10.4299 15 9.59387 14.6554 8.90464 13.9662C8.21542 13.2769 7.87081 12.4409 7.87081 11.4581C7.87081 10.4753 8.21542 9.63932 8.90464 8.9501C9.59387 8.26088 10.4299 7.91627 11.4127 7.91627C12.3955 7.91627 13.2315 8.26088 13.9207 8.9501C14.6099 9.63932 14.9545 10.4753 14.9545 11.4581C14.9545 12.4409 14.6099 13.2769 13.9207 13.9662C13.2315 14.6554 12.3955 15 11.4127 15ZM0 14.0766V1.42285C0 1.03035 0.138985 0.695058 0.416956 0.416956C0.695059 0.138985 1.03036 0 1.42285 0H11.9575C12.35 0 12.6853 0.138985 12.9634 0.416956C13.2414 0.695058 13.3804 1.03035 13.3804 1.42285V6.38894C13.1916 6.30616 13.0002 6.23683 12.806 6.18095C12.6117 6.12494 12.4097 6.0823 12.1998 6.05305V1.42285C12.1998 1.36224 12.1745 1.30675 12.124 1.25638C12.0736 1.20587 12.0181 1.18062 11.9575 1.18062H1.42285C1.36224 1.18062 1.30675 1.20587 1.25638 1.25638C1.20587 1.30675 1.18062 1.36224 1.18062 1.42285V12.2391H6.0682C6.11857 12.5499 6.19243 12.8486 6.28976 13.1352C6.38723 13.4217 6.51717 13.6936 6.67957 13.951L6.60696 14.0236L5.57018 13.1079L4.44996 14.0766L3.32994 13.1079L2.20993 14.0766L1.08991 13.1079L0 14.0766ZM2.27053 10.3379H6.12113C6.15537 10.128 6.20305 9.92601 6.26418 9.73187C6.32518 9.53759 6.39956 9.34613 6.48732 9.15749H2.27053V10.3379ZM2.27053 7.2805H7.94205C8.31945 6.93642 8.74729 6.65995 9.22558 6.45112C9.70386 6.24215 10.2134 6.12507 10.7543 6.09988H2.27053V7.2805Z" fill="#9E2A2F"/>
</svg>
