<svg width="30" height="31" viewBox="0 0 30 31" fill="none" xmlns="http://www.w3.org/2000/svg">
<path d="M16.3678 0.0131836L0 8.03757V22.4021L13.6322 30.2951L30 21.1711V6.80656L16.3678 0.0131836Z" fill="url(#paint0_linear_3194_1811)"/>
<path d="M8.14929 15.7968L5.46736 14.4049C4.94439 14.134 4.4375 14.3432 4.35168 14.901C4.24709 15.4777 4.61719 16.1401 5.16967 16.4485L8.02324 17.9424C8.18147 18.0175 8.34507 18.055 8.49257 18.0523C8.84122 18.0362 9.07723 17.7841 9.09332 17.3738C9.12819 16.7918 8.71517 16.1106 8.14929 15.7968Z" fill="#593E37"/>
<path d="M8.29264 14.8393L5.51953 13.3509V10.8218L8.24168 12.1762L8.29264 14.8393Z" fill="#A17F69"/>
<path d="M8.11027 27.0715L5.51953 25.5697V22.5337L8.11027 24.0785V27.0715Z" fill="#A17F69"/>
<path d="M0 8.03757L13.6564 14.8202L30 6.68051L16.3678 0.0131836L0 8.03757Z" fill="#FFE082"/>
<path d="M24.4264 3.96159L21.7579 2.63135L5.54297 10.822L8.24098 12.1764L24.4264 3.96159Z" fill="#C99470"/>
<path d="M13.6562 14.8203V30.322L29.9999 21.1712V6.80664L13.6562 14.8203Z" fill="url(#paint1_linear_3194_1811)"/>
<path opacity="0.2" d="M16.3705 0.895771L29.1981 7.17153V20.6885L13.6751 29.3781L0.804577 21.9249V8.52591L16.3705 0.895771ZM16.3678 0L0 8.02439V22.3889L13.6322 30.2819L13.6564 30.2685V30.3087L30 21.1579V6.79338L29.8739 6.73169L30 6.67001L16.3678 0Z" fill="#444444"/>
<defs>
<linearGradient id="paint0_linear_3194_1811" x1="15" y1="-0.434702" x2="15" y2="30.0269" gradientUnits="userSpaceOnUse">
<stop offset="0.0059391" stop-color="#FFE2B8"/>
<stop offset="0.9219" stop-color="#FFA726"/>
</linearGradient>
<linearGradient id="paint1_linear_3194_1811" x1="21.8278" y1="13.1763" x2="21.8278" y2="28.3481" gradientUnits="userSpaceOnUse">
<stop offset="0.011" stop-color="#FFAF39"/>
<stop offset="0.927" stop-color="#DE8400"/>
</linearGradient>
</defs>
</svg>
