<svg width="17" height="17" viewBox="0 0 17 17" fill="none" xmlns="http://www.w3.org/2000/svg">
<path d="M7.10417 2.0975C7.45917 0.634167 9.54083 0.634167 9.89583 2.0975C9.9491 2.31733 10.0535 2.52148 10.2006 2.69333C10.3477 2.86518 10.5332 2.99988 10.7422 3.08645C10.9512 3.17303 11.1776 3.20904 11.4032 3.19156C11.6287 3.17407 11.8469 3.10359 12.04 2.98583C13.3258 2.2025 14.7983 3.67417 14.015 4.96083C13.8974 5.15388 13.827 5.37195 13.8096 5.59731C13.7922 5.82267 13.8281 6.04897 13.9146 6.25782C14.0011 6.46666 14.1356 6.65215 14.3073 6.79921C14.4789 6.94627 14.6829 7.05075 14.9025 7.10417C16.3658 7.45917 16.3658 9.54083 14.9025 9.89583C14.6827 9.9491 14.4785 10.0535 14.3067 10.2006C14.1348 10.3477 14.0001 10.5332 13.9135 10.7422C13.827 10.9512 13.791 11.1776 13.8084 11.4032C13.8259 11.6287 13.8964 11.8469 14.0142 12.04C14.7975 13.3258 13.3258 14.7983 12.0392 14.015C11.8461 13.8974 11.6281 13.827 11.4027 13.8096C11.1773 13.7922 10.951 13.8281 10.7422 13.9146C10.5333 14.0011 10.3479 14.1356 10.2008 14.3073C10.0537 14.4789 9.94925 14.6829 9.89583 14.9025C9.54083 16.3658 7.45917 16.3658 7.10417 14.9025C7.0509 14.6827 6.94648 14.4785 6.79941 14.3067C6.65233 14.1348 6.46676 14.0001 6.25779 13.9135C6.04882 13.827 5.82236 13.791 5.59685 13.8084C5.37133 13.8259 5.15313 13.8964 4.96 14.0142C3.67417 14.7975 2.20167 13.3258 2.985 12.0392C3.10258 11.8461 3.17296 11.6281 3.1904 11.4027C3.20785 11.1773 3.17187 10.951 3.08539 10.7422C2.99892 10.5333 2.86438 10.3479 2.69273 10.2008C2.52107 10.0537 2.31714 9.94925 2.0975 9.89583C0.634167 9.54083 0.634167 7.45917 2.0975 7.10417C2.31733 7.0509 2.52148 6.94648 2.69333 6.79941C2.86518 6.65233 2.99988 6.46676 3.08645 6.25779C3.17303 6.04882 3.20904 5.82236 3.19156 5.59685C3.17407 5.37133 3.10359 5.15313 2.98583 4.96C2.2025 3.67417 3.67417 2.20167 4.96083 2.985C5.79083 3.49167 6.87417 3.04333 7.10417 2.0975Z" stroke="black" stroke-linecap="round" stroke-linejoin="round"/>
<path d="M11 8.5C11 9.16304 10.7366 9.79893 10.2678 10.2678C9.79893 10.7366 9.16304 11 8.5 11C7.83696 11 7.20107 10.7366 6.73223 10.2678C6.26339 9.79893 6 9.16304 6 8.5C6 7.83696 6.26339 7.20107 6.73223 6.73223C7.20107 6.26339 7.83696 6 8.5 6C9.16304 6 9.79893 6.26339 10.2678 6.73223C10.7366 7.20107 11 7.83696 11 8.5Z" stroke="black" stroke-linecap="round" stroke-linejoin="round"/>
</svg>
