<svg width="17" height="16" viewBox="0 0 17 16" fill="none" xmlns="http://www.w3.org/2000/svg">
<path d="M7.57409 1.5415C7.80927 0.819499 8.83074 0.819499 9.06514 1.5415L10.2559 5.20562C10.3072 5.36279 10.4068 5.49974 10.5406 5.59688C10.6743 5.69403 10.8354 5.74641 11.0007 5.74653H14.8537C15.6134 5.74653 15.9285 6.71861 15.3147 7.16546L12.1977 9.42946C12.0639 9.5268 11.9642 9.66402 11.9131 9.82146C11.862 9.9789 11.862 10.1485 11.9132 10.3059L13.1032 13.97C13.3384 14.6928 12.5113 15.2933 11.8975 14.8465L8.78057 12.5825C8.6466 12.4851 8.48524 12.4326 8.31961 12.4326C8.15399 12.4326 7.99262 12.4851 7.85866 12.5825L4.74173 14.8465C4.12791 15.2933 3.30086 14.692 3.53604 13.97L4.72605 10.3059C4.77723 10.1485 4.77726 9.9789 4.72614 9.82146C4.67502 9.66402 4.57538 9.5268 4.44148 9.42946L1.32456 7.16546C0.709951 6.71861 1.02666 5.74653 1.78551 5.74653H5.63777C5.80322 5.74658 5.96444 5.69428 6.09835 5.59711C6.23226 5.49995 6.332 5.36292 6.38329 5.20562L7.57409 1.5415Z" stroke="black" stroke-linecap="round" stroke-linejoin="round"/>
</svg>
