<svg width="37" height="37" viewBox="0 0 37 37" fill="none" xmlns="http://www.w3.org/2000/svg">
<g filter="url(#filter0_d_1296_9006)">
<path d="M4.61616 14.3741C4.61548 16.8187 5.25425 19.2058 6.46884 21.3097L4.5 28.4983L11.8566 26.5693C13.8913 27.677 16.1711 28.2574 18.4878 28.2576H18.4939C26.1418 28.2576 32.3674 22.0343 32.3707 14.385C32.3721 10.6784 30.9299 7.19297 28.3097 4.5707C25.6899 1.94866 22.2057 0.503889 18.4934 0.502197C10.8446 0.502197 4.61943 6.72517 4.61627 14.3741" fill="url(#paint0_linear_1296_9006)"/>
<path d="M4.12067 14.3695C4.11988 16.9021 4.78154 19.3745 6.03944 21.5537L4 29L11.6204 27.0019C13.72 28.1467 16.0841 28.7503 18.4896 28.7512H18.4958C26.4181 28.7512 32.8673 22.304 32.8706 14.381C32.872 10.5412 31.3779 6.93042 28.6641 4.21421C25.9499 1.49834 22.3411 0.00157886 18.4958 0C10.5721 0 4.12383 6.44627 4.12067 14.3695ZM8.65889 21.1784L8.37435 20.7268C7.17825 18.8249 6.54693 16.6271 6.54783 14.3704C6.55032 7.78481 11.9099 2.42694 18.5003 2.42694C21.6918 2.42829 24.6912 3.67244 26.9472 5.92976C29.2031 8.18731 30.4444 11.1883 30.4436 14.3801C30.4407 20.9656 25.081 26.3242 18.4958 26.3242H18.491C16.3468 26.323 14.2439 25.7472 12.4099 24.659L11.9735 24.4002L7.4514 25.5858L8.65889 21.1784Z" fill="url(#paint1_linear_1296_9006)"/>
<path d="M14.9029 8.36224C14.6338 7.76419 14.3506 7.75212 14.0947 7.74163C13.8852 7.73261 13.6456 7.73329 13.4063 7.73329C13.1668 7.73329 12.7776 7.8234 12.4486 8.18259C12.1193 8.54212 11.1914 9.41094 11.1914 11.178C11.1914 12.9451 12.4785 14.653 12.6579 14.8929C12.8376 15.1323 15.1427 18.8746 18.7935 20.3143C21.8276 21.5108 22.4451 21.2728 23.1036 21.2128C23.7622 21.1531 25.2287 20.3442 25.5279 19.5055C25.8274 18.6669 25.8274 17.9481 25.7376 17.7979C25.6478 17.6482 25.4083 17.5583 25.0491 17.3788C24.6899 17.1992 22.9239 16.3302 22.5947 16.2103C22.2654 16.0905 22.026 16.0308 21.7865 16.3904C21.5469 16.7495 20.8591 17.5583 20.6495 17.7979C20.44 18.038 20.2304 18.0678 19.8713 17.8882C19.5119 17.708 18.3552 17.3292 16.9828 16.1057C15.915 15.1536 15.1942 13.9779 14.9846 13.6183C14.7751 13.2592 14.9622 13.0645 15.1423 12.8856C15.3037 12.7246 15.5016 12.4662 15.6814 12.2565C15.8604 12.0467 15.9202 11.8971 16.04 11.6576C16.1599 11.4178 16.0999 11.208 16.0102 11.0284C15.9202 10.8487 15.2222 9.07239 14.9029 8.36224Z" fill="#F9F9F9"/>
</g>
<defs>
<filter id="filter0_d_1296_9006" x="0" y="0" width="36.8711" height="37" filterUnits="userSpaceOnUse" color-interpolation-filters="sRGB">
<feFlood flood-opacity="0" result="BackgroundImageFix"/>
<feColorMatrix in="SourceAlpha" type="matrix" values="0 0 0 0 0 0 0 0 0 0 0 0 0 0 0 0 0 0 127 0" result="hardAlpha"/>
<feOffset dy="4"/>
<feGaussianBlur stdDeviation="2"/>
<feComposite in2="hardAlpha" operator="out"/>
<feColorMatrix type="matrix" values="0 0 0 0 0 0 0 0 0 0 0 0 0 0 0 0 0 0 0.25 0"/>
<feBlend mode="normal" in2="BackgroundImageFix" result="effect1_dropShadow_1296_9006"/>
<feBlend mode="normal" in="SourceGraphic" in2="effect1_dropShadow_1296_9006" result="shape"/>
</filter>
<linearGradient id="paint0_linear_1296_9006" x1="1398.03" y1="2800.11" x2="1398.03" y2="0.502197" gradientUnits="userSpaceOnUse">
<stop stop-color="#1FAF38"/>
<stop offset="1" stop-color="#60D669"/>
</linearGradient>
<linearGradient id="paint1_linear_1296_9006" x1="1447.53" y1="2900" x2="1447.53" y2="0" gradientUnits="userSpaceOnUse">
<stop stop-color="#F9F9F9"/>
<stop offset="1" stop-color="white"/>
</linearGradient>
</defs>
</svg>
